<svg width="90" height="74" viewBox="0 0 90 74" fill="none" xmlns="http://www.w3.org/2000/svg">
<path fill-rule="evenodd" clip-rule="evenodd" d="M85.497 22.1451H76.8602L74.4361 3.89331C74.089 1.44277 71.8337 -0.275356 69.3732 0.0365544L3.90998 8.69366C2.72362 8.85243 1.64928 9.47587 0.924483 10.4266C0.196497 11.3709 -0.12134 12.5671 0.0418936 13.7471L5.56558 55.3147C5.85903 57.5533 7.7715 59.2271 10.0341 59.2254C10.2279 59.225 10.4213 59.2119 10.6135 59.1865L14.9499 58.6158V68.576C14.9499 71.0576 16.9659 73.0693 19.4529 73.0693H85.497C87.984 73.0693 90 71.0576 90 68.576V26.6384C90 24.1568 87.984 22.1451 85.497 22.1451ZM73.8327 22.1451H62.1114L73.6301 20.6219L73.8327 22.1451ZM3.31108 12.2449C3.0681 12.556 2.96116 12.9518 3.01388 13.3427L3.60678 17.8121L72.0525 8.75507L71.4596 4.29471C71.3401 3.47543 70.5851 2.90254 69.762 3.00663L4.31075 11.6607C3.9126 11.7141 3.55255 11.9245 3.31108 12.2449ZM14.9499 55.5948L10.2277 56.2164C9.4059 56.3254 8.65127 55.7489 8.54207 54.9289V54.9283L5.19334 29.6789L14.9499 28.3923V55.5948ZM4.79107 26.7088L15.148 25.3459C15.7191 23.4488 17.4678 22.1487 19.4529 22.1451H39.2661L73.2323 17.6518L72.8991 15.158L72.4488 11.7252L4.00304 20.7837L4.79107 26.7088ZM86.998 68.576C86.998 69.4031 86.3259 70.0738 85.497 70.0738H19.4529C18.6239 70.0738 17.9519 69.4031 17.9519 68.576V26.6834L17.952 26.6802L17.9523 26.6769C17.9526 26.6741 17.9532 26.6713 17.9538 26.6685L17.9556 26.6609C17.9575 26.6534 17.9594 26.6459 17.9594 26.6384C17.9594 25.8113 18.6314 25.1407 19.4604 25.1407H85.497C86.3259 25.1407 86.998 25.8113 86.998 26.6384V68.576ZM67.7405 43.2598C67.3005 43.8687 66.7734 44.4068 66.1771 44.8563C62.8815 47.3401 58.2382 46.6252 55.806 43.2598C53.3738 39.894 54.0737 35.1523 57.3694 32.6685C60.6651 30.1847 65.3083 30.8994 67.7405 34.265C69.1286 32.3367 71.3299 31.1952 73.6735 31.1886C76.0196 31.1852 78.2285 32.3174 79.6278 34.2408C82.0667 37.5931 81.3825 42.3297 78.0999 44.8202C74.8172 47.3108 70.1791 46.6121 67.7405 43.2598ZM78.1232 38.7623C78.1232 36.2526 76.131 34.2181 73.6735 34.2181C71.2159 34.2181 69.2237 36.2526 69.2237 38.7623C69.2237 41.2721 71.2159 43.3066 73.6735 43.3066C76.131 43.3066 78.1232 41.2721 78.1232 38.7623ZM61.8074 34.2181C64.265 34.2181 66.2572 36.2526 66.2572 38.7623C66.2572 41.2721 64.265 43.3066 61.8074 43.3066C59.3499 43.3066 57.3577 41.2721 57.3577 38.7623C57.3577 36.2526 59.3499 34.2181 61.8074 34.2181ZM24.0594 32.9703H26.7327V35.6436H24.0594V32.9703ZM48.1188 32.9703H30.297V35.6436H48.1188V32.9703ZM24.0594 39.2079H48.1188V41.8812H24.0594V39.2079ZM79.5883 52.5743H25.5602C24.7314 52.5743 24.0594 53.2226 24.0594 54.0223V62.7104C24.0594 63.5101 24.7314 64.1584 25.5602 64.1584H79.5883C80.4171 64.1584 81.0891 63.5101 81.0891 62.7104V54.0223C81.0891 53.2226 80.4173 52.5743 79.5883 52.5743ZM78.0875 61.2624H27.061V55.4703H78.0875V61.2624Z" fill="white"/>
</svg>
