<svg width="80" height="80" viewBox="0 0 80 80" fill="none" xmlns="http://www.w3.org/2000/svg">
<path fill-rule="evenodd" clip-rule="evenodd" d="M39.9607 3.11915H39.9224C39.0612 3.11915 38.363 2.42098 38.363 1.5597C38.363 0.698412 39.0612 0.000244141 39.9224 0.000244141H39.9607C40.8219 0.000244141 41.5201 0.698412 41.5201 1.5597C41.5201 2.42098 40.8219 3.11915 39.9607 3.11915ZM77.1603 50.0865L79.7235 56.2075C80.0559 57.0019 79.6817 57.9156 78.8873 58.2484C78.6905 58.3307 78.4863 58.3698 78.2856 58.3698C77.6757 58.3698 77.0967 58.0099 76.8464 57.4122L74.4614 51.7163L67.6787 53.1471L73.5641 77.9241C73.7632 78.7622 73.2453 79.6029 72.4073 79.8019C72.2861 79.8306 72.1649 79.8443 72.0456 79.8443C71.3397 79.8443 70.7 79.3618 70.5297 78.6451L65.1505 55.9999C62.3876 59.1163 59.0479 61.7256 55.3582 63.6311C50.6239 66.0762 45.2862 67.3685 39.9223 67.3685C30.2351 67.3685 21.0526 63.1748 14.6944 55.9985L9.31472 78.6452C9.14443 79.3618 8.50459 79.8445 7.79878 79.8445C7.67948 79.8445 7.55831 79.8309 7.43714 79.802C6.59925 79.6031 6.08135 78.7624 6.28034 77.9243L12.166 53.1469L5.38334 51.7161L2.99831 57.412C2.74802 58.0096 2.16884 58.3697 1.55909 58.3697C1.35823 58.3697 1.15426 58.3307 0.957454 58.2482C0.163068 57.9156 -0.211357 57.0019 0.121275 56.2075L2.68455 50.0866L1.29118 47.9634C0.138429 46.2069 -0.202468 44.0378 0.356284 42.0124L1.65157 37.3163C2.21936 35.2576 3.51823 33.4833 5.30896 32.3201C5.59761 32.1325 5.93835 32.0487 6.27753 32.0748C7.01094 16.6984 18.1915 3.61428 33.4041 0.630731C34.2504 0.464961 35.0688 1.01592 35.2346 1.86083C35.4003 2.70605 34.8495 3.52555 34.0045 3.69132C19.7228 6.49225 9.35714 19.1062 9.35714 33.6845C9.35714 34.1161 9.36806 34.5506 9.38599 34.9811L12.6437 36.7212C12.533 35.7147 12.4761 34.6992 12.4761 33.6845C12.4761 31.9896 12.6315 30.3307 12.927 28.7199C12.9325 28.683 12.94 28.6466 12.9481 28.6103C15.3353 15.8922 26.5217 6.23806 39.9224 6.23806C53.3175 6.23806 64.5001 15.8839 66.8937 28.5941C66.9038 28.6373 66.9124 28.6806 66.9188 28.7248C67.2137 30.334 67.3688 31.9914 67.3688 33.6845C67.3688 34.6987 67.3121 35.7149 67.2014 36.7212L70.4573 34.9819C70.4753 34.5496 70.4877 34.1158 70.4877 33.6845C70.4877 19.1249 60.1378 6.51408 45.878 3.69865C45.0329 3.53178 44.4832 2.71151 44.6501 1.8666C44.8169 1.02169 45.6377 0.471667 46.4821 0.638685C61.6711 3.63751 72.8341 16.7179 73.5672 32.0746C73.9064 32.0486 74.2473 32.1323 74.5359 32.3199C76.3267 33.4831 77.6255 35.2575 78.1933 37.3161L79.4886 42.0123C80.0472 44.0377 79.7065 46.2067 78.5537 47.9633L77.1603 50.0865ZM73.6804 36.564C73.536 36.7934 73.3344 36.981 73.0955 37.1087L67.9733 39.8446C66.8107 40.4657 65.4128 40.4138 64.3065 39.7694L63.9394 39.8643C63.4919 39.9797 63.1794 40.3831 63.1794 40.8452V44.6064C63.1794 46.1691 63.7794 47.6464 64.869 48.7666L66.3106 50.2484L74.4508 48.5311L75.9461 46.2524C76.6067 45.2458 76.802 44.0026 76.4818 42.8419L75.1865 38.1456C74.9657 37.3448 74.5726 36.6109 74.0414 35.9906L73.6804 36.564ZM19.5985 39.6302H28.8601C31.6923 39.6302 33.9965 41.9343 33.9965 44.7666V57.2874C28.0807 55.8165 22.903 52.1609 19.493 46.893C19.684 46.1545 19.7844 45.3878 19.7844 44.6066V40.8452C19.7843 40.4243 19.7175 40.0166 19.5985 39.6302ZM15.7578 36.5113H28.8601C33.412 36.5113 37.1154 40.2145 37.1154 44.7666V57.8498C38.0399 57.9553 38.9762 58.0119 39.9224 58.0119C40.8687 58.0119 41.805 57.9553 42.7295 57.8498V44.7666C42.7295 40.2145 46.4329 36.5113 50.9847 36.5113H64.086C64.1941 35.5755 64.2499 34.6293 64.2499 33.6845C64.2499 32.5085 64.1642 31.3521 64.0021 30.2203L48.1677 26.3999C42.7736 25.0986 37.071 25.0986 31.6768 26.3999L15.8424 30.2204C15.6804 31.3523 15.5948 32.5085 15.5948 33.6845C15.5948 34.6295 15.6497 35.5753 15.7578 36.5113ZM45.8484 44.7664C45.8484 41.9343 48.1525 39.63 50.9847 39.63H60.2463C60.1274 40.0166 60.0606 40.4241 60.0606 40.845V44.6063C60.0606 45.3875 60.161 46.1542 60.3521 46.8927C56.942 52.1607 51.7643 55.8162 45.8484 57.2871V44.7664ZM63.2665 26.8344C60.3009 16.7449 50.9589 9.35697 39.9224 9.35697C28.8859 9.35697 19.544 16.7449 16.5784 26.8344L30.9456 23.3679C36.8179 21.9511 43.0265 21.9511 48.8993 23.3679L63.2665 26.8344ZM3.36291 42.8417L4.65819 38.1454C4.87917 37.3447 5.27215 36.6108 5.8033 35.9904L6.16432 36.5638C6.30872 36.7931 6.51036 36.9808 6.74927 37.1086L11.8714 39.8445C13.034 40.4654 14.4319 40.4137 15.5382 39.7693L15.9054 39.8641C16.353 39.9795 16.6655 40.3829 16.6655 40.845V44.6063C16.6655 46.169 16.0654 47.6463 14.9759 48.7664L13.5343 50.2482L5.3941 48.5309L3.89858 46.2523C3.238 45.2456 3.04276 44.0026 3.36291 42.8417ZM15.7741 52.4188C21.5508 59.851 30.4722 64.2498 39.9224 64.2498C49.333 64.2498 58.3017 59.8407 64.0722 52.4202L62.6337 50.9415C62.3747 50.6753 62.1362 50.3945 61.9142 50.1033C59.6394 53.1432 56.7457 55.7029 53.4387 57.5775C49.3375 59.9022 44.6637 61.131 39.9226 61.131C35.1822 61.131 30.5091 59.9026 26.4084 57.5786C23.1006 55.7039 20.2061 53.1438 17.9309 50.1033C17.7088 50.3943 17.4702 50.6752 17.2113 50.9414L15.7741 52.4188ZM39.9224 28.3304C42.7026 28.3304 44.9646 30.5922 44.9646 33.3726C44.9646 36.1528 42.7026 38.4147 39.9224 38.4147C37.1423 38.4147 34.8803 36.1528 34.8803 33.3726C34.8803 30.5924 37.1423 28.3304 39.9224 28.3304ZM39.9223 31.4493C38.8619 31.4493 37.999 32.312 37.999 33.3726C37.999 34.433 38.8619 35.2958 39.9223 35.2958C40.9827 35.2958 41.8456 34.433 41.8456 33.3726C41.8456 32.3121 40.9827 31.4493 39.9223 31.4493Z" fill="white"/>
</svg>
