<svg width="17" height="24" viewBox="0 0 17 24" fill="none" xmlns="http://www.w3.org/2000/svg">
<path fill-rule="evenodd" clip-rule="evenodd" d="M0 8.34229C0 3.74238 3.74238 0 8.34229 0C12.9423 0 16.6846 3.74238 16.6846 8.34229C16.6846 13.8396 8.35049 24 8.35049 24C8.35049 24 0 14.1239 0 8.34229ZM8.34229 11.8258C9.25386 11.8258 10.1653 11.4788 10.8593 10.7849C12.2473 9.39712 12.2473 7.13892 10.8593 5.75098C10.187 5.07876 9.29312 4.7083 8.34229 4.7083C7.39146 4.7083 6.49746 5.07861 5.82539 5.75098C4.43745 7.13892 4.43745 9.39712 5.82539 10.7849C6.51914 11.4788 7.43086 11.8258 8.34229 11.8258Z" fill="white" fill-opacity="0.6"/>
</svg>
