<?xml version="1.0" encoding="UTF-8"?>
<svg width="22px" height="20px" viewBox="0 0 22 20" version="1.1" xmlns="http://www.w3.org/2000/svg" xmlns:xlink="http://www.w3.org/1999/xlink" id="logo-car-4">
    <!-- Generator: Sketch 60 (88103) - https://sketch.com -->
    <title>Shape</title>
    <desc>Created with Sketch.</desc>
    <g id="Page-1" stroke="none" stroke-width="1" fill="none" fill-rule="evenodd">
        <g id="avtodrom_END" transform="translate(-592.000000, -41.000000)" fill="#FFFFFF">
            <g id="Group" transform="translate(503.000000, 41.000000)">
                <path d="M105.61945,11.6952 C105.399775,11.0176 105.85725,10.3436667 106.29225,10.2278 C107.017975,10.0349333 107.5755,10.4434 107.708175,10.9398667 C108.118525,12.4732667 106.007325,12.8912667 105.61945,11.6952 L105.61945,11.6952 Z M94.591475,11.5837333 C94.1282,13.0203333 92.061225,12.4894 92.4665,10.9538 C92.82465,9.60006667 95.026475,10.2351333 94.591475,11.5837333 Z M94.1253,1.3926 L106.01965,1.43733333 L106.865,6.1358 C102.5759,5.75813333 97.6198,5.5748 93.261825,6.0896 L94.1253,1.3926 Z M91.65885,6.35726667 L91.584175,6.07713333 C91.579825,6.0434 91.575475,6.01186667 91.57185,5.973 C91.556625,5.82633333 91.572575,5.66133333 91.552275,5.53006667 C91.482675,5.093 91.524725,5.1744 91.110025,5.082 C90.756225,5.00353333 89.82895,4.85173333 89.486025,4.90746667 C89.37075,5.34746667 89.375825,6.16953333 89.483125,6.62346667 C89.59115,7.0796 90.070375,7.3502 90.46405,7.51373333 C90.1755,8.40913333 89.88115,7.83346667 89.887675,9.11313333 C89.8913,9.87286667 89.894925,10.6304 89.887675,11.3894 L90.538,11.924 C90.530025,11.924 90.489425,11.9137333 90.476375,11.9496667 C90.463325,11.9848667 90.416925,11.9834 90.3988,11.9914667 C89.285925,12.4820667 89.378,12.2877333 89.378,14.608 C89.378725,20.2876667 88.911825,19.9276 91.8836,19.9474 C93.722925,19.9598667 93.586625,19.3695333 93.576475,17.6418 C94.0267,17.5721333 94.774175,17.6968 95.1403,17.5552667 C95.681875,17.3462667 94.913375,17.3719333 95.74785,17.2648667 L104.29415,17.259 C105.579575,17.3389333 103.646,17.5516 106.609075,17.6044 C106.58225,19.1957333 106.43725,19.9525333 108.156225,19.9488799 C111.3078,19.9408 110.803925,20.1747333 110.803925,14.8324 C110.803925,13.3686667 111.153375,12.1704 109.620725,12.0274 C110.479125,11.0256667 110.27685,11.5881333 110.2783,9.90293333 C110.280475,7.09133333 110.016575,8.72886667 109.6896,7.5086 C110.79015,6.9542 110.9511,6.5362 110.664725,4.90526667 C110.213775,4.87373333 108.7761,4.91626667 108.643425,5.45086667 C108.585425,5.6848 108.643425,5.68406667 108.62675,5.8652 C108.6253,5.8762 108.697075,6.07713333 108.49335,6.39393333 C108.009775,6.22966667 108.1671,6.39393333 107.9873,5.01893333 C107.8568,4.01866667 107.41165,1.01713333 106.917925,0.5148 C106.277025,-0.1364 104.8002,0.0784666667 103.730825,0.0784666667 L96.421375,0.0784666667 C92.7478,0.0777333333 93.0755,-0.166466667 92.4259,3.39386667 L91.952475,6.04633333 C91.827775,6.336 91.9271,6.22673333 91.65885,6.35726667 L91.65885,6.35726667 Z" id="Shape"></path>
            </g>
        </g>
    </g>
</svg>