<?xml version="1.0" encoding="UTF-8"?>
<svg width="17px" height="12px" viewBox="0 0 17 12" version="1.1" xmlns="http://www.w3.org/2000/svg" xmlns:xlink="http://www.w3.org/1999/xlink">
    <!-- Generator: Sketch 60 (88103) - https://sketch.com -->
    <title>Shape</title>
    <desc>Created with Sketch.</desc>
    <g id="Page-1" stroke="none" stroke-width="1" fill="none" fill-rule="evenodd">
        <g id="avtodrom_END" transform="translate(-87.000000, -29.000000)" fill="#FFFFFF">
            <g id="Group" transform="translate(49.000000, 27.000000)">
                <path d="M52.329707,8.49986667 C52.5844514,8.45865641 52.9160382,8.33753846 52.961678,8.68782564 C52.9840321,8.85970256 52.8107873,9.28838974 52.7260278,9.41704615 C52.4382179,9.85377436 51.6376593,9.69647179 51.1239792,9.70149744 C50.8371007,9.70451282 50.4687227,9.78442051 50.4337943,9.45473846 C50.3332005,8.51042051 51.8346554,8.57977436 52.329707,8.49986667 Z M38.3909527,10.1407385 L38.3909527,5.50910769 C38.8212704,5.09700513 39.3614961,5.03418462 40.1145521,4.99548718 C40.2114201,5.22164103 40.1774232,5.21008205 40.3828021,5.3774359 C40.6403407,5.02111795 41.1437752,3.2606359 41.7478034,2.71434872 C42.4030599,2.12082051 44.4922431,2.23490256 45.0212917,2.00824615 L47.6031979,2.00824615 C48.3408854,2.35250256 49.9685482,2.05749744 50.7402326,2.73193846 C51.0909136,3.03850256 51.8346554,4.72158974 52.0265286,5.39603077 L52.2239905,5.18545641 C52.6263655,4.75073846 53.732431,5.16937436 54.0286237,5.46236923 C54.0495807,6.23078974 53.5386949,6.08906667 53.2457622,6.48961026 C54.052375,6.93789744 54.0896319,8.54308718 54.0463207,9.76281026 C54.0225694,10.4382564 53.9154557,13.2169333 53.7855221,13.5491282 C53.3100304,13.6938667 52.6007513,13.6345641 52.0507457,13.6365744 C51.1915074,13.6395897 51.0103455,13.809959 50.8957804,12.9329846 C47.903582,12.7279385 44.5895768,12.7103487 41.5922556,12.9123795 C41.4264622,13.2511077 41.6728238,13.2566359 41.3272656,13.5546564 C40.9980074,13.7210051 39.185457,13.6903487 38.7528108,13.5797846 C38.2680048,13.0043487 38.7099653,11.0111795 38.3909527,10.1407385 L38.3909527,10.1407385 Z M40.5127357,8.54911795 C41.0827669,8.62902564 41.5731615,8.58530256 41.8693542,9.00645128 C42.4831623,9.87990769 41.4180794,9.69898462 40.8098598,9.69898462 C39.9524844,9.69898462 39.8453707,9.82412308 39.5626836,9.02705641 C39.2674223,8.19380513 39.9580729,8.47122051 40.5127357,8.54911795 L40.5127357,8.54911795 Z M41.1842921,5.59956923 C41.2699831,5.20254359 41.57223,4.55272821 41.7561862,4.18032821 C42.0276962,3.63152821 42.1129214,3.28325128 42.7402352,3.16916923 C44.9644748,2.76410256 47.5235612,2.70278974 49.7543207,3.17620513 C50.3462405,3.30234872 50.461737,3.68379487 50.7122899,4.22254359 C50.9181345,4.6648 51.1984931,5.14575385 51.2706784,5.61414359 C47.9468932,5.22314872 44.4996944,5.47493333 41.1842921,5.59956923 L41.1842921,5.59956923 Z" id="Shape"></path>
            </g>
        </g>
    </g>
</svg>