<?xml version="1.0" encoding="UTF-8"?>
<svg width="25px" height="15px" viewBox="0 0 25 15" version="1.1" xmlns="http://www.w3.org/2000/svg" xmlns:xlink="http://www.w3.org/1999/xlink">
    <!-- Generator: Sketch 60 (88103) - https://sketch.com -->
    <title>Shape</title>
    <desc>Created with Sketch.</desc>
    <g id="Page-1" stroke="none" stroke-width="1" fill="none" fill-rule="evenodd">
        <g id="avtodrom_END" transform="translate(-533.000000, -46.000000)" fill="#FFFFFF">
            <g id="Group" transform="translate(503.000000, 41.000000)">
                <path d="M45.6721,17.0038 C44.9065,17.6696667 42.581425,17.3792667 41.40765,17.3829333 C40.59855,17.3851333 39.9707,17.4166667 39.51685,16.9568667 C39.19495,16.6305333 38.611325,15.6933333 39.301525,15.4542667 C39.6401,15.3369333 45.8925,15.3501333 46.0955,15.4652667 C46.68565,15.7974667 45.942525,16.7676667 45.6721,17.0038 L45.6721,17.0038 Z M50.489,13.1156667 C51.590275,12.5488 52.07385,14.0506667 51.26475,14.4855333 C50.341825,14.9827333 49.580575,13.5835333 50.489,13.1156667 Z M34.01555,13.1406 C35.00155,12.5363333 35.612,13.9876 34.851475,14.4598667 C34.47375,14.6945333 33.9764,14.5515333 33.7676,14.2523333 C33.418875,13.7522 33.63565,13.3730667 34.01555,13.1406 L34.01555,13.1406 Z M35.19875,10.0004667 C35.33795,9.48346667 35.86575,8.61226667 36.111525,8.1158 C36.430525,7.47193333 36.587125,6.8464 37.419425,6.7342 C38.698325,6.56186667 41.3163,6.71806667 42.7373,6.71806667 C49.8684,6.71806667 47.8761,5.96053333 50.12795,9.9902 C48.058075,11.352 45.411825,10.9904667 42.626375,10.9904667 C40.001875,10.9904667 37.19105,11.3468667 35.19875,10.0004667 L35.19875,10.0004667 Z M33.988,9.44606667 C33.3471,9.23193333 33.228925,9.0882 32.441575,9.06546667 C31.9464,9.0508 31.10685,8.97233333 30.8734,9.3214 C30.12955,10.4346 32.11895,11.3468667 32.2422,11.4568667 C31.993525,12.5099333 31.606375,12.9880667 31.581725,14.3682 C31.561425,15.5180667 31.58245,16.6899333 31.58245,17.842 C31.581725,19.4267333 31.213425,19.9496 32.87585,19.9349333 C35.590975,19.9107333 34.841325,20.1446667 35.648975,19.3328667 C37.587625,19.6386667 40.605075,19.6262 42.626375,19.5264667 C45.00075,19.4098667 47.1917,19.7090667 49.603775,19.3387333 C49.6277,19.3585333 49.653075,19.3900667 49.667575,19.4062 C49.682075,19.4216 49.712525,19.4538667 49.729925,19.4736667 C49.967,19.7398667 49.95685,19.8447333 50.299775,19.9166 C50.540475,19.9664667 51.203125,19.9334667 51.4866,19.9327333 C54.2938,19.9246667 53.70075,20.3778667 53.708725,15.2658 C53.711625,13.5380667 53.5775,12.8927333 53.028675,11.4568667 C53.682625,10.9318 54.846975,10.7594667 54.401825,9.18646667 C53.046075,8.82566667 52.395025,9.185 51.265475,9.42846667 C50.37155,8.51326667 49.9728,6.501 48.558325,6.01406667 C47.937,5.79993333 37.406375,5.77133333 36.70675,6.02506667 C35.177,6.57946667 35.04795,8.48613333 33.988,9.44606667 L33.988,9.44606667 Z" id="Shape"></path>
            </g>
        </g>
    </g>
</svg>