<?xml version="1.0" encoding="UTF-8"?>
<svg width="17px" height="11px" viewBox="0 0 17 11" version="1.1" xmlns="http://www.w3.org/2000/svg" xmlns:xlink="http://www.w3.org/1999/xlink">
    <!-- Generator: Sketch 60 (88103) - https://sketch.com -->
    <title>Shape</title>
    <desc>Created with Sketch.</desc>
    <g id="Page-1" stroke="none" stroke-width="1" fill="none" fill-rule="evenodd">
        <g id="avtodrom_END" transform="translate(-123.000000, -30.000000)" fill="#FFFFFF">
            <g id="Group" transform="translate(49.000000, 27.000000)">
                <path d="M86.4426311,10.7679385 C86.1138385,9.63214359 86.7686293,9.61555897 87.18451,9.48288205 C87.5808307,9.35724103 88.461026,9.02404103 88.8312669,9.18938462 C88.9900747,9.91558974 88.4349462,10.1241538 87.9566602,10.3221641 C87.5696536,10.4829846 86.9134657,10.8393026 86.4426311,10.7679385 L86.4426311,10.7679385 Z M79.088576,10.7342667 C78.7201979,10.8800103 77.9098594,10.4422769 77.551727,10.3040718 C77.0948637,10.1281744 76.527161,9.84724103 76.7399913,9.19893333 C76.9560816,9.08585641 76.8727192,9.10746667 77.1712405,9.16777436 L78.3690512,9.4989641 C79.0052135,9.66832821 79.3652088,9.83417436 79.088576,10.7342667 L79.088576,10.7342667 Z M77.5289071,6.62530256 C77.7855143,5.52418462 77.9894961,4.17530256 79.0531819,4.01649231 C80.4503173,3.80792821 85.2271233,3.77475897 86.5739618,4.02955897 C87.1202418,4.13258462 87.397806,4.46377436 87.5738451,5.01458462 C87.7396385,5.53373333 87.8998433,6.07750769 88.0255855,6.63083077 L87.2389983,6.53132308 C87.0024167,4.77084103 86.4812852,4.85527179 84.8797023,4.84723077 C84.2053516,4.84371282 83.7331198,4.95729231 83.4313385,5.43824615 C82.9996237,6.12575385 83.6627973,6.41573333 82.3648585,6.26295385 C81.9974119,4.75777436 81.6825907,4.85125128 80.1843958,4.84773333 C78.8310373,4.84471795 78.5325161,5.0834359 78.3154944,6.52981538 L77.5289071,6.62530256 L77.5289071,6.62530256 Z M76.7693312,6.29964103 C76.2286398,6.34436923 75.1304913,5.97699487 74.7630447,6.37804103 C74.5851428,6.57203077 74.5157517,6.93035897 74.6503424,7.21581538 C74.7728247,7.47513846 75.0219805,7.52589744 75.3195703,7.71837949 C74.8394214,9.40498462 75.2729991,9.98795897 75.2827791,11.6851179 C75.2855734,12.2344205 75.0829887,13.4496205 75.5701233,13.610441 C75.8821502,13.7129641 77.4115477,13.6772821 77.6509236,13.5647077 C77.9238307,13.2651795 77.8036771,13.1304923 77.847454,12.7038154 C81.2643815,13.2877949 84.3241081,13.0867692 87.7326528,12.7098462 C87.7293928,13.4863077 87.7396385,13.6506462 88.5066658,13.6446154 C90.9628299,13.6245128 90.0439805,13.9702769 90.3490217,10.5417846 C90.4659154,9.22958974 90.5707005,8.95468718 90.2344566,7.70682051 C90.5320464,7.54047179 90.7835308,7.45855385 90.9069444,7.2057641 C91.0657522,6.88060513 90.9637613,6.52579487 90.7551224,6.3433641 C90.3704444,6.00765128 89.3454128,6.32527179 88.7930786,6.30818462 C88.3404067,5.4362359 88.5220343,3.92050256 87.0997504,3.30486154 C86.1613411,2.89828718 79.447174,2.92542564 78.518079,3.28425641 C77.9913589,3.48779487 77.5335642,3.92502564 77.3281853,4.45523077 C77.1200122,4.99297436 77.0035842,5.78953846 76.7693312,6.29964103 L76.7693312,6.29964103 Z" id="Shape"></path>
            </g>
        </g>
    </g>
</svg>