<?xml version="1.0" encoding="UTF-8"?>
<svg width="15px" height="14px" viewBox="0 0 15 14" version="1.1" xmlns="http://www.w3.org/2000/svg" xmlns:xlink="http://www.w3.org/1999/xlink">
    <!-- Generator: Sketch 60 (88103) - https://sketch.com -->
    <title>Shape</title>
    <desc>Created with Sketch.</desc>
    <g id="Page-1" stroke="none" stroke-width="1" fill="none" fill-rule="evenodd">
        <g id="avtodrom_END" transform="translate(-106.000000, -27.000000)" fill="#FFFFFF">
            <g id="Group" transform="translate(49.000000, 27.000000)">
                <path d="M67.8677157,8.01489231 C67.726605,7.55052308 68.0204692,7.08866667 68.2998963,7.00926154 C68.7660738,6.87708718 69.1242062,7.15701538 69.2094314,7.49725128 C69.4730243,8.54811282 68.1168715,8.83457436 67.8677157,8.01489231 L67.8677157,8.01489231 Z M60.7837734,7.93850256 C60.4861836,8.92302564 59.1584392,8.55916923 59.4187721,7.5068 C59.6488338,6.57906667 61.0632005,7.01428718 60.7837734,7.93850256 Z M60.4843207,0.954369231 L68.1247886,0.985025641 L68.6678086,4.20495385 C65.9126576,3.94613333 62.7290516,3.82049231 59.929658,4.17329231 L60.4843207,0.954369231 Z M58.8999692,4.35672821 L58.8520009,4.16474872 C58.8492066,4.14163077 58.8464123,4.12002051 58.8440838,4.09338462 C58.8343038,3.99287179 58.8445495,3.87979487 58.8315095,3.7898359 C58.7868012,3.49030769 58.8138125,3.54609231 58.5474253,3.48276923 C58.320158,3.42899487 57.7245126,3.3249641 57.5042309,3.36315897 C57.4301827,3.66469744 57.4334427,4.22807179 57.5023681,4.53915897 C57.5717591,4.85175385 57.8795946,5.0372 58.1324761,5.14927179 C57.9471228,5.76290256 57.7580438,5.36838974 57.7622352,6.2453641 C57.7645638,6.76602051 57.7668924,7.28516923 57.7622352,7.80532308 L58.1799787,8.17169231 C58.1748559,8.17169231 58.148776,8.16465641 58.1403932,8.18928205 C58.1320104,8.21340513 58.1022049,8.2124 58.0905621,8.21792821 C57.3756944,8.55414359 57.4348398,8.4209641 57.4348398,10.0110769 C57.4353056,13.9034359 57.1353872,13.6566769 59.0443398,13.6702462 C60.2258507,13.6787897 60.1382969,13.2742256 60.1317769,12.0901846 C60.4209839,12.042441 60.9011328,12.1278769 61.1363173,12.0308821 C61.484204,11.8876513 60.9905495,11.905241 61.5265838,11.8318667 L67.0163945,11.8278462 C67.8421016,11.8826256 66.6000482,12.0283692 68.5034123,12.0645538 C68.486181,13.1551179 68.3930386,13.6737641 69.4972413,13.6712604 C71.5216905,13.6657231 71.1980208,13.826041 71.1980208,10.1648615 C71.1980208,9.16174359 71.4224939,8.34055385 70.4379792,8.24255385 C70.9893819,7.55605128 70.8594484,7.94151795 70.8603798,6.78662564 C70.8617769,4.85979487 70.6922578,5.98202051 70.4822218,5.14575385 C71.1891723,4.76581538 71.2925603,4.47935385 71.1086042,3.36165128 C70.8189314,3.34004103 69.8954249,3.36918974 69.8101997,3.73555897 C69.7729427,3.89587692 69.8101997,3.89537436 69.7994883,4.01950769 C69.7985569,4.02704615 69.8446623,4.16474872 69.7137973,4.38185641 C69.4031675,4.26928205 69.504227,4.38185641 69.3887305,3.43954872 C69.3049023,2.75405128 69.0189553,0.69705641 68.7018056,0.3528 C68.2901163,-0.0934769231 67.3414614,0.053774359 66.6545365,0.053774359 L61.95923,0.053774359 C59.5994683,0.0532717949 59.8099701,-0.114082051 59.3926923,2.32586667 L59.0885825,4.14364103 C59.00848,4.34215385 59.0722826,4.26727179 58.8999692,4.35672821 L58.8999692,4.35672821 Z" id="Shape"></path>
            </g>
        </g>
    </g>
</svg>