<?xml version="1.0" encoding="UTF-8"?>
<svg width="24px" height="18px" viewBox="0 0 24 18" version="1.1" xmlns="http://www.w3.org/2000/svg" xmlns:xlink="http://www.w3.org/1999/xlink">
    <!-- Generator: Sketch 60 (88103) - https://sketch.com -->
    <title>Shape</title>
    <desc>Created with Sketch.</desc>
    <g id="Page-1" stroke="none" stroke-width="1" fill="none" fill-rule="evenodd">
        <g id="avtodrom_END" transform="translate(-710.000000, -43.000000)" fill="#FFFFFF">
            <g id="Group" transform="translate(503.000000, 41.000000)">
                <path d="M227.272275,12.122 L227.321575,14.0961333 L224.557875,14.1254667 C224.594125,13.8482667 225.052325,12.6016 225.155275,12.4043333 C225.439475,11.8609333 226.67995,12.0420667 227.272275,12.122 L227.272275,12.122 Z M209.859225,12.1183333 L211.847175,12.0904667 C212.041475,12.4586 212.55405,13.6488 212.62655,14.0829333 L209.89185,14.1328 L209.859225,12.1183333 L209.859225,12.1183333 Z M210.785775,7.4976 C210.713275,6.91313333 211.874,4.13746667 212.222,3.9182 C213.3646,3.19953333 221.944975,3.4584 224.05255,3.71066667 C225.120475,3.83826667 225.12555,3.92113333 225.4953,4.8202 C227.1019,8.72446667 227.227325,7.94346667 220.4145,7.94493333 L212.8832,7.9508 C212.309725,7.95446667 210.875675,8.22286667 210.785775,7.4976 L210.785775,7.4976 Z M228.765775,10.2241333 C230.05845,9.94473333 230.085275,10.3451333 230.2194,8.66873333 C230.28755,7.8122 229.672025,8.05786667 228.033525,8.05786667 C227.791375,7.08766667 226.123875,3.2758 225.540975,2.9854 C224.2686,2.35253333 212.737475,2.3276 211.55935,3.02573333 C210.93295,3.3968 209.653325,7.04806667 209.11755,8.02193333 C208.429525,8.10773333 207.559525,7.9552 207.021575,8.173 C206.944725,8.61813333 206.989675,8.79266667 207.062175,9.2378 C207.215875,10.1867333 207.22095,10.0701333 208.430975,10.1992 C207.845175,12.6580667 207.965525,15.0318667 208.161275,17.6520667 C208.312075,19.6614 207.7618,19.9371333 209.89185,19.8814 C211.6101,19.8359333 212.5381,20.4702667 212.511275,18.5804667 L224.68765,18.6274 C224.6862,20.1182667 224.89935,19.9004667 226.283375,19.8946 C227.1164,19.8909333 228.193025,20.0134 228.8448,19.7354667 C229.060125,19.0116667 229.15075,15.8928 229.17685,14.8910667 C229.21745,13.3041333 229.1667,11.6343333 228.765775,10.2241333 L228.765775,10.2241333 Z" id="Shape"></path>
            </g>
        </g>
    </g>
</svg>