<?xml version="1.0" encoding="UTF-8"?>
<svg width="26px" height="18px" viewBox="0 0 26 18" version="1.1" xmlns="http://www.w3.org/2000/svg" xmlns:xlink="http://www.w3.org/1999/xlink" id="logo-car-3">
    <!-- Generator: Sketch 60 (88103) - https://sketch.com -->
    <title>Shape</title>
    <desc>Created with Sketch.</desc>
    <g id="Page-1" stroke="none" stroke-width="1" fill="none" fill-rule="evenodd">
        <g id="avtodrom_END" transform="translate(-562.000000, -43.000000)" fill="#FFFFFF">
            <g id="Group" transform="translate(503.000000, 41.000000)">
                <path d="M81.43055,12.4028667 C81.827125,12.3427333 82.343325,12.166 82.414375,12.6771333 C82.449175,12.9279333 82.179475,13.5534667 82.047525,13.7412 C81.599475,14.3784667 80.3532,14.1489333 79.553525,14.1562667 C79.106925,14.1606667 78.53345,14.2772667 78.479075,13.7962 C78.322475,12.4182667 80.659875,12.5194667 81.43055,12.4028667 L81.43055,12.4028667 Z M59.7313,14.7972 L59.7313,8.0388 C60.4012,7.43746667 61.2422,7.3458 62.414525,7.28933333 C62.565325,7.61933333 62.5124,7.60246667 62.832125,7.84666667 C63.23305,7.32673333 64.016775,4.75786667 64.9571,3.96073333 C65.977175,3.09466667 69.229525,3.26113333 70.053125,2.9304 L74.072525,2.9304 C75.220925,3.43273333 77.7548,3.00226667 78.956125,3.9864 C79.50205,4.43373333 80.659875,6.88966667 80.958575,7.8738 L81.265975,7.56653333 C81.892375,6.9322 83.61425,7.54306667 84.07535,7.9706 C84.107975,9.09186667 83.31265,8.88506667 82.856625,9.46953333 C84.112325,10.1236667 84.170325,12.4659333 84.1029,14.2457333 C84.065925,15.2313333 83.899175,19.2859333 83.6969,19.7706667 C82.956675,19.9818667 81.8525,19.8953333 80.996275,19.8982667 C79.65865,19.9026667 79.376625,20.1512667 79.198275,18.8716 C74.54015,18.5724 69.38105,18.5467333 64.71495,18.8415333 C64.45685,19.3358 64.840375,19.3438667 64.302425,19.7787333 C63.78985,20.0214667 60.96815,19.9767333 60.294625,19.8154 C59.5399,18.9757333 60.227925,16.0673333 59.7313,14.7972 L59.7313,14.7972 Z M63.0344,12.4747333 C63.9218,12.5913333 64.685225,12.5275333 65.146325,13.1420667 C66.101875,14.4166 64.4438,14.1526 63.49695,14.1526 C62.162225,14.1526 61.995475,14.3352 61.5554,13.1721333 C61.09575,11.9562667 62.170925,12.3610667 63.0344,12.4747333 L63.0344,12.4747333 Z M64.07985,8.1708 C64.21325,7.59146667 64.683775,6.64326667 64.97015,6.09986667 C65.392825,5.29906667 65.5255,4.79086667 66.502075,4.6244 C69.964675,4.03333333 73.94855,3.94386667 77.4213,4.63466667 C78.342775,4.81873333 78.522575,5.37533333 78.912625,6.16146667 C79.233075,6.8068 79.669525,7.5086 79.7819,8.19206667 C74.607575,7.62153333 69.241125,7.98893333 64.07985,8.1708 L64.07985,8.1708 Z" id="Shape"></path>
            </g>
        </g>
    </g>
</svg>