<?xml version="1.0" encoding="UTF-8"?>
<svg width="15px" height="13px" viewBox="0 0 15 13" version="1.1" xmlns="http://www.w3.org/2000/svg" xmlns:xlink="http://www.w3.org/1999/xlink">
    <!-- Generator: Sketch 60 (88103) - https://sketch.com -->
    <title>Shape</title>
    <desc>Created with Sketch.</desc>
    <g id="Page-1" stroke="none" stroke-width="1" fill="none" fill-rule="evenodd">
        <g id="avtodrom_END" transform="translate(-182.000000, -28.000000)" fill="#FFFFFF">
            <g id="Group" transform="translate(49.000000, 27.000000)">
                <path d="M146.01276,8.30738462 L146.044428,9.66028718 L144.269135,9.68038974 C144.29242,9.49042051 144.58675,8.63606154 144.652881,8.50087179 C144.83544,8.12847179 145.632273,8.25260513 146.01276,8.30738462 L146.01276,8.30738462 Z M134.827293,8.30487179 L136.104275,8.28577436 C136.229086,8.53806154 136.558344,9.35372308 136.604915,9.65124103 L134.84825,9.68541538 L134.827293,8.30487179 Z M135.422473,5.13821538 C135.375902,4.73767179 136.121507,2.83546667 136.345048,2.6852 C137.07901,2.19268718 142.590709,2.37009231 143.944533,2.54297436 C144.630527,2.63042051 144.633787,2.68721026 144.8713,3.30335385 C145.903317,5.97900513 145.983885,5.44377436 141.607592,5.44477949 L136.769777,5.4488 C136.401399,5.45131282 135.480221,5.63525128 135.422473,5.13821538 L135.422473,5.13821538 Z M146.972126,7.00674872 C147.80249,6.81527179 147.819721,7.08967179 147.905878,5.94081026 C147.949655,5.35381538 147.554266,5.52217436 146.501757,5.52217436 C146.346209,4.85728205 145.275072,2.24495385 144.90064,2.04593846 C144.083316,1.61222564 136.676169,1.59513846 135.919388,2.07357949 C135.517013,2.32787692 134.695031,4.83014359 134.35087,5.49754872 C133.90891,5.55634872 133.350056,5.45181538 133.004497,5.60107692 C132.955132,5.90613333 132.984006,6.02574359 133.030577,6.3308 C133.129308,6.98111795 133.132568,6.90121026 133.909841,6.98966154 C133.533546,8.67475897 133.610854,10.301559 133.736596,12.0972205 C133.833464,13.4742462 133.479989,13.6632103 134.84825,13.6250154 C135.951987,13.5938564 136.548099,14.0285744 136.530867,12.7334667 L144.352497,12.7656308 C144.351566,13.7873436 144.488485,13.6380821 145.377529,13.6340615 C145.912632,13.6315487 146.604214,13.7154769 147.022888,13.5250051 C147.161205,13.0289744 147.219419,10.8915692 147.236184,10.2050667 C147.262264,9.11751795 147.229664,7.97317949 146.972126,7.00674872 L146.972126,7.00674872 Z" id="Shape"></path>
            </g>
        </g>
    </g>
</svg>