<?xml version="1.0" encoding="UTF-8"?>
<svg width="25px" height="17px" viewBox="0 0 25 17" version="1.1" xmlns="http://www.w3.org/2000/svg" xmlns:xlink="http://www.w3.org/1999/xlink">
    <!-- Generator: Sketch 60 (88103) - https://sketch.com -->
    <title>Shape</title>
    <desc>Created with Sketch.</desc>
    <g id="Page-1" stroke="none" stroke-width="1" fill="none" fill-rule="evenodd">
        <g id="avtodrom_END" transform="translate(-649.000000, -44.000000)" fill="#FFFFFF">
            <g id="Group" transform="translate(503.000000, 41.000000)">
                <path d="M162.3072,14.6974667 C162.702325,15.8708 161.9621,15.7842667 160.9645,15.7769333 L155.801775,15.7556667 C155.0978,15.6097333 154.969475,14.5478667 156.200525,14.5478667 C157.2815,14.5478667 161.55465,14.4107333 162.3072,14.6974667 Z M166.454925,12.419 C167.7505,11.7898 168.54365,13.8402 167.337975,14.3425333 C165.87855,14.9504667 165.26955,12.9954 166.454925,12.419 Z M150.429525,12.4366 C151.8208,11.8301333 152.417475,13.8768667 151.2756,14.3352 C149.919125,14.8786 149.1934,12.9756 150.429525,12.4366 Z M151.815725,4.84366667 L165.950325,4.873 L167.130625,8.85426667 L150.544075,8.8264 L151.815725,4.84366667 Z M149.7183,7.4514 C148.93385,7.40666667 147.6245,7.10086667 146.988675,7.2798 C146.682,7.8232 146.869775,8.82713333 147.28955,9.1586 C147.68105,9.4688 148.345875,9.69833333 148.7613,10.0019333 C148.163175,11.4627333 147.773125,10.5182 147.783275,12.6903333 C147.789075,13.9223333 147.784,15.1558 147.784,16.3878 C147.784,17.1130667 147.577375,19.5081333 148.074725,19.7970667 C148.515525,20.0537333 151.157425,19.9371333 151.5917,19.7912 C151.833125,19.1737333 151.72655,18.8532667 151.77005,18.0854667 L165.983675,18.1148 C165.98295,20.1241333 165.62045,19.9129333 168.827125,19.9114667 C170.258275,19.9114667 169.8791,19.7186 169.924775,15.0436 C169.932025,14.3132 169.99365,11.7128 169.81095,11.3564 C169.592,10.9274 169.109875,10.4368 168.963425,10.0019333 C169.341875,9.72766667 170.188675,9.3984 170.49825,9.11533333 C170.899175,8.7494 171.009375,7.75646667 170.726625,7.27393333 L168.055,7.44846667 C166.050375,3.0426 169.309975,3.6058 158.8591,3.6058 C156.71745,3.6058 154.573625,3.597 152.4327,3.60213333 C151.20745,3.60506667 150.822475,3.87493333 150.488975,4.89646667 C150.2316,5.68626667 149.872,6.68506667 149.7183,7.4514 L149.7183,7.4514 Z" id="Shape"></path>
            </g>
        </g>
    </g>
</svg>