<?xml version="1.0" encoding="UTF-8"?>
<svg width="26px" height="16px" viewBox="0 0 26 16" version="1.1" xmlns="http://www.w3.org/2000/svg" xmlns:xlink="http://www.w3.org/1999/xlink" id="logo-car-5">
    <!-- Generator: Sketch 60 (88103) - https://sketch.com -->
    <title>Shape</title>
    <desc>Created with Sketch.</desc>
    <g id="Page-1" stroke="none" stroke-width="1" fill="none" fill-rule="evenodd">
        <g id="avtodrom_END" transform="translate(-619.000000, -45.000000)" fill="#FFFFFF">
            <g id="Group" transform="translate(503.000000, 41.000000)">
                <path d="M134.536075,15.7124 C134.024225,14.0550667 135.043575,14.0308667 135.691,13.8372667 C136.307975,13.6539333 137.678225,13.1677333 138.2546,13.409 C138.501825,14.4686667 137.637625,14.773 136.89305,15.0619333 C136.290575,15.2966 135.26905,15.8165333 134.536075,15.7124 L134.536075,15.7124 Z M123.0876,15.6632667 C122.514125,15.8759333 121.252625,15.2372 120.6951,15.0355333 C119.983875,14.7788667 119.1001,14.3689333 119.431425,13.4229333 C119.767825,13.2579333 119.63805,13.2894667 120.102775,13.3774667 L121.967475,13.8607333 C122.957825,14.1078667 123.51825,14.3498667 123.0876,15.6632667 L123.0876,15.6632667 Z M120.659575,9.66753333 C121.05905,8.0608 121.3766,6.09253333 123.0325,5.8608 C125.2075,5.55646667 132.643825,5.50806667 134.740525,5.87986667 C135.59095,6.0302 136.02305,6.51346667 136.2971,7.3172 C136.5552,8.07473333 136.8046,8.8682 137.00035,9.6756 L135.775825,9.5304 C135.407525,6.96153333 134.59625,7.08473333 132.102975,7.073 C131.053175,7.06786667 130.318025,7.2336 129.848225,7.9354 C129.17615,8.9386 130.20855,9.36173333 128.187975,9.1388 C127.61595,6.94246667 127.12585,7.07886667 124.793525,7.07373333 C122.686675,7.06933333 122.22195,7.41766667 121.8841,9.5282 L120.659575,9.66753333 L120.659575,9.66753333 Z M119.4771,9.19233333 C118.635375,9.2576 116.925825,8.72153333 116.3538,9.30673333 C116.07685,9.5898 115.968825,10.1126667 116.17835,10.5292 C116.369025,10.9076 116.7569,10.9816667 117.220175,11.2625333 C116.4727,13.7236 117.147675,14.5742667 117.1629,17.0507333 C117.16725,17.8522667 116.851875,19.6254667 117.610225,19.8601333 C118.095975,20.0097333 120.476875,19.9576667 120.849525,19.7934 C121.274375,19.3563333 121.087325,19.1598 121.155475,18.5372 C126.4748,19.3893333 131.23805,19.096 136.544325,18.546 C136.53925,19.679 136.5552,19.9188 137.749275,19.91 C141.572925,19.8806667 140.1425,20.3852 140.617375,15.3824 C140.79935,13.4676667 140.962475,13.0665333 140.439025,11.2456667 C140.9023,11.0029333 141.2938,10.8834 141.485925,10.5145333 C141.73315,10.0400667 141.574375,9.52233333 141.249575,9.25613333 C140.650725,8.76626667 139.055,9.22973333 138.19515,9.2048 C137.49045,7.93246667 137.7732,5.72073333 135.55905,4.8224 C134.098175,4.22913333 123.64585,4.26873333 122.199475,4.79233333 C121.3795,5.08933333 120.666825,5.72733333 120.3471,6.501 C120.023025,7.28566667 119.841775,8.448 119.4771,9.19233333 L119.4771,9.19233333 Z" id="Shape"></path>
            </g>
        </g>
    </g>
</svg>