<?xml version="1.0" encoding="UTF-8"?>
<svg width="26px" height="18px" viewBox="0 0 26 18" version="1.1" xmlns="http://www.w3.org/2000/svg" xmlns:xlink="http://www.w3.org/1999/xlink" id="logo-car-1">
    <!-- Generator: Sketch 60 (88103) - https://sketch.com -->
    <title>Shape</title>
    <desc>Created with Sketch.</desc>
    <g id="Page-1" stroke="none" stroke-width="1" fill="none" fill-rule="evenodd">
        <g id="avtodrom_END" transform="translate(-503.000000, -43.000000)" fill="#FFFFFF">
            <g id="Group" transform="translate(503.000000, 41.000000)">
                <path d="M18.82245,11.5456 C18.876825,10.8958667 19.010225,11.0792 19.710575,11.0792 C22.123375,11.0792 22.1879,10.8650667 22.116125,11.8866 C22.075525,12.4688667 21.929075,12.4036 21.372275,12.4028667 L19.378525,12.4043333 C18.801425,12.4050667 18.766625,12.21 18.82245,11.5456 Z M3.466225,11.1408 C4.0223,11.022 6.057375,11.0183333 6.6062,11.1415333 C6.68595,11.4686 6.7338,11.7538667 6.641,12.0919333 C6.560525,12.3882 6.6642,12.166 6.505425,12.3544667 C5.96965,12.5224 4.946675,12.3955333 4.308675,12.4072667 C3.271925,12.4256 3.274825,12.3412667 3.466225,11.1408 L3.466225,11.1408 Z M4.75745,9.01706667 C4.893025,7.82833333 5.423,6.18346667 5.83625,5.0226 C6.035625,4.4616 5.96965,4.31786667 6.567775,4.2196 C8.3607,3.92406667 10.875725,3.8984 12.733175,3.89690076 C14.389075,3.8962 17.457275,3.905 18.9921,4.22693333 C19.54455,4.3428 19.53875,4.60533333 19.73015,5.1436 C20.148475,6.31986667 20.59435,7.76013333 20.7582,9.02146667 C20.036825,8.93933333 19.346625,8.8704 18.617275,8.82053333 C17.384775,8.73473333 18.233025,8.3578 17.1129,8.1312 C15.8717,7.88113333 14.54205,7.67066667 13.287075,7.47486667 C13.1109,7.21013333 13.0297,6.666 12.509875,7.04513333 C12.0872,7.35313333 12.6208,7.42206667 11.68265,7.57826667 C5.684,8.5778 8.70435,8.3622 7.32105,8.77653333 C6.994075,8.87406667 5.251175,8.96866667 4.75745,9.01706667 L4.75745,9.01706667 Z M23.14635,9.45926667 C25.02845,9.26273333 25.620775,9.7416 25.44895,7.40373333 C25.39095,6.61613333 24.971175,6.82586667 23.2551,6.8266 C21.888475,6.8266 22.3387,7.89726667 21.81525,8.52133333 C21.2918,7.08033333 20.98875,3.98786667 19.8563,3.3374 C18.63685,2.63706667 7.105725,2.62753333 5.700675,3.31833333 C4.993075,3.66593333 4.727725,4.83853333 4.436275,5.73466667 C4.285475,6.1996 4.1673,6.62933333 4.03535,7.128 L3.722875,8.3732 C3.71635,8.3908 3.692425,8.46486667 3.688075,8.44946667 C3.683,8.43406667 3.666325,8.50006667 3.6511,8.52353333 C3.3002,7.76306667 3.4307,6.98206667 2.6477,6.84786667 C2.08365,6.7518 0.61045,6.65426667 0.25375,6.9872 C-0.07685,7.32673333 0.023925,8.41353333 0.132675,8.94813333 C0.9164,9.50326667 1.21655,9.38886667 2.34755,9.44313333 C1.698675,9.8692 1.753775,9.4644 1.54135,10.3092 C1.3804,10.9479333 1.099825,10.769 0.94685,11.3835333 C0.821425,11.8851333 0.911325,14.0147333 0.911325,14.6879333 C0.911325,15.9118667 1.11505,16.5748 1.111425,17.8244 C1.1078,19.2192 0.831575,19.9151333 2.322175,19.9144 C6.0987,19.9452 4.971325,19.9364 5.423725,18.6978 C6.59025,18.7506 7.598,19.0322 8.855875,19.0468667 C10.105775,19.0615333 11.37235,19.0578667 12.62225,19.0578667 C16.704725,19.0578667 16.16315,19.1260667 20.1637,18.6684667 C20.152825,20.273 20.7814,19.9144 22.258225,19.9144 C24.565175,19.9144 24.392625,20.3331333 24.392625,17.0397333 C24.392625,16.2514 24.550675,16.3401333 24.599975,15.7021333 C24.66305,14.8866667 24.69205,11.5206667 24.4586,11.1173333 C24.36145,10.9494 24.157725,10.7902667 24.095375,10.7008 C23.80465,10.2835333 24.044625,10.5761333 23.9279,10.1024 C23.801025,9.59053333 23.6756,9.74233333 23.14635,9.45926667 L23.14635,9.45926667 Z" id="Shape"></path>
            </g>
        </g>
    </g>
</svg>