<svg width="60" height="72" viewBox="0 0 60 72" fill="none" xmlns="http://www.w3.org/2000/svg">
<path d="M34.4 55.3V71H50.9V55.3H59.4V43.1H50.9V0.999995H34.3L1.3 42.7V55.3H34.4ZM13.8 43.1L34.4 16.7V43.1H13.8Z" fill="white"/>
<path d="M34.4 55.3H34.9V54.8H34.4V55.3ZM34.4 71H33.9V71.5H34.4V71ZM50.9 71V71.5H51.4V71H50.9ZM50.9 55.3V54.8H50.4V55.3H50.9ZM59.4 55.3V55.8H59.9V55.3H59.4ZM59.4 43.1H59.9V42.6H59.4V43.1ZM50.9 43.1H50.4V43.6H50.9V43.1ZM50.9 0.999995H51.4V0.499995H50.9V0.999995ZM34.3 0.999995V0.499995H34.0581L33.9079 0.689716L34.3 0.999995ZM1.3 42.7L0.90792 42.3897L0.8 42.5261V42.7H1.3ZM1.3 55.3H0.8V55.8H1.3V55.3ZM13.8 43.1L13.4058 42.7924L12.7756 43.6H13.8V43.1ZM34.4 16.7H34.9V15.2464L34.0058 16.3924L34.4 16.7ZM34.4 43.1V43.6H34.9V43.1H34.4ZM33.9 55.3V71H34.9V55.3H33.9ZM34.4 71.5H50.9V70.5H34.4V71.5ZM51.4 71V55.3H50.4V71H51.4ZM50.9 55.8H59.4V54.8H50.9V55.8ZM59.9 55.3V43.1H58.9V55.3H59.9ZM59.4 42.6H50.9V43.6H59.4V42.6ZM51.4 43.1V0.999995H50.4V43.1H51.4ZM50.9 0.499995H34.3V1.5H50.9V0.499995ZM33.9079 0.689716L0.90792 42.3897L1.69208 43.0103L34.6921 1.31027L33.9079 0.689716ZM0.8 42.7V55.3H1.8V42.7H0.8ZM1.3 55.8H34.4V54.8H1.3V55.8ZM14.1942 43.4076L34.7942 17.0076L34.0058 16.3924L13.4058 42.7924L14.1942 43.4076ZM33.9 16.7V43.1H34.9V16.7H33.9ZM34.4 42.6H13.8V43.6H34.4V42.6Z" fill="#F77620"/>
</svg>
