<?xml version="1.0" encoding="UTF-8"?>
<svg width="231px" height="20px" viewBox="0 0 231 20" version="1.1" xmlns="http://www.w3.org/2000/svg" xmlns:xlink="http://www.w3.org/1999/xlink">
    <!-- Generator: Sketch 60 (88103) - https://sketch.com -->
    <title>Group</title>
    <desc>Created with Sketch.</desc>
    <g id="Page-1" stroke="none" stroke-width="1" fill="none" fill-rule="evenodd">
        <g id="avtodrom_END" transform="translate(-503.000000, -41.000000)" fill="#475866">
            <g id="Group" transform="translate(503.000000, 41.000000)">
                <path d="M18.82245,11.5456 C18.876825,10.8958667 19.010225,11.0792 19.710575,11.0792 C22.123375,11.0792 22.1879,10.8650667 22.116125,11.8866 C22.075525,12.4688667 21.929075,12.4036 21.372275,12.4028667 L19.378525,12.4043333 C18.801425,12.4050667 18.766625,12.21 18.82245,11.5456 Z M3.466225,11.1408 C4.0223,11.022 6.057375,11.0183333 6.6062,11.1415333 C6.68595,11.4686 6.7338,11.7538667 6.641,12.0919333 C6.560525,12.3882 6.6642,12.166 6.505425,12.3544667 C5.96965,12.5224 4.946675,12.3955333 4.308675,12.4072667 C3.271925,12.4256 3.274825,12.3412667 3.466225,11.1408 L3.466225,11.1408 Z M4.75745,9.01706667 C4.893025,7.82833333 5.423,6.18346667 5.83625,5.0226 C6.035625,4.4616 5.96965,4.31786667 6.567775,4.2196 C8.3607,3.92406667 10.875725,3.8984 12.733175,3.89690076 C14.389075,3.8962 17.457275,3.905 18.9921,4.22693333 C19.54455,4.3428 19.53875,4.60533333 19.73015,5.1436 C20.148475,6.31986667 20.59435,7.76013333 20.7582,9.02146667 C20.036825,8.93933333 19.346625,8.8704 18.617275,8.82053333 C17.384775,8.73473333 18.233025,8.3578 17.1129,8.1312 C15.8717,7.88113333 14.54205,7.67066667 13.287075,7.47486667 C13.1109,7.21013333 13.0297,6.666 12.509875,7.04513333 C12.0872,7.35313333 12.6208,7.42206667 11.68265,7.57826667 C5.684,8.5778 8.70435,8.3622 7.32105,8.77653333 C6.994075,8.87406667 5.251175,8.96866667 4.75745,9.01706667 L4.75745,9.01706667 Z M23.14635,9.45926667 C25.02845,9.26273333 25.620775,9.7416 25.44895,7.40373333 C25.39095,6.61613333 24.971175,6.82586667 23.2551,6.8266 C21.888475,6.8266 22.3387,7.89726667 21.81525,8.52133333 C21.2918,7.08033333 20.98875,3.98786667 19.8563,3.3374 C18.63685,2.63706667 7.105725,2.62753333 5.700675,3.31833333 C4.993075,3.66593333 4.727725,4.83853333 4.436275,5.73466667 C4.285475,6.1996 4.1673,6.62933333 4.03535,7.128 L3.722875,8.3732 C3.71635,8.3908 3.692425,8.46486667 3.688075,8.44946667 C3.683,8.43406667 3.666325,8.50006667 3.6511,8.52353333 C3.3002,7.76306667 3.4307,6.98206667 2.6477,6.84786667 C2.08365,6.7518 0.61045,6.65426667 0.25375,6.9872 C-0.07685,7.32673333 0.023925,8.41353333 0.132675,8.94813333 C0.9164,9.50326667 1.21655,9.38886667 2.34755,9.44313333 C1.698675,9.8692 1.753775,9.4644 1.54135,10.3092 C1.3804,10.9479333 1.099825,10.769 0.94685,11.3835333 C0.821425,11.8851333 0.911325,14.0147333 0.911325,14.6879333 C0.911325,15.9118667 1.11505,16.5748 1.111425,17.8244 C1.1078,19.2192 0.831575,19.9151333 2.322175,19.9144 C6.0987,19.9452 4.971325,19.9364 5.423725,18.6978 C6.59025,18.7506 7.598,19.0322 8.855875,19.0468667 C10.105775,19.0615333 11.37235,19.0578667 12.62225,19.0578667 C16.704725,19.0578667 16.16315,19.1260667 20.1637,18.6684667 C20.152825,20.273 20.7814,19.9144 22.258225,19.9144 C24.565175,19.9144 24.392625,20.3331333 24.392625,17.0397333 C24.392625,16.2514 24.550675,16.3401333 24.599975,15.7021333 C24.66305,14.8866667 24.69205,11.5206667 24.4586,11.1173333 C24.36145,10.9494 24.157725,10.7902667 24.095375,10.7008 C23.80465,10.2835333 24.044625,10.5761333 23.9279,10.1024 C23.801025,9.59053333 23.6756,9.74233333 23.14635,9.45926667 L23.14635,9.45926667 Z" id="Shape"></path>
                <path d="M81.43055,12.4028667 C81.827125,12.3427333 82.343325,12.166 82.414375,12.6771333 C82.449175,12.9279333 82.179475,13.5534667 82.047525,13.7412 C81.599475,14.3784667 80.3532,14.1489333 79.553525,14.1562667 C79.106925,14.1606667 78.53345,14.2772667 78.479075,13.7962 C78.322475,12.4182667 80.659875,12.5194667 81.43055,12.4028667 L81.43055,12.4028667 Z M59.7313,14.7972 L59.7313,8.0388 C60.4012,7.43746667 61.2422,7.3458 62.414525,7.28933333 C62.565325,7.61933333 62.5124,7.60246667 62.832125,7.84666667 C63.23305,7.32673333 64.016775,4.75786667 64.9571,3.96073333 C65.977175,3.09466667 69.229525,3.26113333 70.053125,2.9304 L74.072525,2.9304 C75.220925,3.43273333 77.7548,3.00226667 78.956125,3.9864 C79.50205,4.43373333 80.659875,6.88966667 80.958575,7.8738 L81.265975,7.56653333 C81.892375,6.9322 83.61425,7.54306667 84.07535,7.9706 C84.107975,9.09186667 83.31265,8.88506667 82.856625,9.46953333 C84.112325,10.1236667 84.170325,12.4659333 84.1029,14.2457333 C84.065925,15.2313333 83.899175,19.2859333 83.6969,19.7706667 C82.956675,19.9818667 81.8525,19.8953333 80.996275,19.8982667 C79.65865,19.9026667 79.376625,20.1512667 79.198275,18.8716 C74.54015,18.5724 69.38105,18.5467333 64.71495,18.8415333 C64.45685,19.3358 64.840375,19.3438667 64.302425,19.7787333 C63.78985,20.0214667 60.96815,19.9767333 60.294625,19.8154 C59.5399,18.9757333 60.227925,16.0673333 59.7313,14.7972 L59.7313,14.7972 Z M63.0344,12.4747333 C63.9218,12.5913333 64.685225,12.5275333 65.146325,13.1420667 C66.101875,14.4166 64.4438,14.1526 63.49695,14.1526 C62.162225,14.1526 61.995475,14.3352 61.5554,13.1721333 C61.09575,11.9562667 62.170925,12.3610667 63.0344,12.4747333 L63.0344,12.4747333 Z M64.07985,8.1708 C64.21325,7.59146667 64.683775,6.64326667 64.97015,6.09986667 C65.392825,5.29906667 65.5255,4.79086667 66.502075,4.6244 C69.964675,4.03333333 73.94855,3.94386667 77.4213,4.63466667 C78.342775,4.81873333 78.522575,5.37533333 78.912625,6.16146667 C79.233075,6.8068 79.669525,7.5086 79.7819,8.19206667 C74.607575,7.62153333 69.241125,7.98893333 64.07985,8.1708 L64.07985,8.1708 Z" id="Shape"></path>
                <path d="M105.61945,11.6952 C105.399775,11.0176 105.85725,10.3436667 106.29225,10.2278 C107.017975,10.0349333 107.5755,10.4434 107.708175,10.9398667 C108.118525,12.4732667 106.007325,12.8912667 105.61945,11.6952 L105.61945,11.6952 Z M94.591475,11.5837333 C94.1282,13.0203333 92.061225,12.4894 92.4665,10.9538 C92.82465,9.60006667 95.026475,10.2351333 94.591475,11.5837333 Z M94.1253,1.3926 L106.01965,1.43733333 L106.865,6.1358 C102.5759,5.75813333 97.6198,5.5748 93.261825,6.0896 L94.1253,1.3926 Z M91.65885,6.35726667 L91.584175,6.07713333 C91.579825,6.0434 91.575475,6.01186667 91.57185,5.973 C91.556625,5.82633333 91.572575,5.66133333 91.552275,5.53006667 C91.482675,5.093 91.524725,5.1744 91.110025,5.082 C90.756225,5.00353333 89.82895,4.85173333 89.486025,4.90746667 C89.37075,5.34746667 89.375825,6.16953333 89.483125,6.62346667 C89.59115,7.0796 90.070375,7.3502 90.46405,7.51373333 C90.1755,8.40913333 89.88115,7.83346667 89.887675,9.11313333 C89.8913,9.87286667 89.894925,10.6304 89.887675,11.3894 L90.538,11.924 C90.530025,11.924 90.489425,11.9137333 90.476375,11.9496667 C90.463325,11.9848667 90.416925,11.9834 90.3988,11.9914667 C89.285925,12.4820667 89.378,12.2877333 89.378,14.608 C89.378725,20.2876667 88.911825,19.9276 91.8836,19.9474 C93.722925,19.9598667 93.586625,19.3695333 93.576475,17.6418 C94.0267,17.5721333 94.774175,17.6968 95.1403,17.5552667 C95.681875,17.3462667 94.913375,17.3719333 95.74785,17.2648667 L104.29415,17.259 C105.579575,17.3389333 103.646,17.5516 106.609075,17.6044 C106.58225,19.1957333 106.43725,19.9525333 108.156225,19.9488799 C111.3078,19.9408 110.803925,20.1747333 110.803925,14.8324 C110.803925,13.3686667 111.153375,12.1704 109.620725,12.0274 C110.479125,11.0256667 110.27685,11.5881333 110.2783,9.90293333 C110.280475,7.09133333 110.016575,8.72886667 109.6896,7.5086 C110.79015,6.9542 110.9511,6.5362 110.664725,4.90526667 C110.213775,4.87373333 108.7761,4.91626667 108.643425,5.45086667 C108.585425,5.6848 108.643425,5.68406667 108.62675,5.8652 C108.6253,5.8762 108.697075,6.07713333 108.49335,6.39393333 C108.009775,6.22966667 108.1671,6.39393333 107.9873,5.01893333 C107.8568,4.01866667 107.41165,1.01713333 106.917925,0.5148 C106.277025,-0.1364 104.8002,0.0784666667 103.730825,0.0784666667 L96.421375,0.0784666667 C92.7478,0.0777333333 93.0755,-0.166466667 92.4259,3.39386667 L91.952475,6.04633333 C91.827775,6.336 91.9271,6.22673333 91.65885,6.35726667 L91.65885,6.35726667 Z" id="Shape"></path>
                <path d="M134.536075,15.7124 C134.024225,14.0550667 135.043575,14.0308667 135.691,13.8372667 C136.307975,13.6539333 137.678225,13.1677333 138.2546,13.409 C138.501825,14.4686667 137.637625,14.773 136.89305,15.0619333 C136.290575,15.2966 135.26905,15.8165333 134.536075,15.7124 L134.536075,15.7124 Z M123.0876,15.6632667 C122.514125,15.8759333 121.252625,15.2372 120.6951,15.0355333 C119.983875,14.7788667 119.1001,14.3689333 119.431425,13.4229333 C119.767825,13.2579333 119.63805,13.2894667 120.102775,13.3774667 L121.967475,13.8607333 C122.957825,14.1078667 123.51825,14.3498667 123.0876,15.6632667 L123.0876,15.6632667 Z M120.659575,9.66753333 C121.05905,8.0608 121.3766,6.09253333 123.0325,5.8608 C125.2075,5.55646667 132.643825,5.50806667 134.740525,5.87986667 C135.59095,6.0302 136.02305,6.51346667 136.2971,7.3172 C136.5552,8.07473333 136.8046,8.8682 137.00035,9.6756 L135.775825,9.5304 C135.407525,6.96153333 134.59625,7.08473333 132.102975,7.073 C131.053175,7.06786667 130.318025,7.2336 129.848225,7.9354 C129.17615,8.9386 130.20855,9.36173333 128.187975,9.1388 C127.61595,6.94246667 127.12585,7.07886667 124.793525,7.07373333 C122.686675,7.06933333 122.22195,7.41766667 121.8841,9.5282 L120.659575,9.66753333 L120.659575,9.66753333 Z M119.4771,9.19233333 C118.635375,9.2576 116.925825,8.72153333 116.3538,9.30673333 C116.07685,9.5898 115.968825,10.1126667 116.17835,10.5292 C116.369025,10.9076 116.7569,10.9816667 117.220175,11.2625333 C116.4727,13.7236 117.147675,14.5742667 117.1629,17.0507333 C117.16725,17.8522667 116.851875,19.6254667 117.610225,19.8601333 C118.095975,20.0097333 120.476875,19.9576667 120.849525,19.7934 C121.274375,19.3563333 121.087325,19.1598 121.155475,18.5372 C126.4748,19.3893333 131.23805,19.096 136.544325,18.546 C136.53925,19.679 136.5552,19.9188 137.749275,19.91 C141.572925,19.8806667 140.1425,20.3852 140.617375,15.3824 C140.79935,13.4676667 140.962475,13.0665333 140.439025,11.2456667 C140.9023,11.0029333 141.2938,10.8834 141.485925,10.5145333 C141.73315,10.0400667 141.574375,9.52233333 141.249575,9.25613333 C140.650725,8.76626667 139.055,9.22973333 138.19515,9.2048 C137.49045,7.93246667 137.7732,5.72073333 135.55905,4.8224 C134.098175,4.22913333 123.64585,4.26873333 122.199475,4.79233333 C121.3795,5.08933333 120.666825,5.72733333 120.3471,6.501 C120.023025,7.28566667 119.841775,8.448 119.4771,9.19233333 L119.4771,9.19233333 Z" id="Shape"></path>
                <path d="M185.1563,14.6234 C186.07415,14.3154 188.451425,14.4818667 189.640425,14.4818667 C190.397325,14.4818667 191.222375,14.4496 191.970575,14.4789333 C192.9486,14.5170667 192.931925,15.0194 192.678175,15.7278 C191.893,15.9632 185.9393,15.9646667 185.1737,15.7204667 C184.96345,15.1880667 184.981575,15.147 185.1563,14.6234 L185.1563,14.6234 Z M179.8319,13.3349333 C179.61875,12.4798667 180.142925,11.7414 180.820075,11.5778667 C181.6473,11.3784 182.3984,11.9005333 182.5521,12.5664 C183.0045,14.5207333 180.266175,15.07 179.8319,13.3349333 Z M197.98155,13.4471333 C197.2957,15.2159333 194.69295,14.2574667 195.3556,12.3955333 C195.569475,11.7934667 196.342325,11.308 197.19855,11.6277333 C197.748825,11.8330667 198.2962,12.6360667 197.98155,13.4471333 L197.98155,13.4471333 Z M182.355625,4.5034 C185.06495,3.89326667 192.7485,3.96733333 195.498425,4.49533333 C195.934875,5.58873333 196.562725,7.63033333 196.7331,8.8814 C190.885975,8.0014 186.95285,8.06446667 181.1137,8.87773333 C181.35875,7.2732 181.853925,5.90406667 182.355625,4.5034 L182.355625,4.5034 Z M179.893525,8.51986667 C179.190275,8.23093333 179.23015,8.12313333 178.121625,8.12753333 C177.33645,8.13046667 176.832575,8.1048 176.410625,8.58 C176.149625,8.8748 175.4123,10.7132667 178.047675,10.6186667 C177.139975,12.5847333 177.3959,12.144 177.3959,14.9035333 C177.3959,16.1692667 177.248725,18.8151333 177.5322,19.7728667 C178.301425,20.0207333 179.507825,19.9041333 180.447425,19.9056 C181.95905,19.9063333 182.3056,20.1952667 182.2882,18.5951333 L195.557875,18.5966 C195.576,20.3485333 195.743475,19.8872667 199.2822,19.91 C200.8917,19.9195333 200.4567,18.9896667 200.457425,17.4804667 C200.457425,16.2477333 200.4567,15.0157333 200.457425,13.783 C200.45815,11.9452667 200.499475,12.0039333 199.803475,10.6216 C202.500475,10.6890667 201.69355,8.8616 201.439075,8.57046667 C200.970725,8.0344 198.968275,7.84153333 197.992425,8.51326667 C197.97285,8.52646667 197.940225,8.55213333 197.912675,8.569 C197.801025,7.70073333 197.453025,6.50613333 197.193475,5.6958 C196.894775,4.7652 196.710625,3.6696 195.8747,3.3308 C194.911175,2.93993333 190.2806,2.85925489 188.9756,2.85925489 C187.404525,2.85853333 183.3815,2.8908 182.049675,3.3066 C181.144875,3.58893333 181.0122,4.65593333 180.715675,5.63493333 C180.4873,6.3866 180.19005,7.80633333 179.893525,8.51986667 L179.893525,8.51986667 Z" id="Shape"></path>
                <path d="M227.272275,12.122 L227.321575,14.0961333 L224.557875,14.1254667 C224.594125,13.8482667 225.052325,12.6016 225.155275,12.4043333 C225.439475,11.8609333 226.67995,12.0420667 227.272275,12.122 L227.272275,12.122 Z M209.859225,12.1183333 L211.847175,12.0904667 C212.041475,12.4586 212.55405,13.6488 212.62655,14.0829333 L209.89185,14.1328 L209.859225,12.1183333 L209.859225,12.1183333 Z M210.785775,7.4976 C210.713275,6.91313333 211.874,4.13746667 212.222,3.9182 C213.3646,3.19953333 221.944975,3.4584 224.05255,3.71066667 C225.120475,3.83826667 225.12555,3.92113333 225.4953,4.8202 C227.1019,8.72446667 227.227325,7.94346667 220.4145,7.94493333 L212.8832,7.9508 C212.309725,7.95446667 210.875675,8.22286667 210.785775,7.4976 L210.785775,7.4976 Z M228.765775,10.2241333 C230.05845,9.94473333 230.085275,10.3451333 230.2194,8.66873333 C230.28755,7.8122 229.672025,8.05786667 228.033525,8.05786667 C227.791375,7.08766667 226.123875,3.2758 225.540975,2.9854 C224.2686,2.35253333 212.737475,2.3276 211.55935,3.02573333 C210.93295,3.3968 209.653325,7.04806667 209.11755,8.02193333 C208.429525,8.10773333 207.559525,7.9552 207.021575,8.173 C206.944725,8.61813333 206.989675,8.79266667 207.062175,9.2378 C207.215875,10.1867333 207.22095,10.0701333 208.430975,10.1992 C207.845175,12.6580667 207.965525,15.0318667 208.161275,17.6520667 C208.312075,19.6614 207.7618,19.9371333 209.89185,19.8814 C211.6101,19.8359333 212.5381,20.4702667 212.511275,18.5804667 L224.68765,18.6274 C224.6862,20.1182667 224.89935,19.9004667 226.283375,19.8946 C227.1164,19.8909333 228.193025,20.0134 228.8448,19.7354667 C229.060125,19.0116667 229.15075,15.8928 229.17685,14.8910667 C229.21745,13.3041333 229.1667,11.6343333 228.765775,10.2241333 L228.765775,10.2241333 Z" id="Shape"></path>
                <path d="M162.3072,14.6974667 C162.702325,15.8708 161.9621,15.7842667 160.9645,15.7769333 L155.801775,15.7556667 C155.0978,15.6097333 154.969475,14.5478667 156.200525,14.5478667 C157.2815,14.5478667 161.55465,14.4107333 162.3072,14.6974667 Z M166.454925,12.419 C167.7505,11.7898 168.54365,13.8402 167.337975,14.3425333 C165.87855,14.9504667 165.26955,12.9954 166.454925,12.419 Z M150.429525,12.4366 C151.8208,11.8301333 152.417475,13.8768667 151.2756,14.3352 C149.919125,14.8786 149.1934,12.9756 150.429525,12.4366 Z M151.815725,4.84366667 L165.950325,4.873 L167.130625,8.85426667 L150.544075,8.8264 L151.815725,4.84366667 Z M149.7183,7.4514 C148.93385,7.40666667 147.6245,7.10086667 146.988675,7.2798 C146.682,7.8232 146.869775,8.82713333 147.28955,9.1586 C147.68105,9.4688 148.345875,9.69833333 148.7613,10.0019333 C148.163175,11.4627333 147.773125,10.5182 147.783275,12.6903333 C147.789075,13.9223333 147.784,15.1558 147.784,16.3878 C147.784,17.1130667 147.577375,19.5081333 148.074725,19.7970667 C148.515525,20.0537333 151.157425,19.9371333 151.5917,19.7912 C151.833125,19.1737333 151.72655,18.8532667 151.77005,18.0854667 L165.983675,18.1148 C165.98295,20.1241333 165.62045,19.9129333 168.827125,19.9114667 C170.258275,19.9114667 169.8791,19.7186 169.924775,15.0436 C169.932025,14.3132 169.99365,11.7128 169.81095,11.3564 C169.592,10.9274 169.109875,10.4368 168.963425,10.0019333 C169.341875,9.72766667 170.188675,9.3984 170.49825,9.11533333 C170.899175,8.7494 171.009375,7.75646667 170.726625,7.27393333 L168.055,7.44846667 C166.050375,3.0426 169.309975,3.6058 158.8591,3.6058 C156.71745,3.6058 154.573625,3.597 152.4327,3.60213333 C151.20745,3.60506667 150.822475,3.87493333 150.488975,4.89646667 C150.2316,5.68626667 149.872,6.68506667 149.7183,7.4514 L149.7183,7.4514 Z" id="Shape"></path>
                <path d="M45.6721,17.0038 C44.9065,17.6696667 42.581425,17.3792667 41.40765,17.3829333 C40.59855,17.3851333 39.9707,17.4166667 39.51685,16.9568667 C39.19495,16.6305333 38.611325,15.6933333 39.301525,15.4542667 C39.6401,15.3369333 45.8925,15.3501333 46.0955,15.4652667 C46.68565,15.7974667 45.942525,16.7676667 45.6721,17.0038 L45.6721,17.0038 Z M50.489,13.1156667 C51.590275,12.5488 52.07385,14.0506667 51.26475,14.4855333 C50.341825,14.9827333 49.580575,13.5835333 50.489,13.1156667 Z M34.01555,13.1406 C35.00155,12.5363333 35.612,13.9876 34.851475,14.4598667 C34.47375,14.6945333 33.9764,14.5515333 33.7676,14.2523333 C33.418875,13.7522 33.63565,13.3730667 34.01555,13.1406 L34.01555,13.1406 Z M35.19875,10.0004667 C35.33795,9.48346667 35.86575,8.61226667 36.111525,8.1158 C36.430525,7.47193333 36.587125,6.8464 37.419425,6.7342 C38.698325,6.56186667 41.3163,6.71806667 42.7373,6.71806667 C49.8684,6.71806667 47.8761,5.96053333 50.12795,9.9902 C48.058075,11.352 45.411825,10.9904667 42.626375,10.9904667 C40.001875,10.9904667 37.19105,11.3468667 35.19875,10.0004667 L35.19875,10.0004667 Z M33.988,9.44606667 C33.3471,9.23193333 33.228925,9.0882 32.441575,9.06546667 C31.9464,9.0508 31.10685,8.97233333 30.8734,9.3214 C30.12955,10.4346 32.11895,11.3468667 32.2422,11.4568667 C31.993525,12.5099333 31.606375,12.9880667 31.581725,14.3682 C31.561425,15.5180667 31.58245,16.6899333 31.58245,17.842 C31.581725,19.4267333 31.213425,19.9496 32.87585,19.9349333 C35.590975,19.9107333 34.841325,20.1446667 35.648975,19.3328667 C37.587625,19.6386667 40.605075,19.6262 42.626375,19.5264667 C45.00075,19.4098667 47.1917,19.7090667 49.603775,19.3387333 C49.6277,19.3585333 49.653075,19.3900667 49.667575,19.4062 C49.682075,19.4216 49.712525,19.4538667 49.729925,19.4736667 C49.967,19.7398667 49.95685,19.8447333 50.299775,19.9166 C50.540475,19.9664667 51.203125,19.9334667 51.4866,19.9327333 C54.2938,19.9246667 53.70075,20.3778667 53.708725,15.2658 C53.711625,13.5380667 53.5775,12.8927333 53.028675,11.4568667 C53.682625,10.9318 54.846975,10.7594667 54.401825,9.18646667 C53.046075,8.82566667 52.395025,9.185 51.265475,9.42846667 C50.37155,8.51326667 49.9728,6.501 48.558325,6.01406667 C47.937,5.79993333 37.406375,5.77133333 36.70675,6.02506667 C35.177,6.57946667 35.04795,8.48613333 33.988,9.44606667 L33.988,9.44606667 Z" id="Shape"></path>
            </g>
        </g>
    </g>
</svg>