<?xml version="1.0" encoding="UTF-8"?>
<svg width="26px" height="18px" viewBox="0 0 26 18" version="1.1" xmlns="http://www.w3.org/2000/svg" xmlns:xlink="http://www.w3.org/1999/xlink">
    <!-- Generator: Sketch 60 (88103) - https://sketch.com -->
    <title>Shape</title>
    <desc>Created with Sketch.</desc>
    <g id="Page-1" stroke="none" stroke-width="1" fill="none" fill-rule="evenodd">
        <g id="avtodrom_END" transform="translate(-679.000000, -43.000000)" fill="#475866">
            <g id="Group" transform="translate(503.000000, 41.000000)">
                <path d="M185.1563,14.6234 C186.07415,14.3154 188.451425,14.4818667 189.640425,14.4818667 C190.397325,14.4818667 191.222375,14.4496 191.970575,14.4789333 C192.9486,14.5170667 192.931925,15.0194 192.678175,15.7278 C191.893,15.9632 185.9393,15.9646667 185.1737,15.7204667 C184.96345,15.1880667 184.981575,15.147 185.1563,14.6234 L185.1563,14.6234 Z M179.8319,13.3349333 C179.61875,12.4798667 180.142925,11.7414 180.820075,11.5778667 C181.6473,11.3784 182.3984,11.9005333 182.5521,12.5664 C183.0045,14.5207333 180.266175,15.07 179.8319,13.3349333 Z M197.98155,13.4471333 C197.2957,15.2159333 194.69295,14.2574667 195.3556,12.3955333 C195.569475,11.7934667 196.342325,11.308 197.19855,11.6277333 C197.748825,11.8330667 198.2962,12.6360667 197.98155,13.4471333 L197.98155,13.4471333 Z M182.355625,4.5034 C185.06495,3.89326667 192.7485,3.96733333 195.498425,4.49533333 C195.934875,5.58873333 196.562725,7.63033333 196.7331,8.8814 C190.885975,8.0014 186.95285,8.06446667 181.1137,8.87773333 C181.35875,7.2732 181.853925,5.90406667 182.355625,4.5034 L182.355625,4.5034 Z M179.893525,8.51986667 C179.190275,8.23093333 179.23015,8.12313333 178.121625,8.12753333 C177.33645,8.13046667 176.832575,8.1048 176.410625,8.58 C176.149625,8.8748 175.4123,10.7132667 178.047675,10.6186667 C177.139975,12.5847333 177.3959,12.144 177.3959,14.9035333 C177.3959,16.1692667 177.248725,18.8151333 177.5322,19.7728667 C178.301425,20.0207333 179.507825,19.9041333 180.447425,19.9056 C181.95905,19.9063333 182.3056,20.1952667 182.2882,18.5951333 L195.557875,18.5966 C195.576,20.3485333 195.743475,19.8872667 199.2822,19.91 C200.8917,19.9195333 200.4567,18.9896667 200.457425,17.4804667 C200.457425,16.2477333 200.4567,15.0157333 200.457425,13.783 C200.45815,11.9452667 200.499475,12.0039333 199.803475,10.6216 C202.500475,10.6890667 201.69355,8.8616 201.439075,8.57046667 C200.970725,8.0344 198.968275,7.84153333 197.992425,8.51326667 C197.97285,8.52646667 197.940225,8.55213333 197.912675,8.569 C197.801025,7.70073333 197.453025,6.50613333 197.193475,5.6958 C196.894775,4.7652 196.710625,3.6696 195.8747,3.3308 C194.911175,2.93993333 190.2806,2.85925489 188.9756,2.85925489 C187.404525,2.85853333 183.3815,2.8908 182.049675,3.3066 C181.144875,3.58893333 181.0122,4.65593333 180.715675,5.63493333 C180.4873,6.3866 180.19005,7.80633333 179.893525,8.51986667 L179.893525,8.51986667 Z" id="Shape"></path>
            </g>
        </g>
    </g>
</svg>