<?xml version="1.0" encoding="UTF-8"?>
<svg width="57px" height="74px" viewBox="0 0 57 74" version="1.1" xmlns="http://www.w3.org/2000/svg" xmlns:xlink="http://www.w3.org/1999/xlink">
    <!-- Generator: Sketch 60 (88103) - https://sketch.com -->
    <title>2</title>
    <desc>Created with Sketch.</desc>
    <g id="Page-1" stroke="none" stroke-width="1" fill="none" fill-rule="evenodd" fill-opacity="0">
        <g id="Главная-Томь-Лада" transform="translate(-619.000000, -2160.000000)" fill="#FFFFFF" fill-rule="nonzero" stroke="#FFFFFF" stroke-width="2">
            <g id="Group-25" transform="translate(0.000000, 1833.000000)">
                <g id="Group-50" transform="translate(222.000000, 167.000000)">
                    <g id="Group-49" transform="translate(0.000000, 162.000000)">
                        <g id="Group-46" transform="translate(393.000000, 0.000000)">
                            <path d="M59.2,71 L59.2,58.8 L25,58.8 C28,53.4 32.8,50.8 40.2,46.5 C55.9,37.3 59.3,30.1 59.3,21 C59.3,-0.7 36.4,-1 33.1,-1 C10.8,-1 5.3,13 5.3,23.1 L5.3,25.2 L20.6,25.2 L20.6,22.7 C20.6,15.7 25.3,11.2 32.5,11.2 C38.4,11.2 43.7,14.2 43.7,21.7 C43.7,30.9 36.4,33.7 23.3,42.7 C8.5,52.8 5.6,59 5.6,68.2 L5.6,71 L59.2,71 Z" id="2"></path>
                        </g>
                    </g>
                </g>
            </g>
        </g>
    </g>
</svg>