<?xml version="1.0" encoding="UTF-8"?>
<svg width="58px" height="74px" viewBox="0 0 58 74" version="1.1" xmlns="http://www.w3.org/2000/svg" xmlns:xlink="http://www.w3.org/1999/xlink">
    <!-- Generator: Sketch 60 (88103) - https://sketch.com -->
    <title>5</title>
    <desc>Created with Sketch.</desc>
    <g id="Page-1" stroke="none" stroke-width="1" fill="none" fill-rule="evenodd" fill-opacity="0">
        <g id="Главная-Томь-Лада" transform="translate(-618.000000, -2292.000000)" fill="#FFFFFF" fill-rule="nonzero" stroke="#FFFFFF" stroke-width="2">
            <g id="Group-25" transform="translate(0.000000, 1833.000000)">
                <g id="Group-50" transform="translate(222.000000, 167.000000)">
                    <g id="Group-49" transform="translate(0.000000, 162.000000)">
                        <g id="Group-47" transform="translate(0.000000, 131.000000)">
                            <path d="M424.8,72 C444.8,72 452.7,59 452.7,45.8 C452.7,32 443.8,22.4 429.2,22.4 C419.8,22.4 414.5,25.8 412.4,27.4 L414.4,12.2 L448.4,12.2 L448.4,0 L403.7,0 L399.2,37.5 L414.7,37.5 C417.2,33.5 422.3,32.5 425.5,32.5 C431.2,32.5 437.1,36.6 437.1,45.6 C437.1,49.1 436.5,60 425.2,60 C416.8,60 414,54.1 413.5,49.7 L397.9,49.7 C398.4,58 403.2,72 424.8,72 Z" id="5"></path>
                        </g>
                    </g>
                </g>
            </g>
        </g>
    </g>
</svg>