<?xml version="1.0" encoding="UTF-8"?>
<svg width="59px" height="76px" viewBox="0 0 59 76" version="1.1" xmlns="http://www.w3.org/2000/svg" xmlns:xlink="http://www.w3.org/1999/xlink">
    <!-- Generator: Sketch 60 (88103) - https://sketch.com -->
    <title>6</title>
    <desc>Created with Sketch.</desc>
    <g id="Page-1" stroke="none" stroke-width="1" fill="none" fill-rule="evenodd" fill-opacity="0">
        <g id="Главная-Томь-Лада" transform="translate(-618.000000, -2290.000000)" fill="#FFFFFF" fill-rule="nonzero" stroke="#FFFFFF" stroke-width="2">
            <g id="Group-25" transform="translate(0.000000, 1833.000000)">
                <g id="Group-50" transform="translate(222.000000, 167.000000)">
                    <g id="Group-49" transform="translate(0.000000, 162.000000)">
                        <g id="Group-47" transform="translate(0.000000, 131.000000)">
                            <path d="M426.8,72 C447.9,72 453.1,56.7 453.1,45.8 C453.1,28.5 439.9,21.9 428.3,21.9 C421.8,21.9 416.7,24.1 412.8,28.1 C413.3,18.2 416.5,10.2 426.4,10.2 C429.6,10.2 436.3,10.8 438.1,16.5 L452.3,16.5 C450.7,8.7 445.3,-2 427.2,-2 C398.4,-2 397.7,28.1 397.7,35.4 C397.7,71.4 419.5,72 426.8,72 Z M425.9,59.8 C417.3,59.8 412.8,53.2 412.8,45.9 C412.8,36.5 419.4,32.7 425.7,32.7 C433.1,32.7 438.6,37.8 438.6,46.2 C438.6,53.5 434.3,59.8 425.9,59.8 Z" id="6"></path>
                        </g>
                    </g>
                </g>
            </g>
        </g>
    </g>
</svg>