<svg width="80" height="80" viewBox="0 0 80 80" fill="none" xmlns="http://www.w3.org/2000/svg">
<path fill-rule="evenodd" clip-rule="evenodd" d="M39.9608 3.1194H39.9226C39.0613 3.1194 38.3631 2.42123 38.3631 1.55994C38.3631 0.698656 39.0613 0.000488281 39.9226 0.000488281H39.9608C40.8221 0.000488281 41.5202 0.698656 41.5202 1.55994C41.5202 2.42123 40.8221 3.1194 39.9608 3.1194ZM77.1605 50.0867L79.7236 56.2077C80.0561 57.0021 79.6818 57.9158 78.8874 58.2486C78.6906 58.3309 78.4865 58.3701 78.2858 58.3701C77.6759 58.3701 77.0968 58.0102 76.8465 57.4124L74.4615 51.7165L67.6788 53.1473L73.5642 77.9244C73.7633 78.7624 73.2455 79.6031 72.4074 79.8021C72.2862 79.8308 72.1651 79.8445 72.0458 79.8445C71.3398 79.8445 70.7001 79.3621 70.5298 78.6453L65.1506 56.0002C62.3877 59.1166 59.048 61.7259 55.3584 63.6314C50.624 66.0764 45.2863 67.3688 39.9224 67.3688C30.2352 67.3688 21.0527 63.1751 14.6945 55.9988L9.31485 78.6455C9.14455 79.362 8.50471 79.8447 7.7989 79.8447C7.6796 79.8447 7.55843 79.8311 7.43726 79.8023C6.59937 79.6033 6.08147 78.7626 6.28046 77.9245L12.1662 53.1472L5.38346 51.7164L2.99843 57.4123C2.74814 58.0098 2.16896 58.3699 1.55921 58.3699C1.35836 58.3699 1.15438 58.3309 0.957576 58.2484C0.16319 57.9158 -0.211235 57.0021 0.121397 56.2077L2.68467 50.0869L1.2913 47.9637C0.138551 46.2071 -0.202346 44.0381 0.356406 42.0127L1.65169 37.3165C2.21949 35.2579 3.51836 33.4835 5.30908 32.3203C5.59773 32.1327 5.93847 32.049 6.27765 32.075C7.01107 16.6987 18.1916 3.61452 33.4042 0.630976C34.2505 0.465206 35.0689 1.01616 35.2347 1.86107C35.4005 2.7063 34.8497 3.52579 34.0046 3.69156C19.723 6.4925 9.35726 19.1065 9.35726 33.6847C9.35726 34.1164 9.36818 34.5508 9.38611 34.9814L12.6438 36.7214C12.5331 35.715 12.4762 34.6994 12.4762 33.6847C12.4762 31.9899 12.6316 30.3309 12.9272 28.7202C12.9326 28.6832 12.9401 28.6469 12.9482 28.6105C15.3354 15.8924 26.5219 6.23831 39.9226 6.23831C53.3177 6.23831 64.5002 15.8842 66.8938 28.5943C66.9039 28.6375 66.9125 28.6809 66.9189 28.725C67.2138 30.3342 67.369 31.9916 67.369 33.6847C67.369 34.699 67.3122 35.7151 67.2015 36.7214L70.4575 34.9822C70.4754 34.5499 70.4879 34.116 70.4879 33.6847C70.4879 19.1252 60.1379 6.51433 45.8781 3.69889C45.0331 3.53203 44.4833 2.71176 44.6502 1.86684C44.8171 1.02193 45.6378 0.471911 46.4823 0.638929C61.6712 3.63776 72.8342 16.7181 73.5673 32.0749C73.9065 32.0488 74.2474 32.1326 74.5361 32.3202C76.3268 33.4834 77.6256 35.2577 78.1934 37.3164L79.4887 42.0125C80.0473 44.0379 79.7066 46.207 78.5538 47.9635L77.1605 50.0867ZM73.6805 36.5642C73.5361 36.7936 73.3345 36.9812 73.0956 37.109L67.9734 39.8449C66.8108 40.466 65.4129 40.4141 64.3067 39.7697L63.9396 39.8645C63.492 39.9799 63.1795 40.3833 63.1795 40.8454V44.6067C63.1795 46.1694 63.7796 47.6467 64.8692 48.7668L66.3107 50.2486L74.4509 48.5313L75.9463 46.2527C76.6069 45.246 76.8021 44.0028 76.4819 42.8421L75.1867 38.1458C74.9658 37.3451 74.5727 36.6112 74.0415 35.9908L73.6805 36.5642ZM19.5987 39.6304H28.8603C31.6924 39.6304 33.9966 41.9345 33.9966 44.7668V57.2877C28.0809 55.8168 22.9032 52.1611 19.4931 46.8933C19.6841 46.1547 19.7846 45.3881 19.7846 44.6068V40.8454C19.7844 40.4245 19.7177 40.0169 19.5987 39.6304ZM15.7579 36.5115H28.8603C33.4122 36.5115 37.1155 40.2148 37.1155 44.7668V57.85C38.04 57.9556 38.9763 58.0122 39.9226 58.0122C40.8688 58.0122 41.8051 57.9556 42.7296 57.85V44.7668C42.7296 40.2148 46.433 36.5115 50.9849 36.5115H64.0862C64.1942 35.5757 64.2501 34.6296 64.2501 33.6847C64.2501 32.5087 64.1643 31.3524 64.0023 30.2205L48.1679 26.4002C42.7737 25.0988 37.0711 25.0988 31.677 26.4002L15.8426 30.2207C15.6805 31.3525 15.5949 32.5087 15.5949 33.6847C15.5949 34.6297 15.6498 35.5755 15.7579 36.5115ZM45.8485 44.7667C45.8485 41.9345 48.1526 39.6303 50.9849 39.6303H60.2465C60.1275 40.0169 60.0607 40.4244 60.0607 40.8452V44.6065C60.0607 45.3878 60.1612 46.1544 60.3522 46.893C56.9421 52.161 51.7644 55.8165 45.8485 57.2874V44.7667ZM63.2667 26.8346C60.301 16.7451 50.959 9.35721 39.9226 9.35721C28.886 9.35721 19.5441 16.7451 16.5785 26.8346L30.9457 23.3681C36.818 21.9514 43.0267 21.9514 48.8994 23.3681L63.2667 26.8346ZM3.36303 42.842L4.65832 38.1457C4.87929 37.3449 5.27227 36.611 5.80342 35.9907L6.16444 36.5641C6.30884 36.7933 6.51048 36.9811 6.74939 37.1088L11.8716 39.8447C13.0341 40.4657 14.432 40.4139 15.5383 39.7695L15.9056 39.8643C16.3531 39.9797 16.6656 40.3832 16.6656 40.8452V44.6065C16.6656 46.1692 16.0656 47.6465 14.976 48.7667L13.5344 50.2484L5.39422 48.5312L3.89871 46.2525C3.23812 45.2459 3.04288 44.0028 3.36303 42.842ZM15.7743 52.419C21.5509 59.8512 30.4723 64.25 39.9226 64.25C49.3331 64.25 58.3018 59.841 64.0723 52.4204L62.6338 50.9418C62.3748 50.6756 62.1364 50.3947 61.9143 50.1036C59.6395 53.1434 56.7458 55.7031 53.4388 57.5777C49.3376 59.9024 44.6638 61.1312 39.9227 61.1312C35.1823 61.1312 30.5092 59.9029 26.4085 57.5788C23.1007 55.7042 20.2062 53.144 17.931 50.1036C17.7089 50.3946 17.4703 50.6754 17.2115 50.9416L15.7743 52.419ZM39.9226 28.3306C42.7028 28.3306 44.9647 30.5925 44.9647 33.3728C44.9647 36.153 42.7028 38.415 39.9226 38.415C37.1424 38.415 34.8804 36.153 34.8804 33.3728C34.8804 30.5926 37.1424 28.3306 39.9226 28.3306ZM39.9224 31.4495C38.862 31.4495 37.9991 32.3122 37.9991 33.3728C37.9991 34.4332 38.862 35.2961 39.9224 35.2961C40.9828 35.2961 41.8457 34.4332 41.8457 33.3728C41.8457 32.3124 40.9828 31.4495 39.9224 31.4495Z" fill="#495966"/>
</svg>
