<svg width="80" height="101" viewBox="0 0 80 101" fill="none" xmlns="http://www.w3.org/2000/svg">
<path fill-rule="evenodd" clip-rule="evenodd" d="M78.4212 34.9594C79.2333 34.9594 79.8918 34.3012 79.8918 33.4888V19.2829C79.8918 16.3784 77.6276 13.9875 74.737 13.8398C57.2968 12.9518 47.9233 5.81941 43.8884 1.64706C42.8614 0.584902 41.4796 0 39.9976 0C38.5157 0 37.1339 0.584902 36.1072 1.64686C32.0719 5.81922 22.6984 12.9516 5.25783 13.8398C2.36763 13.9875 0.103516 16.3782 0.103516 19.2829V60.2831C0.103516 72.0912 6.45665 83.0947 16.6841 88.9998L33.3212 98.6035C35.3806 99.7931 37.6888 100.388 39.9978 100.388C42.3063 100.388 44.6153 99.7931 46.6741 98.6037L63.3116 89C73.5386 83.0949 79.8919 72.0914 79.8919 60.2833V40.352C79.8919 39.5396 79.2335 38.8814 78.4214 38.8814C77.6092 38.8814 76.9508 39.5396 76.9508 40.352V60.2833C76.9508 71.0439 71.161 81.0716 61.841 86.4529L45.2033 96.0569C41.9925 97.9116 38.0029 97.9114 34.7918 96.0567L18.1545 86.4529C8.8345 81.0716 3.04469 71.0439 3.04469 60.2833V19.2829C3.04469 17.9457 4.08273 16.8449 5.40763 16.7773C23.8557 15.8378 33.8849 8.17549 38.2216 3.69157C38.6892 3.20784 39.32 2.94137 39.9976 2.94137C40.6753 2.94137 41.3061 3.20784 41.7739 3.69176C46.1102 8.17549 56.1394 15.8378 74.5872 16.7773C75.9125 16.8451 76.9506 17.9457 76.9506 19.2829V33.4888C76.9506 34.3012 77.609 34.9594 78.4212 34.9594ZM9.49763 38.881C8.68548 38.881 8.02705 39.5392 8.02705 40.3516V60.2829C8.02705 69.2688 12.8618 77.6435 20.6447 82.1388L37.2825 91.7429C38.1084 92.2192 39.0472 92.471 39.9976 92.471C40.948 92.471 41.8868 92.2192 42.7133 91.7425L59.351 82.1386C67.1337 77.6435 71.9684 69.2688 71.9684 60.2829V24.7025C71.9684 22.9665 70.6729 21.4953 68.9559 21.2806C55.7659 19.6216 47.089 14.6106 42.1308 10.6976C40.8749 9.70961 39.1206 9.70961 37.8631 10.699C32.9067 14.6106 24.2296 19.6216 11.041 21.2804C9.32293 21.4953 8.02724 22.9665 8.02724 24.7025V33.4888C8.02724 34.3012 8.68567 34.9594 9.49783 34.9594C10.31 34.9594 10.9684 34.3012 10.9684 33.4888V24.7025C10.9684 24.4465 11.1563 24.23 11.4068 24.1988C25.268 22.4553 34.4355 17.151 39.6835 13.0094C39.8682 12.8637 40.1267 12.8635 40.3104 13.008C45.56 17.151 54.7274 22.4555 68.59 24.199C68.8392 24.23 69.0272 24.4467 69.0272 24.7025V60.2829C69.0272 68.2218 64.7559 75.6206 57.8804 79.5918L41.2437 89.1953C40.4843 89.6333 39.511 89.6329 38.7527 89.1957L22.1157 79.592C15.24 75.6206 10.9684 68.222 10.9684 60.2829V40.3516C10.9682 39.5392 10.31 38.881 9.49763 38.881ZM25.3323 48.0524C24.488 47.208 23.3655 46.7431 22.1712 46.7431C20.9768 46.7431 19.8543 47.208 19.0104 48.0524C18.1653 48.8974 17.6998 50.0206 17.6998 51.2151C17.6998 52.4094 18.1651 53.532 19.0098 54.3761L30.8945 66.2608C31.7384 67.1063 32.8612 67.5714 34.0567 67.5714C35.2508 67.5714 36.3727 67.1063 37.2159 66.2618L60.9855 42.492C61.8308 41.6474 62.2961 40.5251 62.2961 39.3308C62.2961 38.1363 61.8306 37.0131 60.9855 36.168C60.1412 35.3237 59.0186 34.859 57.8243 34.859C56.6298 34.859 55.5072 35.3237 54.6631 36.1678L48.367 42.4639C47.7929 43.038 46.8618 43.038 46.2874 42.4639C45.7131 41.8896 45.7131 40.9586 46.2874 40.3841L52.5835 34.0882C53.9831 32.6888 55.8443 31.918 57.8243 31.918C59.8043 31.918 61.6655 32.6886 63.0651 34.0882C64.4657 35.4888 65.237 37.3506 65.237 39.3308C65.237 41.311 64.4655 43.1724 63.0645 44.5722L39.2965 68.3406C37.8986 69.7406 36.0374 70.5124 34.0567 70.5124C32.0745 70.5124 30.2127 69.7408 28.8139 68.3396L16.9306 56.4563C15.5302 55.0571 14.7586 53.1957 14.7586 51.2151C14.7586 49.2351 15.53 47.3733 16.9306 45.9725C18.3302 44.5731 20.1914 43.8022 22.1714 43.8022C24.1514 43.8022 26.0125 44.5729 27.4121 45.9727L34.0565 52.6153L41.4343 45.2373C42.0084 44.6631 42.9396 44.6631 43.5139 45.2373C44.0882 45.8116 44.0882 46.7425 43.5139 47.3171L35.0963 55.7347C34.5219 56.3088 33.5912 56.3092 33.0167 55.7347L25.3323 48.0524Z" fill="white"/>
</svg>
