<?xml version="1.0" encoding="UTF-8"?>
<svg width="15px" height="20px" viewBox="0 0 15 20" version="1.1" xmlns="http://www.w3.org/2000/svg" xmlns:xlink="http://www.w3.org/1999/xlink">
    <!-- Generator: Sketch 60 (88103) - https://sketch.com -->
    <title>Shape</title>
    <desc>Created with Sketch.</desc>
    <g id="Desktop" stroke="none" stroke-width="1" fill="none" fill-rule="evenodd">
        <g id="Главная-Томь-Лада" transform="translate(-265.000000, -748.000000)" fill="#F77620" fill-rule="nonzero">
            <g id="Group-28" transform="translate(222.000000, 371.000000)">
                <g id="Group-25" transform="translate(40.000000, 38.000000)">
                    <g id="Group-15">
                        <g id="Rectangle-2" transform="translate(0.000000, 64.000000)">
                            <g id="Group-23">
                                <g id="Group-9" transform="translate(0.000000, 271.000000)">
                                    <g id="Group-8" transform="translate(3.000000, 0.000000)">
                                        <g id="placeholder-filled-point" transform="translate(0.000000, 4.000000)">
                                            <path d="M7.47945205,0 C3.45428716,0 0.179198376,3.29346939 0.179198376,7.34163265 C0.179198376,8.39755102 0.394114663,9.40571429 0.817656012,10.3383673 C2.64292237,14.354898 6.14246575,18.5955102 7.17179097,19.7993878 C7.24890918,19.8893878 7.36133942,19.9412245 7.479655,19.9412245 C7.59797057,19.9412245 7.71040081,19.8893878 7.78751903,19.7993878 C8.81643836,18.5957143 12.3159817,14.3553061 14.1418569,10.3383673 C14.5656012,9.40571429 14.7803146,8.39755102 14.7803146,7.34163265 C14.7799087,3.29346939 11.5048199,0 7.47945205,0 Z M7.47945205,11.154898 C5.38853374,11.154898 3.68726535,9.44408163 3.68726535,7.34142857 C3.68726535,5.23857143 5.38853374,3.5277551 7.47945205,3.5277551 C9.57037037,3.5277551 11.2716388,5.23857143 11.2716388,7.34142857 C11.2718417,9.44408163 9.57057331,11.154898 7.47945205,11.154898 Z" id="Shape"></path>
                                        </g>
                                    </g>
                                </g>
                            </g>
                        </g>
                    </g>
                </g>
            </g>
        </g>
    </g>
</svg>