<svg width="30" height="18" viewBox="0 0 30 18" fill="none" xmlns="http://www.w3.org/2000/svg">
<path d="M29.8061 15.4809C29.7698 15.4027 29.736 15.3378 29.7045 15.2859C29.1846 14.3495 28.1911 13.2002 26.7246 11.8377L26.6937 11.8065L26.6781 11.7912L26.6625 11.7755H26.6467C25.9811 11.141 25.5597 10.7144 25.3832 10.496C25.0602 10.0799 24.9879 9.65876 25.1644 9.23203C25.2891 8.90963 25.7575 8.22875 26.5685 7.18848C26.9951 6.63717 27.333 6.19531 27.5825 5.86242C29.382 3.47007 30.1622 1.94132 29.9228 1.27559L29.8299 1.12001C29.7674 1.02635 29.6062 0.940667 29.3465 0.862525C29.0862 0.784547 28.7534 0.771651 28.3477 0.823618L23.8546 0.854656C23.7818 0.828864 23.6779 0.831268 23.5425 0.862525C23.4072 0.893782 23.3396 0.909465 23.3396 0.909465L23.2614 0.948536L23.1993 0.995476C23.1473 1.02651 23.0901 1.0811 23.0276 1.15914C22.9655 1.2369 22.9135 1.32815 22.872 1.43214C22.3828 2.69067 21.8266 3.86078 21.2024 4.94242C20.8175 5.58739 20.4641 6.14635 20.1413 6.61963C19.819 7.09274 19.5485 7.44132 19.3303 7.66477C19.1117 7.88843 18.9144 8.06761 18.7373 8.20296C18.5604 8.33837 18.4254 8.39559 18.3319 8.37466C18.2381 8.35373 18.1499 8.33296 18.0663 8.3122C17.9208 8.21854 17.8038 8.09116 17.7155 7.92996C17.6269 7.76875 17.5672 7.56586 17.536 7.32143C17.505 7.07684 17.4866 6.86646 17.4814 6.68957C17.4765 6.51291 17.4787 6.26302 17.4893 5.94061C17.5001 5.61804 17.505 5.39979 17.505 5.28537C17.505 4.89007 17.5127 4.46105 17.5281 3.99821C17.5439 3.53537 17.5566 3.16865 17.5673 2.89848C17.5779 2.62804 17.5828 2.34192 17.5828 2.04028C17.5828 1.73865 17.5644 1.50209 17.5281 1.33039C17.4923 1.15892 17.4373 0.99247 17.3648 0.831104C17.2918 0.669902 17.185 0.545203 17.0449 0.456678C16.9045 0.368263 16.73 0.298099 16.5223 0.245968C15.971 0.121214 15.269 0.0537273 14.4159 0.0432355C12.4814 0.0224705 11.2384 0.147389 10.6872 0.417826C10.4687 0.532088 10.2711 0.688208 10.0944 0.885695C9.9071 1.1146 9.88098 1.23952 10.0162 1.26007C10.6403 1.35356 11.0822 1.57722 11.3422 1.93083L11.436 2.11821C11.5089 2.2534 11.5816 2.49274 11.6545 2.83591C11.7272 3.17908 11.7742 3.5587 11.7948 3.97455C11.8467 4.73395 11.8467 5.384 11.7948 5.92477C11.7427 6.46575 11.6936 6.8869 11.6466 7.18854C11.5997 7.49018 11.5295 7.7346 11.436 7.92176C11.3422 8.10897 11.2799 8.2234 11.2486 8.26493C11.2174 8.30646 11.1914 8.33263 11.1708 8.34291C11.0356 8.39471 10.895 8.4211 10.7495 8.4211C10.6037 8.4211 10.427 8.34821 10.219 8.20253C10.0111 8.05684 9.7953 7.85673 9.57164 7.60187C9.34798 7.34695 9.09574 6.99072 8.81481 6.53313C8.5341 6.07553 8.24284 5.53471 7.9412 4.91067L7.69164 4.4581C7.53563 4.16695 7.32251 3.74302 7.05208 3.18668C6.78148 2.63012 6.54229 2.09176 6.33437 1.57171C6.25126 1.35329 6.12639 1.18701 5.96 1.07258L5.88191 1.02564C5.83 0.98411 5.74667 0.940012 5.63235 0.893017C5.51787 0.846077 5.39842 0.812416 5.2735 0.791705L0.998689 0.822744C0.561858 0.822744 0.265464 0.921705 0.109399 1.11936L0.0469399 1.21285C0.0157377 1.26493 0 1.3481 0 1.46258C0 1.57701 0.0312022 1.71744 0.0936612 1.88373C0.717705 3.35039 1.39634 4.76487 2.12956 6.12739C2.86279 7.4899 3.49995 8.58744 4.04066 9.41903C4.58148 10.2512 5.13273 11.0366 5.69443 11.7749C6.25612 12.5134 6.62792 12.9867 6.80984 13.1946C6.99197 13.4029 7.13503 13.5586 7.23902 13.6626L7.62913 14.037C7.87874 14.2867 8.2453 14.5857 8.72896 14.9341C9.21273 15.2826 9.74831 15.6258 10.336 15.9641C10.9237 16.3019 11.6075 16.5775 12.3877 16.7907C13.1677 17.0041 13.9269 17.0897 14.6655 17.0484H16.4597C16.8236 17.017 17.0992 16.9025 17.2866 16.705L17.3487 16.6268C17.3904 16.5648 17.4295 16.4683 17.4656 16.3385C17.5021 16.2085 17.5202 16.0653 17.5202 15.9095C17.5096 15.4624 17.5436 15.0594 17.6214 14.7006C17.6992 14.3419 17.7878 14.0714 17.8869 13.8893C17.986 13.7073 18.0978 13.5538 18.2222 13.4293C18.3469 13.3045 18.4358 13.229 18.4879 13.203C18.5397 13.1768 18.5811 13.159 18.6123 13.1484C18.8619 13.0652 19.1557 13.1457 19.494 13.3904C19.8321 13.6348 20.1492 13.9366 20.4458 14.2953C20.7423 14.6543 21.0985 15.0571 21.5144 15.5043C21.9307 15.9516 22.2946 16.2841 22.6065 16.5029L22.9184 16.6901C23.1267 16.815 23.3972 16.9294 23.7301 17.0334C24.0623 17.1373 24.3535 17.1633 24.6035 17.1114L28.5973 17.0491C28.9923 17.0491 29.2997 16.9837 29.5178 16.8539C29.7362 16.7239 29.866 16.5807 29.9079 16.4249C29.9496 16.2689 29.9519 16.092 29.9158 15.8942C29.8788 15.6968 29.8424 15.5589 29.8061 15.4809Z" fill="#8396A5"/>
</svg>
