<?xml version="1.0" encoding="UTF-8"?>
<svg width="20px" height="15px" viewBox="0 0 20 15" version="1.1" xmlns="http://www.w3.org/2000/svg" xmlns:xlink="http://www.w3.org/1999/xlink">
    <!-- Generator: Sketch 60 (88103) - https://sketch.com -->
    <title>Shape</title>
    <desc>Created with Sketch.</desc>
    <g id="Desktop" stroke="none" stroke-width="1" fill="none" fill-rule="evenodd">
        <g id="Главная-Томь-Лада" transform="translate(-262.000000, -832.000000)" fill="#F77620" fill-rule="nonzero">
            <g id="Group-28" transform="translate(222.000000, 371.000000)">
                <g id="Group-25" transform="translate(40.000000, 38.000000)">
                    <g id="Group-15">
                        <g id="Rectangle-2" transform="translate(0.000000, 64.000000)">
                            <g id="Group-23">
                                <g id="Group-9" transform="translate(0.000000, 271.000000)">
                                    <g id="Group-4" transform="translate(0.000000, 80.000000)">
                                        <g id="mail-black-envelope-symbol" transform="translate(0.000000, 8.000000)">
                                            <path d="M19.9675309,12.5064198 C19.9675309,12.9441564 19.8444033,13.3499588 19.6471605,13.7069959 L13.3425926,6.65308642 L19.5788066,1.19695473 C19.8213992,1.58193416 19.9675309,2.03415638 19.9675309,2.52283951 L19.9675309,12.5064198 Z M9.98378601,7.93386831 L18.6612757,0.34127572 C18.3051852,0.146337449 17.9041975,0.0267901235 17.4716461,0.0267901235 L2.49592593,0.0267901235 C2.06283951,0.0267901235 1.6617284,0.146337449 1.30707819,0.34127572 L9.98378601,7.93386831 Z M12.4030041,7.47452675 L10.3944033,9.23312757 C10.2769136,9.33547325 10.1306173,9.38658436 9.98378601,9.38658436 C9.83687243,9.38658436 9.69057613,9.33547325 9.57308642,9.23312757 L7.56403292,7.47444444 L1.17971193,14.6185185 C1.56238683,14.8586008 2.0108642,15.002428 2.49588477,15.002428 L17.4716461,15.002428 C17.9565844,15.002428 18.4052675,14.8586008 18.7878189,14.6185185 L12.4030041,7.47452675 Z M0.388806584,1.19691358 C0.146255144,1.581893 0,2.03411523 0,2.52283951 L0,12.5064609 C0,12.9441975 0.12255144,13.35 0.320534979,13.707037 L6.62436214,6.651893 L0.388806584,1.19691358 Z" id="Shape"></path>
                                        </g>
                                    </g>
                                </g>
                            </g>
                        </g>
                    </g>
                </g>
            </g>
        </g>
    </g>
</svg>