<?xml version="1.0" encoding="UTF-8"?>
<svg width="20px" height="20px" viewBox="0 0 20 20" version="1.1" xmlns="http://www.w3.org/2000/svg" xmlns:xlink="http://www.w3.org/1999/xlink">
    <!-- Generator: Sketch 60 (88103) - https://sketch.com -->
    <title>Combined Shape</title>
    <desc>Created with Sketch.</desc>
    <g id="Desktop" stroke="none" stroke-width="1" fill="none" fill-rule="evenodd">
        <g id="Главная-Томь-Лада" transform="translate(-262.000000, -787.000000)" fill="#F77620">
            <g id="Group-28" transform="translate(222.000000, 371.000000)">
                <g id="Group-25" transform="translate(40.000000, 38.000000)">
                    <g id="Group-15">
                        <g id="Rectangle-2" transform="translate(0.000000, 64.000000)">
                            <g id="Group-23">
                                <g id="Group-9" transform="translate(0.000000, 271.000000)">
                                    <g id="Group-6" transform="translate(0.000000, 40.000000)">
                                        <g id="telephone-(1)" transform="translate(0.000000, 3.000000)">
                                            <path d="M2.25588358,2.3991684 C2.90453222,1.75883576 3.71950104,1.75883576 4.37230769,2.3950104 C4.7756341,2.79002079 5.17064449,3.19334719 5.56981289,3.59251559 L5.56981289,3.59251559 L6.72989605,4.75675676 C7.41180873,5.44282744 7.41180873,6.24116424 6.73405405,6.92307692 C6.24756757,7.41372141 5.76523909,7.9043659 5.27043659,8.38253638 C5.14153846,8.51143451 5.12906445,8.61538462 5.19559252,8.77338877 C5.52407484,9.55509356 5.99392931,10.2494802 6.52199584,10.8981289 C7.58644491,12.2037422 8.78810811,13.3638254 10.2226195,14.2661123 C10.5303119,14.4573805 10.8712682,14.5987526 11.1914345,14.7733888 C11.3535967,14.8648649 11.4658628,14.8357588 11.5989189,14.6985447 C12.0854054,14.1995842 12.5802079,13.7089397 13.0750104,13.2182952 C13.723659,12.5738046 14.5386279,12.5738046 15.1914345,13.2182952 C15.9856133,14.008316 16.7797921,14.7983368 17.5698129,15.5925156 C18.2309356,16.2577963 18.2267775,17.0727651 17.5614969,17.7463617 C17.1124324,18.1995842 16.634262,18.6320166 16.2101455,19.1060291 C15.5906029,19.8004158 14.8172141,20.024948 13.9274012,19.975052 C12.634262,19.9043659 11.4450728,19.4760915 10.2974636,18.9189189 C7.74860707,17.6798337 5.56981289,15.962578 3.74444906,13.7920998 C2.39309771,12.1871102 1.2787526,10.4365904 0.546943867,8.46569647 C0.189355509,7.51351351 -0.0642827443,6.53638254 0.0147193347,5.5010395 C0.0646153846,4.86486486 0.301621622,4.32016632 0.771476091,3.87525988 C1.2787526,3.39293139 1.75692308,2.88981289 2.25588358,2.3991684 Z M10.1061954,3.99168399 C11.5947609,4.1995842 12.9461123,4.87318087 14.0147193,5.94178794 C15.0251143,6.95634096 15.690395,8.23284823 15.9315593,9.64241164 L15.9315593,9.64241164 L14.3972557,9.9043659 C14.2101455,8.81496881 13.698711,7.82536383 12.9170062,7.04365904 C12.0895634,6.21621622 11.0417464,5.6964657 9.88997921,5.53430353 L9.88997921,5.53430353 Z M10.3099376,-2.66453526e-14 C12.7839501,0.345114345 15.0251143,1.46361746 16.7964241,3.23492723 C18.4762578,4.91891892 19.5781289,7.03950104 19.9814553,9.37629938 L19.9814553,9.37629938 L18.4471518,9.63825364 C18.1020374,7.62162162 17.1498545,5.78794179 15.698711,4.33679834 C14.1685655,2.81081081 12.2309356,1.84199584 10.0937214,1.54261954 L10.0937214,1.54261954 Z" id="Combined-Shape"></path>
                                        </g>
                                    </g>
                                </g>
                            </g>
                        </g>
                    </g>
                </g>
            </g>
        </g>
    </g>
</svg>