<svg width="16" height="17" viewBox="0 0 16 17" fill="none" xmlns="http://www.w3.org/2000/svg">
<path d="M8.02021 0.613681C5.94395 0.608072 3.94729 1.41221 2.45447 2.85523V0.613645C2.45447 0.274733 2.17974 0 1.84083 0C1.50191 0 1.22722 0.274733 1.22722 0.613645V4.29544C1.22715 4.55968 1.39624 4.79428 1.64696 4.87777L5.32875 6.10502C5.6507 6.21213 5.99853 6.03793 6.1056 5.71599C6.21271 5.39405 6.03851 5.04622 5.71657 4.93915L2.99818 4.03466C5.50932 1.3001 9.76183 1.11896 12.4964 3.63009C15.231 6.14123 15.4121 10.3937 12.901 13.1283C10.3898 15.8629 6.13731 16.044 3.40275 13.5329C1.72624 11.9933 0.942634 9.71002 1.32052 7.46546C1.37996 7.13179 1.15768 6.81316 0.824054 6.75369C0.490427 6.69422 0.171757 6.91653 0.112288 7.25016C0.11164 7.25379 0.111029 7.25746 0.110454 7.26109C0.0369978 7.70053 3.59551e-05 8.14529 0 8.59081C0.00499775 12.9944 3.57357 16.563 7.97717 16.5681C12.3828 16.58 15.964 13.0181 15.9759 8.61242C15.9878 4.20674 12.4259 0.625582 8.02021 0.613681Z" fill="#8396A5"/>
</svg>
