<?xml version="1.0" encoding="UTF-8"?>
<svg width="20px" height="20px" viewBox="0 0 20 20" version="1.1" xmlns="http://www.w3.org/2000/svg" xmlns:xlink="http://www.w3.org/1999/xlink">
    <!-- Generator: Sketch 60 (88103) - https://sketch.com -->
    <title>Combined Shape</title>
    <desc>Created with Sketch.</desc>
    <g id="Desktop" stroke="none" stroke-width="1" fill="none" fill-rule="evenodd">
        <g id="Главная-Томь-Лада" transform="translate(-262.000000, -869.000000)" fill="#F77620" fill-rule="nonzero">
            <g id="Group-28" transform="translate(222.000000, 371.000000)">
                <g id="Group-25" transform="translate(40.000000, 38.000000)">
                    <g id="Group-15">
                        <g id="Rectangle-2" transform="translate(0.000000, 64.000000)">
                            <g id="Group-23">
                                <g id="Group-9" transform="translate(0.000000, 271.000000)">
                                    <g id="Group-6" transform="translate(0.000000, 121.000000)">
                                        <g id="clock-(1)" transform="translate(0.000000, 4.000000)">
                                            <path d="M10,0 C15.5273438,0 20,4.47316406 20,10 C20,15.5275391 15.5266406,20 10,20 C4.47265625,20 0,15.5268359 0,10 C0,4.47246094 4.47335938,0 10,0 Z M10,2.35351562 C5.78371094,2.35351562 2.35351562,5.78375 2.35351562,10 C2.35351562,14.21625 5.78371094,17.6464844 10,17.6464844 C14.2162891,17.6464844 17.6464844,14.21625 17.6464844,10 C17.6464844,5.78375 14.2162891,2.35351562 10,2.35351562 Z M10.5859375,3.5521875 C11.931875,3.67351563 13.1603516,4.20820313 14.1429297,5.0284375 L14.1429297,5.0284375 L13.2166406,5.95472656 L14.0452734,6.78335938 L14.9715625,5.85707031 C15.7917578,6.8396875 16.3264844,8.06808594 16.4478125,9.4140625 L16.4478125,9.4140625 L15.1349609,9.4140625 L15.1349609,10.5859375 L16.4478125,10.5859375 C16.3264844,11.9319141 15.7917578,13.1603516 14.9715625,14.1429297 L14.9715625,14.1429297 L14.0452734,13.2166406 L13.2166406,14.0452734 L14.1429297,14.9715625 C13.1603516,15.7917969 11.931875,16.3264844 10.5859375,16.4478516 L10.5859375,16.4478516 L10.5859375,15.135 L9.4140625,15.135 L9.4140625,16.4478516 C8.068125,16.3264844 6.83964844,15.7917969 5.85707031,14.9715625 L5.85707031,14.9715625 L6.78335937,14.0452734 L5.95472656,13.2166406 L5.0284375,14.1429297 C4.20824219,13.1603125 3.67351562,11.9319141 3.5521875,10.5859375 L3.5521875,10.5859375 L4.86503906,10.5859375 L4.86503906,9.4140625 L3.5521875,9.4140625 C3.67351562,8.06808594 4.20824219,6.8396875 5.0284375,5.85710938 L5.0284375,5.85710938 L5.95472656,6.78339844 L6.78335937,5.95476563 L5.85707031,5.02847656 C6.83964844,4.20824219 8.06808594,3.67351563 9.4140625,3.5521875 L9.4140625,3.5521875 L9.4140625,4.86503906 L10.5859375,4.86503906 Z M10.5859375,6.790625 L9.4140625,6.790625 L9.4140625,10.3135547 L11.6005859,11.7712891 L12.250625,10.7962109 L10.5859375,9.68640625 L10.5859375,6.790625 Z" id="Combined-Shape"></path>
                                        </g>
                                    </g>
                                </g>
                            </g>
                        </g>
                    </g>
                </g>
            </g>
        </g>
    </g>
</svg>