<?xml version="1.0" encoding="UTF-8"?>
<svg width="266px" height="64px" viewBox="0 0 266 64" version="1.1" xmlns="http://www.w3.org/2000/svg" xmlns:xlink="http://www.w3.org/1999/xlink">
    <!-- Generator: Sketch 60 (88103) - https://sketch.com -->
    <title>Group 3</title>
    <desc>Created with Sketch.</desc>
    <g id="Page-1" stroke="none" stroke-width="1" fill="none" fill-rule="evenodd">
        <g id="Group-2" transform="translate(-54.000000, -93.000000)" fill-rule="nonzero">
            <g id="logo-full" transform="translate(54.000000, 70.000000)">
                <g id="Group-3" transform="translate(0.000000, 23.000000)">
                    <polygon id="Path" fill="#F77719" points="0 48 265 48 265 50 0 50"></polygon>
                    <g id="Group" transform="translate(0.000000, 5.000000)">
                        <path d="M132.036357,0.00874285714 L156.273697,0.00874285714 L156.273697,29.7577714 L160.240822,29.7577714 L160.240822,45.8650286 L149.925719,45.8650286 L149.925719,39.9155143 L134.7772,39.9155143 L134.7772,45.8650286 L124.462097,45.8650286 L124.462097,29.7577714 L128.069232,29.7577714 L132.036357,0.00874285714 L132.036357,0.00874285714 Z M137.518768,29.7577714 L145.958595,29.7577714 L145.958595,10.1672143 L140.332043,10.1672143 L137.518768,29.7577714 Z M161.598205,0.00874285714 L190.957243,0.00874285714 L190.957243,28.3785857 L171.913308,28.3785857 L171.913308,39.9155143 L161.598205,39.9155143 L161.598205,0.00874285714 L161.598205,0.00874285714 Z M171.913308,10.1672143 L171.913308,18.9465 L180.641416,18.9465 L180.641416,10.1672143 L171.913308,10.1672143 Z M194.838897,0.00874285714 L224.413784,0.00874285714 L224.413784,39.9155143 L194.838897,39.9155143 L194.838897,0.00874285714 L194.838897,0.00874285714 Z M205.154,10.1672143 L205.154,29.7577714 L214.098681,29.7577714 L214.098681,10.1672143 L205.154,10.1672143 L205.154,10.1672143 Z M228.656876,0.00874285714 L238.971978,0.00874285714 L247.051092,15.6089143 L255.130205,0.00874285714 L265.445308,0.00874285714 L265.445308,39.9155143 L255.130205,39.9155143 L255.130205,15.4639286 L247.051092,30.9183857 L238.971978,15.4639286 L238.971978,39.9155143 L228.656876,39.9155143 L228.656876,10.1672143 L228.656876,0.00874285714 L228.656876,0.00874285714 Z" id="Shape" fill="#FFFFFF"></path>
                        <path d="M4.90947027,0.00874285714 L26.1169622,0.00874285714 L31.0220865,39.9155143 L20.9235568,39.9155143 L20.1296973,31.2812143 L10.8967351,31.2812143 L10.1028757,39.9155143 L0.00434594595,39.9155143 L4.90947027,0.00874285714 L4.90947027,0.00874285714 Z M11.9064432,21.1227429 L19.1199892,21.1227429 L18.1102811,10.1672143 L12.9161514,10.1672143 L11.9064432,21.1227429 Z M32.0173081,0.00874285714 L61.5921946,0.00874285714 L61.5921946,15.9717429 L56.7595027,19.9621286 L61.5921946,23.9525143 L61.5921946,39.9155143 L32.0173081,39.9155143 L32.0173081,10.1672143 L32.0173081,0.00874285714 L32.0173081,0.00874285714 Z M51.4936649,8.7159 L42.1158378,8.7159 L42.1158378,15.9717429 L48.7520973,15.9717429 L51.4936649,13.0691143 L51.4936649,8.7159 L51.4936649,8.7159 Z M42.1158378,23.9525143 L42.1158378,31.2083571 L51.4936649,31.2083571 L51.4936649,26.8551429 L48.7520973,23.9525143 L42.1158378,23.9525143 L42.1158378,23.9525143 Z M62.5157081,0.00874285714 L91.8747459,0.00874285714 L91.8747459,10.1672143 L82.3527784,10.1672143 L82.3527784,39.9155143 L72.0376757,39.9155143 L72.0376757,10.1672143 L62.5157081,10.1672143 L62.5157081,0.00874285714 L62.5157081,0.00874285714 Z M93.0865405,0.00874285714 L122.661427,0.00874285714 L122.661427,39.9155143 L93.0865405,39.9155143 L93.0865405,0.00874285714 L93.0865405,0.00874285714 Z M103.401643,10.1672143 L103.401643,29.7577714 L112.346324,29.7577714 L112.346324,10.1672143 L103.401643,10.1672143 L103.401643,10.1672143 Z" id="Shape" fill="#F77719"></path>
                    </g>
                    <path d="M5.97830973,55.1808803 L3.73626242,55.1808803 L0,63.8198074 L2.21451085,63.8198074 L2.89422655,62.105227 L6.79280914,62.105227 L7.48629307,63.8198074 L9.74138396,63.8198074 L5.97830973,55.1808803 L5.97830973,55.1808803 Z M3.55944938,60.4030261 L4.78264778,57.1148556 L4.91815614,57.1148556 L6.12758631,60.4030261 L3.55944938,60.4030261 Z M18.2588449,55.1808803 L14.2370729,55.1808803 L14.2370729,63.8198074 L18.6392828,63.8198074 C19.2233455,63.8198074 19.7262482,63.7551582 20.1472661,63.6134801 C20.568284,63.4718019 20.9211855,63.2909216 21.1929268,63.0591472 C21.4784364,62.826685 21.6820613,62.5563961 21.8182943,62.2469051 C21.9400344,61.9243466 22.0081509,61.5894085 22.0081509,61.2407153 C22.0081509,60.764099 21.8726425,60.3514443 21.6009012,60.0034388 C21.3429281,59.6423659 20.989302,59.3968363 20.5407476,59.2551582 L20.5407476,59.1389271 C20.8124889,58.997249 21.029882,58.7909216 21.1929268,58.5075653 C21.3429281,58.2235213 21.4240881,57.9016506 21.4240881,57.5405777 C21.4240881,56.8053645 21.1523468,56.2379642 20.5950959,55.8122421 C20.0516131,55.3872077 19.2776938,55.1808803 18.2588449,55.1808803 L18.2588449,55.1808803 L18.2588449,55.1808803 Z M16.2617271,62.1691884 L16.2617271,60.1581843 L18.6523264,60.1581843 C19.0871125,60.1581843 19.4269704,60.2352132 19.6581317,60.4160935 C19.889293,60.5708391 20.0110331,60.8280605 20.0110331,61.150619 C20.0110331,61.8342503 19.5632034,62.1691884 18.6660946,62.1691884 L16.2617271,62.1691884 L16.2617271,62.1691884 Z M16.2617271,58.5845942 L16.2617271,56.8314993 L18.2718885,56.8314993 C19.0465325,56.8314993 19.4407386,57.1148556 19.4407386,57.6953232 C19.4407386,57.9656121 19.3458103,58.1850069 19.155229,58.3528198 C18.9516042,58.5075653 18.6798628,58.5845942 18.340005,58.5845942 L16.2617271,58.5845942 L16.2617271,58.5845942 Z M33.9495528,55.1808803 L25.7031086,55.1808803 L25.7031086,56.934663 L28.8140036,56.934663 L28.8140036,63.8198074 L30.8386578,63.8198074 L30.8386578,56.934663 L33.9495528,56.934663 L33.9495528,55.1808803 L33.9495528,55.1808803 Z M42.521362,55 C41.8155591,55 41.1633799,55.1162311 40.5785925,55.3610729 C39.9945298,55.5935351 39.4785835,55.9154058 39.0575656,56.3156809 C38.6227794,56.7152682 38.2829216,57.1925722 38.0517603,57.7469051 C37.8213236,58.301238 37.6988588,58.8817056 37.6988588,59.5 C37.6988588,60.1320495 37.8213236,60.7248968 38.0517603,61.2799175 C38.2829216,61.8342503 38.6227794,62.3108666 39.0575656,62.7111417 C39.4785835,63.110729 39.9945298,63.4332875 40.5785925,63.6650619 C41.1633799,63.8844567 41.8155591,64 42.521362,64 C43.2416577,64 43.893837,63.8844567 44.491668,63.6396149 C45.0757307,63.4071527 45.591677,63.0845942 46.0134195,62.6850069 C46.4344375,62.2723521 46.7742953,61.7957359 47.004732,61.2407153 C47.2358933,60.6994498 47.3583581,60.1189821 47.3583581,59.5 C47.3583581,58.8555708 47.2358933,58.2627235 47.004732,57.7077029 C46.7742953,57.1664374 46.4482057,56.6891334 46.0134195,56.2895461 C45.6054452,55.8899587 45.0894989,55.5674003 44.491668,55.3356259 C43.893837,55.1162311 43.2416577,55 42.521362,55 Z M42.521362,56.7283356 C42.9561482,56.7283356 43.3503543,56.7922971 43.7039804,56.934663 C44.0431136,57.0763411 44.3423914,57.2696011 44.572828,57.5144429 C44.8177576,57.7592847 45.0076142,58.0563961 45.130079,58.4044017 C45.2525437,58.7393398 45.3206602,59.1004127 45.3206602,59.5 C45.3206602,59.8741403 45.2525437,60.2352132 45.1438472,60.5708391 C45.0076142,60.9057772 44.8315258,61.2022008 44.6003645,61.4470426 C44.355435,61.7049519 44.0568818,61.9112792 43.7039804,62.0536451 C43.3641225,62.1953232 42.9699164,62.2723521 42.521362,62.2723521 C42.0873005,62.2723521 41.6930944,62.1953232 41.3532365,62.0660248 C41.0133787,61.9112792 40.7148255,61.7180193 40.469896,61.4731774 C40.2256911,61.2283356 40.0358344,60.9312242 39.9133697,60.5962861 C39.7909049,60.2482806 39.7227884,59.8872077 39.7227884,59.5 C39.7227884,59.1134801 39.7909049,58.7524072 39.9133697,58.4174691 C40.0358344,58.0818432 40.2256911,57.7854195 40.469896,57.5405777 C40.7010573,57.2957359 41.0003351,57.0894085 41.3394683,56.9470426 C41.6930944,56.8053645 42.0873005,56.7283356 42.521362,56.7283356 L42.521362,56.7283356 Z M54.218559,55.1808803 L51.99028,55.1808803 L51.99028,63.8198074 L53.9743542,63.8198074 L53.9743542,58.1203576 L54.0960943,58.1203576 L56.2019086,61.4085282 L57.2620622,61.4085282 L59.3678765,58.1203576 L59.4896166,58.1203576 L59.4896166,63.8198074 L61.4867344,63.8198074 L61.4867344,55.1808803 L59.29976,55.1808803 L56.7729278,59.1004127 L54.218559,55.1808803 L54.218559,55.1808803 Z M70.9549277,55 C70.2491248,55 69.5969456,55.1162311 69.0121582,55.3610729 C68.4280955,55.5935351 67.9121492,55.9154058 67.4911313,56.3156809 C67.0563451,56.7152682 66.7164873,57.1925722 66.485326,57.7469051 C66.2548893,58.301238 66.1324245,58.8817056 66.1324245,59.5 C66.1324245,60.1320495 66.2548893,60.7248968 66.485326,61.2799175 C66.7164873,61.8342503 67.0563451,62.3108666 67.4911313,62.7111417 C67.9121492,63.110729 68.4280955,63.4332875 69.0121582,63.6650619 C69.5969456,63.8844567 70.2491248,64 70.9549277,64 C71.6752235,64 72.3274027,63.8844567 72.9252337,63.6396149 C73.5092964,63.4071527 74.0252427,63.0845942 74.4469852,62.6850069 C74.8680032,62.2723521 75.207861,61.7957359 75.4382977,61.2407153 C75.669459,60.6994498 75.7919238,60.1189821 75.7919238,59.5 C75.7919238,58.8555708 75.669459,58.2627235 75.4382977,57.7077029 C75.207861,57.1664374 74.8817714,56.6891334 74.4469852,56.2895461 C74.0390109,55.8899587 73.5230646,55.5674003 72.9252337,55.3356259 C72.3274027,55.1162311 71.6752235,55 70.9549277,55 Z M70.9549277,56.7283356 C71.3897139,56.7283356 71.78392,56.7922971 72.1375461,56.934663 C72.4766793,57.0763411 72.7759571,57.2696011 73.0063938,57.5144429 C73.2513233,57.7592847 73.4411799,58.0563961 73.5636447,58.4044017 C73.6861095,58.7393398 73.754226,59.1004127 73.754226,59.5 C73.754226,59.8741403 73.6861095,60.2352132 73.5774129,60.5708391 C73.4411799,60.9057772 73.2650915,61.2022008 73.0339302,61.4470426 C72.7890007,61.7049519 72.4904475,61.9112792 72.1375461,62.0536451 C71.7976882,62.1953232 71.4034821,62.2723521 70.9549277,62.2723521 C70.5208662,62.2723521 70.1266601,62.1953232 69.7868022,62.0660248 C69.4469444,61.9112792 69.1483912,61.7180193 68.9034617,61.4731774 C68.6592568,61.2283356 68.4694002,60.9312242 68.3469354,60.5962861 C68.2244706,60.2482806 68.1563541,59.8872077 68.1563541,59.5 C68.1563541,59.1134801 68.2244706,58.7524072 68.3469354,58.4174691 C68.4694002,58.0818432 68.6592568,57.7854195 68.9034617,57.5405777 C69.134623,57.2957359 69.4339008,57.0894085 69.773034,56.9470426 C70.1266601,56.8053645 70.5208662,56.7283356 70.9549277,56.7283356 L70.9549277,56.7283356 Z M87.2441913,55.1808803 L80.4238457,55.1808803 L80.4238457,63.8198074 L84.540546,63.8198074 C85.0564922,63.8198074 85.5325831,63.7551582 85.9673692,63.6396149 C86.4014308,63.5103164 86.7818687,63.3301238 87.0949147,63.0976616 C87.4072361,62.8528198 87.651441,62.5563961 87.8420222,62.2207703 C88.0050671,61.8596974 88.0999954,61.4731774 88.0999954,61.0220083 C88.0999954,60.5577717 88.0050671,60.1581843 87.8420222,59.7971114 C87.651441,59.4614856 87.4072361,59.1650619 87.1079583,58.9456671 C86.7818687,58.7138927 86.415199,58.5460798 85.9673692,58.4298487 C85.5325831,58.3143054 85.0564922,58.2627235 84.540546,58.2627235 L82.4484999,58.2627235 L82.4484999,56.9215956 L87.2441913,56.9215956 L87.2441913,55.1808803 L87.2441913,55.1808803 Z M82.4484999,62.0921596 L82.4484999,59.9518569 L84.5948943,59.9518569 C85.0564922,59.9518569 85.4101183,60.0419532 85.6680914,60.2352132 C85.9260646,60.4160935 86.0485293,60.673315 86.0485293,61.0220083 C86.0485293,61.343879 85.9260646,61.6017882 85.6680914,61.8081155 C85.4238865,61.9889959 85.0434486,62.0921596 84.540546,62.0921596 L82.4484999,62.0921596 Z M94.6746868,55.1808803 L92.6638008,55.1808803 L92.6638008,63.8198074 L94.6609186,63.8198074 L98.8457354,58.3913343 L98.8457354,63.8198074 L100.869665,63.8198074 L100.869665,55.1808803 L99.076172,55.1808803 L94.6746868,60.9312242 L94.6746868,55.1808803 Z M114.35963,55.1808803 L107.512473,55.1808803 L107.512473,56.7922971 C107.512473,57.5013755 107.512473,58.1203576 107.498705,58.6492435 C107.484936,59.1781293 107.458125,59.6423659 107.430588,60.0288858 C107.37624,60.4284732 107.321892,60.764099 107.253775,61.0343879 C107.186383,61.3053645 107.077687,61.5378267 106.955222,61.7310867 C106.860294,61.8988996 106.737829,62.0144429 106.615364,62.0660248 C106.479856,62.1437414 106.316811,62.1691884 106.139998,62.1691884 C106.04507,62.1691884 105.936373,62.1568088 105.813908,62.1437414 C105.691443,62.1176066 105.582747,62.0790922 105.47405,62.0405777 L105.012452,63.7035763 C105.229846,63.7943604 105.447239,63.8713893 105.664632,63.9099037 C105.895793,63.9484182 106.153766,63.974553 106.439276,63.974553 C106.900874,63.974553 107.308123,63.8968363 107.647981,63.7682256 C107.987839,63.6265475 108.286392,63.4071527 108.517554,63.1361761 C108.761758,62.8397524 108.95234,62.4917469 109.087848,62.0921596 C109.237849,61.6795048 109.332778,61.2152682 109.413938,60.6994498 C109.468286,60.170564 109.522634,59.590784 109.522634,58.9718019 C109.550171,58.326685 109.550171,57.6437414 109.550171,56.9085282 L112.321208,56.9085282 L112.321208,63.8198074 L114.35963,63.8198074 L114.35963,55.1808803 L114.35963,55.1808803 Z M121.409688,55.1808803 L119.398802,55.1808803 L119.398802,63.8198074 L121.39592,63.8198074 L125.580736,58.3913343 L125.580736,63.8198074 L127.604666,63.8198074 L127.604666,55.1808803 L125.811173,55.1808803 L121.409688,60.9312242 L121.409688,55.1808803 Z M151.109206,57.5921596 L152.236751,56.1863824 C151.774429,55.7998624 151.244714,55.5034388 150.660652,55.3094911 C150.076589,55.1031637 149.42441,55 148.717882,55 C147.943238,55 147.236711,55.1162311 146.625836,55.3610729 C146.014237,55.5935351 145.484522,55.9154058 145.049736,56.3280605 C144.61495,56.7407153 144.275092,57.2180193 144.057699,57.7723521 C143.813494,58.326685 143.704798,58.9071527 143.704798,59.5261348 C143.704798,60.2097662 143.827262,60.8156809 144.057699,61.3700138 C144.28886,61.9243466 144.628718,62.3885832 145.035968,62.7881706 C145.470754,63.1753783 145.973657,63.4718019 146.557719,63.6911967 C147.141782,63.8968363 147.793961,64 148.500489,64 C150.076589,64 151.380947,63.5364512 152.41284,62.607978 L151.258483,61.2537827 C150.904856,61.5763411 150.497607,61.8081155 150.062821,61.9889959 C149.601223,62.1437414 149.125132,62.2338377 148.609186,62.2338377 C148.188168,62.2338377 147.793961,62.1691884 147.44106,62.0405777 C147.087434,61.8988996 146.788881,61.7180193 146.530183,61.4731774 C146.27221,61.2407153 146.082353,60.957359 145.933077,60.6217331 C145.796844,60.286795 145.728727,59.9126547 145.728727,59.5 C145.728727,59.1004127 145.796844,58.7393398 145.933077,58.4044017 C146.068585,58.0687758 146.259166,57.7854195 146.517139,57.5275103 C146.775113,57.2826685 147.073666,57.1017882 147.427292,56.96011 C147.793961,56.8314993 148.188168,56.7668501 148.635997,56.7668501 C149.1389,56.7668501 149.601223,56.8314993 150.008472,56.9862448 C150.42949,57.1148556 150.79616,57.3211829 151.109206,57.5921596 L151.109206,57.5921596 Z M176.420282,55.1808803 L168.458623,55.1808803 L168.458623,63.8198074 L170.510089,63.8198074 L170.510089,56.9731774 L174.368816,56.9731774 L174.368816,63.8198074 L176.420282,63.8198074 L176.420282,55.1808803 L176.420282,55.1808803 Z M185.521806,55.1808803 L181.473222,55.1808803 L181.473222,63.8198074 L183.511645,63.8198074 L183.511645,61.46011 L185.358761,61.46011 C185.888476,61.46011 186.391378,61.3954608 186.853701,61.2407153 C187.315299,61.1121045 187.722549,60.9057772 188.048638,60.6217331 C188.402264,60.3645117 188.660237,60.0288858 188.863862,59.6423659 C189.054444,59.2420908 189.149372,58.803989 189.149372,58.301238 C189.149372,57.823934 189.067487,57.3982118 188.891399,57.0116919 C188.714586,56.6375516 188.470381,56.3156809 188.157335,56.0316369 C187.831245,55.7737276 187.450807,55.5550206 187.002978,55.4126547 C186.554423,55.2579092 186.065289,55.1808803 185.521806,55.1808803 L185.521806,55.1808803 Z M183.511645,59.7455296 L183.511645,56.9085282 L185.440646,56.9085282 C185.997172,56.9085282 186.405147,57.0378267 186.690656,57.2957359 C186.962398,57.5405777 187.097906,57.8885832 187.097906,58.3143054 C187.097906,58.7524072 186.948629,59.1004127 186.636308,59.3583219 C186.323262,59.6162311 185.902244,59.7455296 185.358761,59.7455296 L183.511645,59.7455296 L183.511645,59.7455296 Z M198.196547,55 C197.490744,55 196.838565,55.1162311 196.253778,55.3610729 C195.669715,55.5935351 195.153769,55.9154058 194.732751,56.3156809 C194.297965,56.7152682 193.958107,57.1925722 193.726946,57.7469051 C193.496509,58.301238 193.374044,58.8817056 193.374044,59.5 C193.374044,60.1320495 193.496509,60.7248968 193.726946,61.2799175 C193.958107,61.8342503 194.297965,62.3108666 194.732751,62.7111417 C195.153769,63.110729 195.669715,63.4332875 196.253778,63.6650619 C196.838565,63.8844567 197.490744,64 198.196547,64 C198.916843,64 199.569022,63.8844567 200.166853,63.6396149 C200.750916,63.4071527 201.266862,63.0845942 201.688605,62.6850069 C202.109623,62.2723521 202.449481,61.7957359 202.679917,61.2407153 C202.911079,60.6994498 203.033543,60.1189821 203.033543,59.5 C203.033543,58.8555708 202.911079,58.2627235 202.679917,57.7077029 C202.449481,57.1664374 202.123391,56.6891334 201.688605,56.2895461 C201.28063,55.8899587 200.764684,55.5674003 200.166853,55.3356259 C199.569022,55.1162311 198.916843,55 198.196547,55 Z M198.196547,56.7283356 C198.631333,56.7283356 199.02554,56.7922971 199.379166,56.934663 C199.718299,57.0763411 200.017577,57.2696011 200.248013,57.5144429 C200.492943,57.7592847 200.6828,58.0563961 200.805264,58.4044017 C200.927729,58.7393398 200.995846,59.1004127 200.995846,59.5 C200.995846,59.8741403 200.927729,60.2352132 200.819033,60.5708391 C200.6828,60.9057772 200.506711,61.2022008 200.27555,61.4470426 C200.03062,61.7049519 199.732067,61.9112792 199.379166,62.0536451 C199.039308,62.1953232 198.645102,62.2723521 198.196547,62.2723521 C197.762486,62.2723521 197.36828,62.1953232 197.028422,62.0660248 C196.688564,61.9112792 196.390011,61.7180193 196.145081,61.4731774 C195.900876,61.2283356 195.71102,60.9312242 195.588555,60.5962861 C195.46609,60.2482806 195.397974,59.8872077 195.397974,59.5 C195.397974,59.1134801 195.46609,58.7524072 195.588555,58.4174691 C195.71102,58.0818432 195.900876,57.7854195 196.145081,57.5405777 C196.376243,57.2957359 196.67552,57.0894085 197.014654,56.9470426 C197.36828,56.8053645 197.762486,56.7283356 198.196547,56.7283356 L198.196547,56.7283356 Z M214.485811,55.1808803 L207.665465,55.1808803 L207.665465,63.8198074 L211.782166,63.8198074 C212.298112,63.8198074 212.774203,63.7551582 213.208989,63.6396149 C213.64305,63.5103164 214.023488,63.3301238 214.336534,63.0976616 C214.648856,62.8528198 214.893061,62.5563961 215.083642,62.2207703 C215.246687,61.8596974 215.341615,61.4731774 215.341615,61.0220083 C215.341615,60.5577717 215.246687,60.1581843 215.083642,59.7971114 C214.893061,59.4614856 214.648856,59.1650619 214.349578,58.9456671 C214.023488,58.7138927 213.656819,58.5460798 213.208989,58.4298487 C212.774203,58.3143054 212.298112,58.2627235 211.782166,58.2627235 L209.69012,58.2627235 L209.69012,56.9215956 L214.485811,56.9215956 L214.485811,55.1808803 L214.485811,55.1808803 Z M209.69012,62.0921596 L209.69012,59.9518569 L211.836514,59.9518569 C212.298112,59.9518569 212.651738,60.0419532 212.909711,60.2352132 C213.167684,60.4160935 213.290149,60.673315 213.290149,61.0220083 C213.290149,61.343879 213.167684,61.6017882 212.909711,61.8081155 C212.665506,61.9889959 212.285068,62.0921596 211.782166,62.0921596 L209.69012,62.0921596 Z M226.711998,55.1808803 L219.90542,55.1808803 L219.90542,63.8198074 L226.943159,63.8198074 L226.943159,62.0790922 L221.916306,62.0790922 L221.916306,60.2352132 L226.196052,60.2352132 L226.196052,58.5460798 L221.916306,58.5460798 L221.916306,56.9215956 L226.711998,56.9215956 L226.711998,55.1808803 L226.711998,55.1808803 Z M238.544703,55.1808803 L231.656241,55.1808803 L231.656241,63.8198074 L233.694664,63.8198074 L233.694664,56.934663 L238.544703,56.934663 L238.544703,55.1808803 Z M247.034628,55 C246.328825,55 245.676645,55.1162311 245.091858,55.3610729 C244.507795,55.5935351 243.991849,55.9154058 243.570831,56.3156809 C243.136045,56.7152682 242.796187,57.1925722 242.565026,57.7469051 C242.334589,58.301238 242.212124,58.8817056 242.212124,59.5 C242.212124,60.1320495 242.334589,60.7248968 242.565026,61.2799175 C242.796187,61.8342503 243.136045,62.3108666 243.570831,62.7111417 C243.991849,63.110729 244.507795,63.4332875 245.091858,63.6650619 C245.676645,63.8844567 246.328825,64 247.034628,64 C247.754923,64 248.407103,63.8844567 249.004934,63.6396149 C249.588996,63.4071527 250.104943,63.0845942 250.526685,62.6850069 C250.947703,62.2723521 251.287561,61.7957359 251.517998,61.2407153 C251.749159,60.6994498 251.871624,60.1189821 251.871624,59.5 C251.871624,58.8555708 251.749159,58.2627235 251.517998,57.7077029 C251.287561,57.1664374 250.961471,56.6891334 250.526685,56.2895461 C250.118711,55.8899587 249.602765,55.5674003 249.004934,55.3356259 C248.407103,55.1162311 247.754923,55 247.034628,55 Z M247.034628,56.7283356 C247.469414,56.7283356 247.86362,56.7922971 248.217246,56.934663 C248.556379,57.0763411 248.855657,57.2696011 249.086094,57.5144429 C249.331023,57.7592847 249.52088,58.0563961 249.643345,58.4044017 C249.765809,58.7393398 249.833926,59.1004127 249.833926,59.5 C249.833926,59.8741403 249.765809,60.2352132 249.657113,60.5708391 C249.52088,60.9057772 249.344791,61.2022008 249.11363,61.4470426 C248.868701,61.7049519 248.570147,61.9112792 248.217246,62.0536451 C247.877388,62.1953232 247.483182,62.2723521 247.034628,62.2723521 C246.600566,62.2723521 246.20636,62.1953232 245.866502,62.0660248 C245.526644,61.9112792 245.228091,61.7180193 244.983162,61.4731774 C244.738957,61.2283356 244.5491,60.9312242 244.426635,60.5962861 C244.304171,60.2482806 244.236054,59.8872077 244.236054,59.5 C244.236054,59.1134801 244.304171,58.7524072 244.426635,58.4174691 C244.5491,58.0818432 244.738957,57.7854195 244.983162,57.5405777 C245.214323,57.2957359 245.513601,57.0894085 245.852734,56.9470426 C246.20636,56.8053645 246.600566,56.7283356 247.034628,56.7283356 L247.034628,56.7283356 Z M258.731825,55.1808803 L256.503546,55.1808803 L256.503546,63.8198074 L258.48762,63.8198074 L258.48762,58.1203576 L258.60936,58.1203576 L260.715174,61.4085282 L261.775328,61.4085282 L263.881142,58.1203576 L264.002882,58.1203576 L264.002882,63.8198074 L266,63.8198074 L266,55.1808803 L263.813026,55.1808803 L261.286193,59.1004127 L258.731825,55.1808803 L258.731825,55.1808803 Z" id="Shape" fill="#FFFFFF"></path>
                    <polygon id="Path" fill="#FFFFFF" points="0 0 265 0 265 2 0 2"></polygon>
                </g>
            </g>
        </g>
    </g>
</svg>