<?xml version="1.0" encoding="UTF-8"?>
<svg width="16px" height="12px" viewBox="0 0 16 12" version="1.1" xmlns="http://www.w3.org/2000/svg" xmlns:xlink="http://www.w3.org/1999/xlink">
    <!-- Generator: Sketch 60 (88103) - https://sketch.com -->
    <title>Shape</title>
    <desc>Created with Sketch.</desc>
    <g id="Page-1" stroke="none" stroke-width="1" fill="none" fill-rule="evenodd">
        <g id="avtodrom_END" transform="translate(-143.000000, -29.000000)" fill="#FFFFFF">
            <g id="Group" transform="translate(49.000000, 27.000000)">
                <path d="M104.281722,10.0723897 C104.535535,10.8764923 104.060043,10.8171897 103.419224,10.8121641 L100.10289,10.7975897 C99.6506836,10.6975795 99.5682526,9.96986667 100.359031,9.96986667 C101.053408,9.96986667 103.798313,9.87588718 104.281722,10.0723897 Z M106.946059,8.51092308 C107.778286,8.07972308 108.287775,9.48489231 107.513296,9.82914872 C106.575818,10.2457744 106.18462,8.90593846 106.946059,8.51092308 Z M96.6519653,8.52298462 C97.5456662,8.1073641 97.928947,9.51002051 97.195451,9.82412308 C96.3241042,10.1965231 95.8579266,8.89236923 96.6519653,8.52298462 Z M97.5424062,3.3194359 L106.621924,3.33953846 L107.380102,6.06795897 L96.7255477,6.04886154 L97.5424062,3.3194359 Z M96.195102,5.10655385 C95.6912018,5.07589744 94.8501263,4.86632821 94.441697,4.98895385 C94.244701,5.36135385 94.3653203,6.0493641 94.6349674,6.27652308 C94.8864518,6.48910769 95.3135095,6.64641026 95.5803624,6.85447179 C95.1961502,7.85557949 94.9455972,7.20827692 94.9521172,8.69687179 C94.9558429,9.54117949 94.9525829,10.3864923 94.9525829,11.2308 C94.9525829,11.7278359 94.819855,13.3692103 95.1393333,13.5672205 C95.4224861,13.7431179 97.1195399,13.6632103 97.3985013,13.5632 C97.5535833,13.140041 97.4851237,12.9204205 97.5130664,12.3942359 L106.643346,12.4143385 C106.642881,13.7913641 106.410025,13.6466256 108.469868,13.6456205 C109.389183,13.6456205 109.145616,13.5134462 109.174956,10.3096 C109.179613,9.80904615 109.219198,8.02695385 109.101839,7.78270769 C108.961194,7.48870769 108.651496,7.15249231 108.557422,6.85447179 C108.800523,6.66651282 109.344475,6.44086154 109.543334,6.24687179 C109.800872,5.99609231 109.871661,5.31562051 109.690033,4.98493333 L107.973885,5.10454359 C106.686192,2.08513846 108.780032,2.47110769 102.066796,2.47110769 C100.691084,2.47110769 99.313974,2.46507692 97.938727,2.46859487 C97.151674,2.47060513 96.9043811,2.65554872 96.6901536,3.35562051 C96.524826,3.89688205 96.2938329,4.58137436 96.195102,5.10655385 L96.195102,5.10655385 Z" id="Shape"></path>
            </g>
        </g>
    </g>
</svg>