<?xml version="1.0" encoding="UTF-8"?>
<svg width="16px" height="10px" viewBox="0 0 16 10" version="1.1" xmlns="http://www.w3.org/2000/svg" xmlns:xlink="http://www.w3.org/1999/xlink">
    <!-- Generator: Sketch 60 (88103) - https://sketch.com -->
    <title>Shape</title>
    <desc>Created with Sketch.</desc>
    <g id="Page-1" stroke="none" stroke-width="1" fill="none" fill-rule="evenodd">
        <g id="avtodrom_END" transform="translate(-68.000000, -31.000000)" fill="#FFFFFF">
            <g id="Group" transform="translate(49.000000, 27.000000)">
                <path d="M29.3598694,11.6529538 C28.8680777,12.1092821 27.3745399,11.9102667 26.6205525,11.9127795 C26.1008181,11.9142872 25.6975117,11.9358974 25.4059761,11.6207897 C25.1992001,11.3971487 24.8243021,10.7548718 25.2676597,10.5910359 C25.4851471,10.5106256 29.5014457,10.5196718 29.6318451,10.5985744 C30.0109345,10.8262359 29.5335799,11.4911282 29.3598694,11.6529538 L29.3598694,11.6529538 Z M32.4540586,8.98835897 C33.1614748,8.59987692 33.4721046,9.62912821 32.9523702,9.92714872 C32.3595191,10.2678872 31.8705217,9.30899487 32.4540586,8.98835897 Z M21.8721549,9.00544615 C22.505523,8.59133333 22.8976523,9.58590769 22.4091207,9.90955897 C22.1664848,10.0703795 21.8470065,9.97237949 21.7128815,9.76733333 C21.4888741,9.42458462 21.628122,9.16475897 21.8721549,9.00544615 Z M22.6321966,6.85346667 C22.7216133,6.49915897 23.0606515,5.90211282 23.2185278,5.56187692 C23.423441,5.12062564 23.5240347,4.69193846 24.0586719,4.61504615 C24.8801875,4.49694359 26.5618728,4.60398974 27.474668,4.60398974 C32.0554093,4.60398974 30.7756332,4.08484103 32.2221341,6.84643077 C30.8925269,7.77969231 29.1926788,7.53192821 27.4034141,7.53192821 C25.7175373,7.53192821 23.9119727,7.77617436 22.6321966,6.85346667 L22.6321966,6.85346667 Z M21.8544579,6.47352821 C21.4427687,6.32677949 21.3668576,6.22827692 20.8610946,6.21269744 C20.5430135,6.20264615 20.0037192,6.14887179 19.85376,6.38809231 C19.3759397,7.15098462 20.6538529,7.77617436 20.7330239,7.85155897 C20.5732847,8.57324103 20.3245946,8.90091282 20.3087604,9.84673846 C20.2957205,10.634759 20.3092261,11.4378564 20.3092261,12.2273846 C20.3087604,13.3134256 20.0721788,13.6717538 21.140056,13.6617026 C22.8841467,13.6451179 22.4026007,13.8054359 22.9214036,13.2490974 C24.166717,13.4586667 26.1050095,13.4501231 27.4034141,13.3817744 C28.9286202,13.3018667 30.3360013,13.5069128 31.8854245,13.2531179 C31.900793,13.2666872 31.9170929,13.2882974 31.9264071,13.2993538 C31.9357214,13.3099077 31.9552813,13.3320205 31.9664583,13.3455897 C32.1187461,13.5280205 32.1122261,13.5998872 32.3325078,13.6491385 C32.4871241,13.6833128 32.9127847,13.6606974 33.094878,13.6601949 C34.8981141,13.6546667 34.5171619,13.9652513 34.5222847,10.4618769 C34.5241476,9.2778359 34.4379909,8.83557949 34.085447,7.85155897 C34.5055191,7.49172308 35.2534523,7.37362051 34.9675052,6.29562051 C34.0966241,6.04835897 33.6784149,6.29461538 32.9528359,6.46146667 C32.3786133,5.83426667 32.1224718,4.45523077 31.2138681,4.12152821 C30.814753,3.97477949 24.0502891,3.95517949 23.6008772,4.12906667 C22.6182253,4.50900513 22.5353286,5.81567179 21.8544579,6.47352821 L21.8544579,6.47352821 Z" id="Shape"></path>
            </g>
        </g>
    </g>
</svg>