<?xml version="1.0" encoding="UTF-8"?>
<svg width="266px" height="87px" viewBox="0 0 266 87" version="1.1" xmlns="http://www.w3.org/2000/svg" xmlns:xlink="http://www.w3.org/1999/xlink">
    <!-- Generator: Sketch 60 (88103) - https://sketch.com -->
    <title>Group 3</title>
    <desc>Created with Sketch.</desc>
    <g id="Page-1" stroke="none" stroke-width="1" fill="none" fill-rule="evenodd">
        <g id="avtodrom_END" transform="translate(-61.000000, -41.000000)">
            <g id="Group-3" transform="translate(61.000000, 41.000000)">
                <polygon id="Path" fill="#F77719" points="0 71 265 71 265 73 0 73"></polygon>
                <g id="Group" transform="translate(0.000000, 28.000000)" fill-rule="nonzero">
                    <path d="M132.036357,0.00874285714 L156.273697,0.00874285714 L156.273697,29.7577714 L160.240822,29.7577714 L160.240822,45.8650286 L149.925719,45.8650286 L149.925719,39.9155143 L134.7772,39.9155143 L134.7772,45.8650286 L124.462097,45.8650286 L124.462097,29.7577714 L128.069232,29.7577714 L132.036357,0.00874285714 L132.036357,0.00874285714 Z M137.518768,29.7577714 L145.958595,29.7577714 L145.958595,10.1672143 L140.332043,10.1672143 L137.518768,29.7577714 Z M161.598205,0.00874285714 L190.957243,0.00874285714 L190.957243,28.3785857 L171.913308,28.3785857 L171.913308,39.9155143 L161.598205,39.9155143 L161.598205,0.00874285714 L161.598205,0.00874285714 Z M171.913308,10.1672143 L171.913308,18.9465 L180.641416,18.9465 L180.641416,10.1672143 L171.913308,10.1672143 Z M194.838897,0.00874285714 L224.413784,0.00874285714 L224.413784,39.9155143 L194.838897,39.9155143 L194.838897,0.00874285714 L194.838897,0.00874285714 Z M205.154,10.1672143 L205.154,29.7577714 L214.098681,29.7577714 L214.098681,10.1672143 L205.154,10.1672143 L205.154,10.1672143 Z M228.656876,0.00874285714 L238.971978,0.00874285714 L247.051092,15.6089143 L255.130205,0.00874285714 L265.445308,0.00874285714 L265.445308,39.9155143 L255.130205,39.9155143 L255.130205,15.4639286 L247.051092,30.9183857 L238.971978,15.4639286 L238.971978,39.9155143 L228.656876,39.9155143 L228.656876,10.1672143 L228.656876,0.00874285714 L228.656876,0.00874285714 Z" id="Shape" fill="#FFFFFF"></path>
                    <path d="M4.90947027,0.00874285714 L26.1169622,0.00874285714 L31.0220865,39.9155143 L20.9235568,39.9155143 L20.1296973,31.2812143 L10.8967351,31.2812143 L10.1028757,39.9155143 L0.00434594595,39.9155143 L4.90947027,0.00874285714 L4.90947027,0.00874285714 Z M11.9064432,21.1227429 L19.1199892,21.1227429 L18.1102811,10.1672143 L12.9161514,10.1672143 L11.9064432,21.1227429 Z M32.0173081,0.00874285714 L61.5921946,0.00874285714 L61.5921946,15.9717429 L56.7595027,19.9621286 L61.5921946,23.9525143 L61.5921946,39.9155143 L32.0173081,39.9155143 L32.0173081,10.1672143 L32.0173081,0.00874285714 L32.0173081,0.00874285714 Z M51.4936649,8.7159 L42.1158378,8.7159 L42.1158378,15.9717429 L48.7520973,15.9717429 L51.4936649,13.0691143 L51.4936649,8.7159 L51.4936649,8.7159 Z M42.1158378,23.9525143 L42.1158378,31.2083571 L51.4936649,31.2083571 L51.4936649,26.8551429 L48.7520973,23.9525143 L42.1158378,23.9525143 L42.1158378,23.9525143 Z M62.5157081,0.00874285714 L91.8747459,0.00874285714 L91.8747459,10.1672143 L82.3527784,10.1672143 L82.3527784,39.9155143 L72.0376757,39.9155143 L72.0376757,10.1672143 L62.5157081,10.1672143 L62.5157081,0.00874285714 L62.5157081,0.00874285714 Z M93.0865405,0.00874285714 L122.661427,0.00874285714 L122.661427,39.9155143 L93.0865405,39.9155143 L93.0865405,0.00874285714 L93.0865405,0.00874285714 Z M103.401643,10.1672143 L103.401643,29.7577714 L112.346324,29.7577714 L112.346324,10.1672143 L103.401643,10.1672143 L103.401643,10.1672143 Z" id="Shape" fill="#F77719"></path>
                </g>
                <path d="M5.97830973,78.1808803 L3.73626242,78.1808803 L0,86.8198074 L2.21451085,86.8198074 L2.89422655,85.105227 L6.79280914,85.105227 L7.48629307,86.8198074 L9.74138396,86.8198074 L5.97830973,78.1808803 L5.97830973,78.1808803 Z M3.55944938,83.4030261 L4.78264778,80.1148556 L4.91815614,80.1148556 L6.12758631,83.4030261 L3.55944938,83.4030261 Z M18.2588449,78.1808803 L14.2370729,78.1808803 L14.2370729,86.8198074 L18.6392828,86.8198074 C19.2233455,86.8198074 19.7262482,86.7551582 20.1472661,86.6134801 C20.568284,86.4718019 20.9211855,86.2909216 21.1929268,86.0591472 C21.4784364,85.826685 21.6820613,85.5563961 21.8182943,85.2469051 C21.9400344,84.9243466 22.0081509,84.5894085 22.0081509,84.2407153 C22.0081509,83.764099 21.8726425,83.3514443 21.6009012,83.0034388 C21.3429281,82.6423659 20.989302,82.3968363 20.5407476,82.2551582 L20.5407476,82.1389271 C20.8124889,81.997249 21.029882,81.7909216 21.1929268,81.5075653 C21.3429281,81.2235213 21.4240881,80.9016506 21.4240881,80.5405777 C21.4240881,79.8053645 21.1523468,79.2379642 20.5950959,78.8122421 C20.0516131,78.3872077 19.2776938,78.1808803 18.2588449,78.1808803 L18.2588449,78.1808803 L18.2588449,78.1808803 Z M16.2617271,85.1691884 L16.2617271,83.1581843 L18.6523264,83.1581843 C19.0871125,83.1581843 19.4269704,83.2352132 19.6581317,83.4160935 C19.889293,83.5708391 20.0110331,83.8280605 20.0110331,84.150619 C20.0110331,84.8342503 19.5632034,85.1691884 18.6660946,85.1691884 L16.2617271,85.1691884 L16.2617271,85.1691884 Z M16.2617271,81.5845942 L16.2617271,79.8314993 L18.2718885,79.8314993 C19.0465325,79.8314993 19.4407386,80.1148556 19.4407386,80.6953232 C19.4407386,80.9656121 19.3458103,81.1850069 19.155229,81.3528198 C18.9516042,81.5075653 18.6798628,81.5845942 18.340005,81.5845942 L16.2617271,81.5845942 L16.2617271,81.5845942 Z M33.9495528,78.1808803 L25.7031086,78.1808803 L25.7031086,79.934663 L28.8140036,79.934663 L28.8140036,86.8198074 L30.8386578,86.8198074 L30.8386578,79.934663 L33.9495528,79.934663 L33.9495528,78.1808803 L33.9495528,78.1808803 Z M42.521362,78 C41.8155591,78 41.1633799,78.1162311 40.5785925,78.3610729 C39.9945298,78.5935351 39.4785835,78.9154058 39.0575656,79.3156809 C38.6227794,79.7152682 38.2829216,80.1925722 38.0517603,80.7469051 C37.8213236,81.301238 37.6988588,81.8817056 37.6988588,82.5 C37.6988588,83.1320495 37.8213236,83.7248968 38.0517603,84.2799175 C38.2829216,84.8342503 38.6227794,85.3108666 39.0575656,85.7111417 C39.4785835,86.110729 39.9945298,86.4332875 40.5785925,86.6650619 C41.1633799,86.8844567 41.8155591,87 42.521362,87 C43.2416577,87 43.893837,86.8844567 44.491668,86.6396149 C45.0757307,86.4071527 45.591677,86.0845942 46.0134195,85.6850069 C46.4344375,85.2723521 46.7742953,84.7957359 47.004732,84.2407153 C47.2358933,83.6994498 47.3583581,83.1189821 47.3583581,82.5 C47.3583581,81.8555708 47.2358933,81.2627235 47.004732,80.7077029 C46.7742953,80.1664374 46.4482057,79.6891334 46.0134195,79.2895461 C45.6054452,78.8899587 45.0894989,78.5674003 44.491668,78.3356259 C43.893837,78.1162311 43.2416577,78 42.521362,78 Z M42.521362,79.7283356 C42.9561482,79.7283356 43.3503543,79.7922971 43.7039804,79.934663 C44.0431136,80.0763411 44.3423914,80.2696011 44.572828,80.5144429 C44.8177576,80.7592847 45.0076142,81.0563961 45.130079,81.4044017 C45.2525437,81.7393398 45.3206602,82.1004127 45.3206602,82.5 C45.3206602,82.8741403 45.2525437,83.2352132 45.1438472,83.5708391 C45.0076142,83.9057772 44.8315258,84.2022008 44.6003645,84.4470426 C44.355435,84.7049519 44.0568818,84.9112792 43.7039804,85.0536451 C43.3641225,85.1953232 42.9699164,85.2723521 42.521362,85.2723521 C42.0873005,85.2723521 41.6930944,85.1953232 41.3532365,85.0660248 C41.0133787,84.9112792 40.7148255,84.7180193 40.469896,84.4731774 C40.2256911,84.2283356 40.0358344,83.9312242 39.9133697,83.5962861 C39.7909049,83.2482806 39.7227884,82.8872077 39.7227884,82.5 C39.7227884,82.1134801 39.7909049,81.7524072 39.9133697,81.4174691 C40.0358344,81.0818432 40.2256911,80.7854195 40.469896,80.5405777 C40.7010573,80.2957359 41.0003351,80.0894085 41.3394683,79.9470426 C41.6930944,79.8053645 42.0873005,79.7283356 42.521362,79.7283356 L42.521362,79.7283356 Z M54.218559,78.1808803 L51.99028,78.1808803 L51.99028,86.8198074 L53.9743542,86.8198074 L53.9743542,81.1203576 L54.0960943,81.1203576 L56.2019086,84.4085282 L57.2620622,84.4085282 L59.3678765,81.1203576 L59.4896166,81.1203576 L59.4896166,86.8198074 L61.4867344,86.8198074 L61.4867344,78.1808803 L59.29976,78.1808803 L56.7729278,82.1004127 L54.218559,78.1808803 L54.218559,78.1808803 Z M70.9549277,78 C70.2491248,78 69.5969456,78.1162311 69.0121582,78.3610729 C68.4280955,78.5935351 67.9121492,78.9154058 67.4911313,79.3156809 C67.0563451,79.7152682 66.7164873,80.1925722 66.485326,80.7469051 C66.2548893,81.301238 66.1324245,81.8817056 66.1324245,82.5 C66.1324245,83.1320495 66.2548893,83.7248968 66.485326,84.2799175 C66.7164873,84.8342503 67.0563451,85.3108666 67.4911313,85.7111417 C67.9121492,86.110729 68.4280955,86.4332875 69.0121582,86.6650619 C69.5969456,86.8844567 70.2491248,87 70.9549277,87 C71.6752235,87 72.3274027,86.8844567 72.9252337,86.6396149 C73.5092964,86.4071527 74.0252427,86.0845942 74.4469852,85.6850069 C74.8680032,85.2723521 75.207861,84.7957359 75.4382977,84.2407153 C75.669459,83.6994498 75.7919238,83.1189821 75.7919238,82.5 C75.7919238,81.8555708 75.669459,81.2627235 75.4382977,80.7077029 C75.207861,80.1664374 74.8817714,79.6891334 74.4469852,79.2895461 C74.0390109,78.8899587 73.5230646,78.5674003 72.9252337,78.3356259 C72.3274027,78.1162311 71.6752235,78 70.9549277,78 Z M70.9549277,79.7283356 C71.3897139,79.7283356 71.78392,79.7922971 72.1375461,79.934663 C72.4766793,80.0763411 72.7759571,80.2696011 73.0063938,80.5144429 C73.2513233,80.7592847 73.4411799,81.0563961 73.5636447,81.4044017 C73.6861095,81.7393398 73.754226,82.1004127 73.754226,82.5 C73.754226,82.8741403 73.6861095,83.2352132 73.5774129,83.5708391 C73.4411799,83.9057772 73.2650915,84.2022008 73.0339302,84.4470426 C72.7890007,84.7049519 72.4904475,84.9112792 72.1375461,85.0536451 C71.7976882,85.1953232 71.4034821,85.2723521 70.9549277,85.2723521 C70.5208662,85.2723521 70.1266601,85.1953232 69.7868022,85.0660248 C69.4469444,84.9112792 69.1483912,84.7180193 68.9034617,84.4731774 C68.6592568,84.2283356 68.4694002,83.9312242 68.3469354,83.5962861 C68.2244706,83.2482806 68.1563541,82.8872077 68.1563541,82.5 C68.1563541,82.1134801 68.2244706,81.7524072 68.3469354,81.4174691 C68.4694002,81.0818432 68.6592568,80.7854195 68.9034617,80.5405777 C69.134623,80.2957359 69.4339008,80.0894085 69.773034,79.9470426 C70.1266601,79.8053645 70.5208662,79.7283356 70.9549277,79.7283356 L70.9549277,79.7283356 Z M87.2441913,78.1808803 L80.4238457,78.1808803 L80.4238457,86.8198074 L84.540546,86.8198074 C85.0564922,86.8198074 85.5325831,86.7551582 85.9673692,86.6396149 C86.4014308,86.5103164 86.7818687,86.3301238 87.0949147,86.0976616 C87.4072361,85.8528198 87.651441,85.5563961 87.8420222,85.2207703 C88.0050671,84.8596974 88.0999954,84.4731774 88.0999954,84.0220083 C88.0999954,83.5577717 88.0050671,83.1581843 87.8420222,82.7971114 C87.651441,82.4614856 87.4072361,82.1650619 87.1079583,81.9456671 C86.7818687,81.7138927 86.415199,81.5460798 85.9673692,81.4298487 C85.5325831,81.3143054 85.0564922,81.2627235 84.540546,81.2627235 L82.4484999,81.2627235 L82.4484999,79.9215956 L87.2441913,79.9215956 L87.2441913,78.1808803 L87.2441913,78.1808803 Z M82.4484999,85.0921596 L82.4484999,82.9518569 L84.5948943,82.9518569 C85.0564922,82.9518569 85.4101183,83.0419532 85.6680914,83.2352132 C85.9260646,83.4160935 86.0485293,83.673315 86.0485293,84.0220083 C86.0485293,84.343879 85.9260646,84.6017882 85.6680914,84.8081155 C85.4238865,84.9889959 85.0434486,85.0921596 84.540546,85.0921596 L82.4484999,85.0921596 Z M94.6746868,78.1808803 L92.6638008,78.1808803 L92.6638008,86.8198074 L94.6609186,86.8198074 L98.8457354,81.3913343 L98.8457354,86.8198074 L100.869665,86.8198074 L100.869665,78.1808803 L99.076172,78.1808803 L94.6746868,83.9312242 L94.6746868,78.1808803 Z M114.35963,78.1808803 L107.512473,78.1808803 L107.512473,79.7922971 C107.512473,80.5013755 107.512473,81.1203576 107.498705,81.6492435 C107.484936,82.1781293 107.458125,82.6423659 107.430588,83.0288858 C107.37624,83.4284732 107.321892,83.764099 107.253775,84.0343879 C107.186383,84.3053645 107.077687,84.5378267 106.955222,84.7310867 C106.860294,84.8988996 106.737829,85.0144429 106.615364,85.0660248 C106.479856,85.1437414 106.316811,85.1691884 106.139998,85.1691884 C106.04507,85.1691884 105.936373,85.1568088 105.813908,85.1437414 C105.691443,85.1176066 105.582747,85.0790922 105.47405,85.0405777 L105.012452,86.7035763 C105.229846,86.7943604 105.447239,86.8713893 105.664632,86.9099037 C105.895793,86.9484182 106.153766,86.974553 106.439276,86.974553 C106.900874,86.974553 107.308123,86.8968363 107.647981,86.7682256 C107.987839,86.6265475 108.286392,86.4071527 108.517554,86.1361761 C108.761758,85.8397524 108.95234,85.4917469 109.087848,85.0921596 C109.237849,84.6795048 109.332778,84.2152682 109.413938,83.6994498 C109.468286,83.170564 109.522634,82.590784 109.522634,81.9718019 C109.550171,81.326685 109.550171,80.6437414 109.550171,79.9085282 L112.321208,79.9085282 L112.321208,86.8198074 L114.35963,86.8198074 L114.35963,78.1808803 L114.35963,78.1808803 Z M121.409688,78.1808803 L119.398802,78.1808803 L119.398802,86.8198074 L121.39592,86.8198074 L125.580736,81.3913343 L125.580736,86.8198074 L127.604666,86.8198074 L127.604666,78.1808803 L125.811173,78.1808803 L121.409688,83.9312242 L121.409688,78.1808803 Z M151.109206,80.5921596 L152.236751,79.1863824 C151.774429,78.7998624 151.244714,78.5034388 150.660652,78.3094911 C150.076589,78.1031637 149.42441,78 148.717882,78 C147.943238,78 147.236711,78.1162311 146.625836,78.3610729 C146.014237,78.5935351 145.484522,78.9154058 145.049736,79.3280605 C144.61495,79.7407153 144.275092,80.2180193 144.057699,80.7723521 C143.813494,81.326685 143.704798,81.9071527 143.704798,82.5261348 C143.704798,83.2097662 143.827262,83.8156809 144.057699,84.3700138 C144.28886,84.9243466 144.628718,85.3885832 145.035968,85.7881706 C145.470754,86.1753783 145.973657,86.4718019 146.557719,86.6911967 C147.141782,86.8968363 147.793961,87 148.500489,87 C150.076589,87 151.380947,86.5364512 152.41284,85.607978 L151.258483,84.2537827 C150.904856,84.5763411 150.497607,84.8081155 150.062821,84.9889959 C149.601223,85.1437414 149.125132,85.2338377 148.609186,85.2338377 C148.188168,85.2338377 147.793961,85.1691884 147.44106,85.0405777 C147.087434,84.8988996 146.788881,84.7180193 146.530183,84.4731774 C146.27221,84.2407153 146.082353,83.957359 145.933077,83.6217331 C145.796844,83.286795 145.728727,82.9126547 145.728727,82.5 C145.728727,82.1004127 145.796844,81.7393398 145.933077,81.4044017 C146.068585,81.0687758 146.259166,80.7854195 146.517139,80.5275103 C146.775113,80.2826685 147.073666,80.1017882 147.427292,79.96011 C147.793961,79.8314993 148.188168,79.7668501 148.635997,79.7668501 C149.1389,79.7668501 149.601223,79.8314993 150.008472,79.9862448 C150.42949,80.1148556 150.79616,80.3211829 151.109206,80.5921596 L151.109206,80.5921596 Z M176.420282,78.1808803 L168.458623,78.1808803 L168.458623,86.8198074 L170.510089,86.8198074 L170.510089,79.9731774 L174.368816,79.9731774 L174.368816,86.8198074 L176.420282,86.8198074 L176.420282,78.1808803 L176.420282,78.1808803 Z M185.521806,78.1808803 L181.473222,78.1808803 L181.473222,86.8198074 L183.511645,86.8198074 L183.511645,84.46011 L185.358761,84.46011 C185.888476,84.46011 186.391378,84.3954608 186.853701,84.2407153 C187.315299,84.1121045 187.722549,83.9057772 188.048638,83.6217331 C188.402264,83.3645117 188.660237,83.0288858 188.863862,82.6423659 C189.054444,82.2420908 189.149372,81.803989 189.149372,81.301238 C189.149372,80.823934 189.067487,80.3982118 188.891399,80.0116919 C188.714586,79.6375516 188.470381,79.3156809 188.157335,79.0316369 C187.831245,78.7737276 187.450807,78.5550206 187.002978,78.4126547 C186.554423,78.2579092 186.065289,78.1808803 185.521806,78.1808803 L185.521806,78.1808803 Z M183.511645,82.7455296 L183.511645,79.9085282 L185.440646,79.9085282 C185.997172,79.9085282 186.405147,80.0378267 186.690656,80.2957359 C186.962398,80.5405777 187.097906,80.8885832 187.097906,81.3143054 C187.097906,81.7524072 186.948629,82.1004127 186.636308,82.3583219 C186.323262,82.6162311 185.902244,82.7455296 185.358761,82.7455296 L183.511645,82.7455296 L183.511645,82.7455296 Z M198.196547,78 C197.490744,78 196.838565,78.1162311 196.253778,78.3610729 C195.669715,78.5935351 195.153769,78.9154058 194.732751,79.3156809 C194.297965,79.7152682 193.958107,80.1925722 193.726946,80.7469051 C193.496509,81.301238 193.374044,81.8817056 193.374044,82.5 C193.374044,83.1320495 193.496509,83.7248968 193.726946,84.2799175 C193.958107,84.8342503 194.297965,85.3108666 194.732751,85.7111417 C195.153769,86.110729 195.669715,86.4332875 196.253778,86.6650619 C196.838565,86.8844567 197.490744,87 198.196547,87 C198.916843,87 199.569022,86.8844567 200.166853,86.6396149 C200.750916,86.4071527 201.266862,86.0845942 201.688605,85.6850069 C202.109623,85.2723521 202.449481,84.7957359 202.679917,84.2407153 C202.911079,83.6994498 203.033543,83.1189821 203.033543,82.5 C203.033543,81.8555708 202.911079,81.2627235 202.679917,80.7077029 C202.449481,80.1664374 202.123391,79.6891334 201.688605,79.2895461 C201.28063,78.8899587 200.764684,78.5674003 200.166853,78.3356259 C199.569022,78.1162311 198.916843,78 198.196547,78 Z M198.196547,79.7283356 C198.631333,79.7283356 199.02554,79.7922971 199.379166,79.934663 C199.718299,80.0763411 200.017577,80.2696011 200.248013,80.5144429 C200.492943,80.7592847 200.6828,81.0563961 200.805264,81.4044017 C200.927729,81.7393398 200.995846,82.1004127 200.995846,82.5 C200.995846,82.8741403 200.927729,83.2352132 200.819033,83.5708391 C200.6828,83.9057772 200.506711,84.2022008 200.27555,84.4470426 C200.03062,84.7049519 199.732067,84.9112792 199.379166,85.0536451 C199.039308,85.1953232 198.645102,85.2723521 198.196547,85.2723521 C197.762486,85.2723521 197.36828,85.1953232 197.028422,85.0660248 C196.688564,84.9112792 196.390011,84.7180193 196.145081,84.4731774 C195.900876,84.2283356 195.71102,83.9312242 195.588555,83.5962861 C195.46609,83.2482806 195.397974,82.8872077 195.397974,82.5 C195.397974,82.1134801 195.46609,81.7524072 195.588555,81.4174691 C195.71102,81.0818432 195.900876,80.7854195 196.145081,80.5405777 C196.376243,80.2957359 196.67552,80.0894085 197.014654,79.9470426 C197.36828,79.8053645 197.762486,79.7283356 198.196547,79.7283356 L198.196547,79.7283356 Z M214.485811,78.1808803 L207.665465,78.1808803 L207.665465,86.8198074 L211.782166,86.8198074 C212.298112,86.8198074 212.774203,86.7551582 213.208989,86.6396149 C213.64305,86.5103164 214.023488,86.3301238 214.336534,86.0976616 C214.648856,85.8528198 214.893061,85.5563961 215.083642,85.2207703 C215.246687,84.8596974 215.341615,84.4731774 215.341615,84.0220083 C215.341615,83.5577717 215.246687,83.1581843 215.083642,82.7971114 C214.893061,82.4614856 214.648856,82.1650619 214.349578,81.9456671 C214.023488,81.7138927 213.656819,81.5460798 213.208989,81.4298487 C212.774203,81.3143054 212.298112,81.2627235 211.782166,81.2627235 L209.69012,81.2627235 L209.69012,79.9215956 L214.485811,79.9215956 L214.485811,78.1808803 L214.485811,78.1808803 Z M209.69012,85.0921596 L209.69012,82.9518569 L211.836514,82.9518569 C212.298112,82.9518569 212.651738,83.0419532 212.909711,83.2352132 C213.167684,83.4160935 213.290149,83.673315 213.290149,84.0220083 C213.290149,84.343879 213.167684,84.6017882 212.909711,84.8081155 C212.665506,84.9889959 212.285068,85.0921596 211.782166,85.0921596 L209.69012,85.0921596 Z M226.711998,78.1808803 L219.90542,78.1808803 L219.90542,86.8198074 L226.943159,86.8198074 L226.943159,85.0790922 L221.916306,85.0790922 L221.916306,83.2352132 L226.196052,83.2352132 L226.196052,81.5460798 L221.916306,81.5460798 L221.916306,79.9215956 L226.711998,79.9215956 L226.711998,78.1808803 L226.711998,78.1808803 Z M238.544703,78.1808803 L231.656241,78.1808803 L231.656241,86.8198074 L233.694664,86.8198074 L233.694664,79.934663 L238.544703,79.934663 L238.544703,78.1808803 Z M247.034628,78 C246.328825,78 245.676645,78.1162311 245.091858,78.3610729 C244.507795,78.5935351 243.991849,78.9154058 243.570831,79.3156809 C243.136045,79.7152682 242.796187,80.1925722 242.565026,80.7469051 C242.334589,81.301238 242.212124,81.8817056 242.212124,82.5 C242.212124,83.1320495 242.334589,83.7248968 242.565026,84.2799175 C242.796187,84.8342503 243.136045,85.3108666 243.570831,85.7111417 C243.991849,86.110729 244.507795,86.4332875 245.091858,86.6650619 C245.676645,86.8844567 246.328825,87 247.034628,87 C247.754923,87 248.407103,86.8844567 249.004934,86.6396149 C249.588996,86.4071527 250.104943,86.0845942 250.526685,85.6850069 C250.947703,85.2723521 251.287561,84.7957359 251.517998,84.2407153 C251.749159,83.6994498 251.871624,83.1189821 251.871624,82.5 C251.871624,81.8555708 251.749159,81.2627235 251.517998,80.7077029 C251.287561,80.1664374 250.961471,79.6891334 250.526685,79.2895461 C250.118711,78.8899587 249.602765,78.5674003 249.004934,78.3356259 C248.407103,78.1162311 247.754923,78 247.034628,78 Z M247.034628,79.7283356 C247.469414,79.7283356 247.86362,79.7922971 248.217246,79.934663 C248.556379,80.0763411 248.855657,80.2696011 249.086094,80.5144429 C249.331023,80.7592847 249.52088,81.0563961 249.643345,81.4044017 C249.765809,81.7393398 249.833926,82.1004127 249.833926,82.5 C249.833926,82.8741403 249.765809,83.2352132 249.657113,83.5708391 C249.52088,83.9057772 249.344791,84.2022008 249.11363,84.4470426 C248.868701,84.7049519 248.570147,84.9112792 248.217246,85.0536451 C247.877388,85.1953232 247.483182,85.2723521 247.034628,85.2723521 C246.600566,85.2723521 246.20636,85.1953232 245.866502,85.0660248 C245.526644,84.9112792 245.228091,84.7180193 244.983162,84.4731774 C244.738957,84.2283356 244.5491,83.9312242 244.426635,83.5962861 C244.304171,83.2482806 244.236054,82.8872077 244.236054,82.5 C244.236054,82.1134801 244.304171,81.7524072 244.426635,81.4174691 C244.5491,81.0818432 244.738957,80.7854195 244.983162,80.5405777 C245.214323,80.2957359 245.513601,80.0894085 245.852734,79.9470426 C246.20636,79.8053645 246.600566,79.7283356 247.034628,79.7283356 L247.034628,79.7283356 Z M258.731825,78.1808803 L256.503546,78.1808803 L256.503546,86.8198074 L258.48762,86.8198074 L258.48762,81.1203576 L258.60936,81.1203576 L260.715174,84.4085282 L261.775328,84.4085282 L263.881142,81.1203576 L264.002882,81.1203576 L264.002882,86.8198074 L266,86.8198074 L266,78.1808803 L263.813026,78.1808803 L261.286193,82.1004127 L258.731825,78.1808803 L258.731825,78.1808803 Z" id="Shape" fill="#FFFFFF" fill-rule="nonzero"></path>
                <g id="Group" transform="translate(18.000000, 0.000000)" fill="#FFFFFF">
                    <path d="M18.856525,11.5456 C18.9109,10.8958667 19.0443,11.0792 19.74465,11.0792 C22.15745,11.0792 22.221975,10.8650667 22.1502,11.8866 C22.1096,12.4688667 21.96315,12.4036 21.40635,12.4028667 L19.4126,12.4043333 C18.8355,12.4050667 18.8007,12.21 18.856525,11.5456 Z M3.5003,11.1408 C4.056375,11.022 6.09145,11.0183333 6.640275,11.1415333 C6.720025,11.4686 6.767875,11.7538667 6.675075,12.0919333 C6.5946,12.3882 6.698275,12.166 6.5395,12.3544667 C6.003725,12.5224 4.98075,12.3955333 4.34275,12.4072667 C3.306,12.4256 3.3089,12.3412667 3.5003,11.1408 L3.5003,11.1408 Z M4.791525,9.01706667 C4.9271,7.82833333 5.457075,6.18346667 5.870325,5.0226 C6.0697,4.4616 6.003725,4.31786667 6.60185,4.2196 C8.394775,3.92406667 10.9098,3.8984 12.76725,3.89690076 C14.42315,3.8962 17.49135,3.905 19.026175,4.22693333 C19.578625,4.3428 19.572825,4.60533333 19.764225,5.1436 C20.18255,6.31986667 20.628425,7.76013333 20.792275,9.02146667 C20.0709,8.93933333 19.3807,8.8704 18.65135,8.82053333 C17.41885,8.73473333 18.2671,8.3578 17.146975,8.1312 C15.905775,7.88113333 14.576125,7.67066667 13.32115,7.47486667 C13.144975,7.21013333 13.063775,6.666 12.54395,7.04513333 C12.121275,7.35313333 12.654875,7.42206667 11.716725,7.57826667 C5.718075,8.5778 8.738425,8.3622 7.355125,8.77653333 C7.02815,8.87406667 5.28525,8.96866667 4.791525,9.01706667 L4.791525,9.01706667 Z M23.180425,9.45926667 C25.062525,9.26273333 25.65485,9.7416 25.483025,7.40373333 C25.425025,6.61613333 25.00525,6.82586667 23.289175,6.8266 C21.92255,6.8266 22.372775,7.89726667 21.849325,8.52133333 C21.325875,7.08033333 21.022825,3.98786667 19.890375,3.3374 C18.670925,2.63706667 7.1398,2.62753333 5.73475,3.31833333 C5.02715,3.66593333 4.7618,4.83853333 4.47035,5.73466667 C4.31955,6.1996 4.201375,6.62933333 4.069425,7.128 L3.75695,8.3732 C3.750425,8.3908 3.7265,8.46486667 3.72215,8.44946667 C3.717075,8.43406667 3.7004,8.50006667 3.685175,8.52353333 C3.334275,7.76306667 3.464775,6.98206667 2.681775,6.84786667 C2.117725,6.7518 0.644525,6.65426667 0.287825,6.9872 C-0.042775,7.32673333 0.058,8.41353333 0.16675,8.94813333 C0.950475,9.50326667 1.250625,9.38886667 2.381625,9.44313333 C1.73275,9.8692 1.78785,9.4644 1.575425,10.3092 C1.414475,10.9479333 1.1339,10.769 0.980925,11.3835333 C0.8555,11.8851333 0.9454,14.0147333 0.9454,14.6879333 C0.9454,15.9118667 1.149125,16.5748 1.1455,17.8244 C1.141875,19.2192 0.86565,19.9151333 2.35625,19.9144 C6.132775,19.9452 5.0054,19.9364 5.4578,18.6978 C6.624325,18.7506 7.632075,19.0322 8.88995,19.0468667 C10.13985,19.0615333 11.406425,19.0578667 12.656325,19.0578667 C16.7388,19.0578667 16.197225,19.1260667 20.197775,18.6684667 C20.1869,20.273 20.815475,19.9144 22.2923,19.9144 C24.59925,19.9144 24.4267,20.3331333 24.4267,17.0397333 C24.4267,16.2514 24.58475,16.3401333 24.63405,15.7021333 C24.697125,14.8866667 24.726125,11.5206667 24.492675,11.1173333 C24.395525,10.9494 24.1918,10.7902667 24.12945,10.7008 C23.838725,10.2835333 24.0787,10.5761333 23.961975,10.1024 C23.8351,9.59053333 23.709675,9.74233333 23.180425,9.45926667 L23.180425,9.45926667 Z" id="Shape"></path>
                    <path d="M81.464625,12.4028667 C81.8612,12.3427333 82.3774,12.166 82.44845,12.6771333 C82.48325,12.9279333 82.21355,13.5534667 82.0816,13.7412 C81.63355,14.3784667 80.387275,14.1489333 79.5876,14.1562667 C79.141,14.1606667 78.567525,14.2772667 78.51315,13.7962 C78.35655,12.4182667 80.69395,12.5194667 81.464625,12.4028667 Z M59.765375,14.7972 L59.765375,8.0388 C60.435275,7.43746667 61.276275,7.3458 62.4486,7.28933333 C62.5994,7.61933333 62.546475,7.60246667 62.8662,7.84666667 C63.267125,7.32673333 64.05085,4.75786667 64.991175,3.96073333 C66.01125,3.09466667 69.2636,3.26113333 70.0872,2.9304 L74.1066,2.9304 C75.255,3.43273333 77.788875,3.00226667 78.9902,3.9864 C79.536125,4.43373333 80.69395,6.88966667 80.99265,7.8738 L81.30005,7.56653333 C81.92645,6.9322 83.648325,7.54306667 84.109425,7.9706 C84.14205,9.09186667 83.346725,8.88506667 82.8907,9.46953333 C84.1464,10.1236667 84.2044,12.4659333 84.136975,14.2457333 C84.1,15.2313333 83.93325,19.2859333 83.730975,19.7706667 C82.99075,19.9818667 81.886575,19.8953333 81.03035,19.8982667 C79.692725,19.9026667 79.4107,20.1512667 79.23235,18.8716 C74.574225,18.5724 69.415125,18.5467333 64.749025,18.8415333 C64.490925,19.3358 64.87445,19.3438667 64.3365,19.7787333 C63.823925,20.0214667 61.002225,19.9767333 60.3287,19.8154 C59.573975,18.9757333 60.262,16.0673333 59.765375,14.7972 L59.765375,14.7972 Z M63.068475,12.4747333 C63.955875,12.5913333 64.7193,12.5275333 65.1804,13.1420667 C66.13595,14.4166 64.477875,14.1526 63.531025,14.1526 C62.1963,14.1526 62.02955,14.3352 61.589475,13.1721333 C61.129825,11.9562667 62.205,12.3610667 63.068475,12.4747333 L63.068475,12.4747333 Z M64.113925,8.1708 C64.247325,7.59146667 64.71785,6.64326667 65.004225,6.09986667 C65.4269,5.29906667 65.559575,4.79086667 66.53615,4.6244 C69.99875,4.03333333 73.982625,3.94386667 77.455375,4.63466667 C78.37685,4.81873333 78.55665,5.37533333 78.9467,6.16146667 C79.26715,6.8068 79.7036,7.5086 79.815975,8.19206667 C74.64165,7.62153333 69.2752,7.98893333 64.113925,8.1708 L64.113925,8.1708 Z" id="Shape"></path>
                    <path d="M105.653525,11.6952 C105.43385,11.0176 105.891325,10.3436667 106.326325,10.2278 C107.05205,10.0349333 107.609575,10.4434 107.74225,10.9398667 C108.1526,12.4732667 106.0414,12.8912667 105.653525,11.6952 L105.653525,11.6952 Z M94.62555,11.5837333 C94.162275,13.0203333 92.0953,12.4894 92.500575,10.9538 C92.858725,9.60006667 95.06055,10.2351333 94.62555,11.5837333 Z M94.159375,1.3926 L106.053725,1.43733333 L106.899075,6.1358 C102.609975,5.75813333 97.653875,5.5748 93.2959,6.0896 L94.159375,1.3926 Z M91.692925,6.35726667 L91.61825,6.07713333 C91.6139,6.0434 91.60955,6.01186667 91.605925,5.973 C91.5907,5.82633333 91.60665,5.66133333 91.58635,5.53006667 C91.51675,5.093 91.5588,5.1744 91.1441,5.082 C90.7903,5.00353333 89.863025,4.85173333 89.5201,4.90746667 C89.404825,5.34746667 89.4099,6.16953333 89.5172,6.62346667 C89.625225,7.0796 90.10445,7.3502 90.498125,7.51373333 C90.209575,8.40913333 89.915225,7.83346667 89.92175,9.11313333 C89.925375,9.87286667 89.929,10.6304 89.92175,11.3894 L90.572075,11.924 C90.5641,11.924 90.5235,11.9137333 90.51045,11.9496667 C90.4974,11.9848667 90.451,11.9834 90.432875,11.9914667 C89.32,12.4820667 89.412075,12.2877333 89.412075,14.608 C89.4128,20.2876667 88.9459,19.9276 91.917675,19.9474 C93.757,19.9598667 93.6207,19.3695333 93.61055,17.6418 C94.060775,17.5721333 94.80825,17.6968 95.174375,17.5552667 C95.71595,17.3462667 94.94745,17.3719333 95.781925,17.2648667 L104.328225,17.259 C105.61365,17.3389333 103.680075,17.5516 106.64315,17.6044 C106.616325,19.1957333 106.471325,19.9525333 108.1903,19.9488799 C111.341875,19.9408 110.838,20.1747333 110.838,14.8324 C110.838,13.3686667 111.18745,12.1704 109.6548,12.0274 C110.5132,11.0256667 110.310925,11.5881333 110.312375,9.90293333 C110.31455,7.09133333 110.05065,8.72886667 109.723675,7.5086 C110.824225,6.9542 110.985175,6.5362 110.6988,4.90526667 C110.24785,4.87373333 108.810175,4.91626667 108.6775,5.45086667 C108.6195,5.6848 108.6775,5.68406667 108.660825,5.8652 C108.659375,5.8762 108.73115,6.07713333 108.527425,6.39393333 C108.04385,6.22966667 108.201175,6.39393333 108.021375,5.01893333 C107.890875,4.01866667 107.445725,1.01713333 106.952,0.5148 C106.3111,-0.1364 104.834275,0.0784666667 103.7649,0.0784666667 L96.45545,0.0784666667 C92.781875,0.0777333333 93.109575,-0.166466667 92.459975,3.39386667 L91.98655,6.04633333 C91.86185,6.336 91.961175,6.22673333 91.692925,6.35726667 L91.692925,6.35726667 Z" id="Shape"></path>
                    <path d="M134.57015,15.7124 C134.0583,14.0550667 135.07765,14.0308667 135.725075,13.8372667 C136.34205,13.6539333 137.7123,13.1677333 138.288675,13.409 C138.5359,14.4686667 137.6717,14.773 136.927125,15.0619333 C136.32465,15.2966 135.303125,15.8165333 134.57015,15.7124 L134.57015,15.7124 Z M123.121675,15.6632667 C122.5482,15.8759333 121.2867,15.2372 120.729175,15.0355333 C120.01795,14.7788667 119.134175,14.3689333 119.4655,13.4229333 C119.8019,13.2579333 119.672125,13.2894667 120.13685,13.3774667 L122.00155,13.8607333 C122.9919,14.1078667 123.552325,14.3498667 123.121675,15.6632667 L123.121675,15.6632667 Z M120.69365,9.66753333 C121.093125,8.0608 121.410675,6.09253333 123.066575,5.8608 C125.241575,5.55646667 132.6779,5.50806667 134.7746,5.87986667 C135.625025,6.0302 136.057125,6.51346667 136.331175,7.3172 C136.589275,8.07473333 136.838675,8.8682 137.034425,9.6756 L135.8099,9.5304 C135.4416,6.96153333 134.630325,7.08473333 132.13705,7.073 C131.08725,7.06786667 130.3521,7.2336 129.8823,7.9354 C129.210225,8.9386 130.242625,9.36173333 128.22205,9.1388 C127.650025,6.94246667 127.159925,7.07886667 124.8276,7.07373333 C122.72075,7.06933333 122.256025,7.41766667 121.918175,9.5282 L120.69365,9.66753333 L120.69365,9.66753333 Z M119.511175,9.19233333 C118.66945,9.2576 116.9599,8.72153333 116.387875,9.30673333 C116.110925,9.5898 116.0029,10.1126667 116.212425,10.5292 C116.4031,10.9076 116.790975,10.9816667 117.25425,11.2625333 C116.506775,13.7236 117.18175,14.5742667 117.196975,17.0507333 C117.201325,17.8522667 116.88595,19.6254667 117.6443,19.8601333 C118.13005,20.0097333 120.51095,19.9576667 120.8836,19.7934 C121.30845,19.3563333 121.1214,19.1598 121.18955,18.5372 C126.508875,19.3893333 131.272125,19.096 136.5784,18.546 C136.573325,19.679 136.589275,19.9188 137.78335,19.91 C141.607,19.8806667 140.176575,20.3852 140.65145,15.3824 C140.833425,13.4676667 140.99655,13.0665333 140.4731,11.2456667 C140.936375,11.0029333 141.327875,10.8834 141.52,10.5145333 C141.767225,10.0400667 141.60845,9.52233333 141.28365,9.25613333 C140.6848,8.76626667 139.089075,9.22973333 138.229225,9.2048 C137.524525,7.93246667 137.807275,5.72073333 135.593125,4.8224 C134.13225,4.22913333 123.679925,4.26873333 122.23355,4.79233333 C121.413575,5.08933333 120.7009,5.72733333 120.381175,6.501 C120.0571,7.28566667 119.87585,8.448 119.511175,9.19233333 L119.511175,9.19233333 Z" id="Shape"></path>
                    <path d="M185.190375,14.6234 C186.108225,14.3154 188.4855,14.4818667 189.6745,14.4818667 C190.4314,14.4818667 191.25645,14.4496 192.00465,14.4789333 C192.982675,14.5170667 192.966,15.0194 192.71225,15.7278 C191.927075,15.9632 185.973375,15.9646667 185.207775,15.7204667 C184.997525,15.1880667 185.01565,15.147 185.190375,14.6234 L185.190375,14.6234 Z M179.865975,13.3349333 C179.652825,12.4798667 180.177,11.7414 180.85415,11.5778667 C181.681375,11.3784 182.432475,11.9005333 182.586175,12.5664 C183.038575,14.5207333 180.30025,15.07 179.865975,13.3349333 L179.865975,13.3349333 Z M198.015625,13.4471333 C197.329775,15.2159333 194.727025,14.2574667 195.389675,12.3955333 C195.60355,11.7934667 196.3764,11.308 197.232625,11.6277333 C197.7829,11.8330667 198.330275,12.6360667 198.015625,13.4471333 Z M182.3897,4.5034 C185.099025,3.89326667 192.782575,3.96733333 195.5325,4.49533333 C195.96895,5.58873333 196.5968,7.63033333 196.767175,8.8814 C190.92005,8.0014 186.986925,8.06446667 181.147775,8.87773333 C181.392825,7.2732 181.888,5.90406667 182.3897,4.5034 L182.3897,4.5034 Z M179.9276,8.51986667 C179.22435,8.23093333 179.264225,8.12313333 178.1557,8.12753333 C177.370525,8.13046667 176.86665,8.1048 176.4447,8.58 C176.1837,8.8748 175.446375,10.7132667 178.08175,10.6186667 C177.17405,12.5847333 177.429975,12.144 177.429975,14.9035333 C177.429975,16.1692667 177.2828,18.8151333 177.566275,19.7728667 C178.3355,20.0207333 179.5419,19.9041333 180.4815,19.9056 C181.993125,19.9063333 182.339675,20.1952667 182.322275,18.5951333 L195.59195,18.5966 C195.610075,20.3485333 195.77755,19.8872667 199.316275,19.91 C200.925775,19.9195333 200.490775,18.9896667 200.4915,17.4804667 C200.4915,16.2477333 200.490775,15.0157333 200.4915,13.783 C200.492225,11.9452667 200.53355,12.0039333 199.83755,10.6216 C202.53455,10.6890667 201.727625,8.8616 201.47315,8.57046667 C201.0048,8.0344 199.00235,7.84153333 198.0265,8.51326667 C198.006925,8.52646667 197.9743,8.55213333 197.94675,8.569 C197.8351,7.70073333 197.4871,6.50613333 197.22755,5.6958 C196.92885,4.7652 196.7447,3.6696 195.908775,3.3308 C194.94525,2.93993333 190.314675,2.85925489 189.009675,2.85925489 C187.4386,2.85853333 183.415575,2.8908 182.08375,3.3066 C181.17895,3.58893333 181.046275,4.65593333 180.74975,5.63493333 C180.521375,6.3866 180.224125,7.80633333 179.9276,8.51986667 L179.9276,8.51986667 Z" id="Shape"></path>
                    <path d="M227.30635,12.122 L227.35565,14.0961333 L224.59195,14.1254667 C224.6282,13.8482667 225.0864,12.6016 225.18935,12.4043333 C225.47355,11.8609333 226.714025,12.0420667 227.30635,12.122 L227.30635,12.122 Z M209.8933,12.1183333 L211.88125,12.0904667 C212.07555,12.4586 212.588125,13.6488 212.660625,14.0829333 L209.925925,14.1328 L209.8933,12.1183333 Z M210.81985,7.4976 C210.74735,6.91313333 211.908075,4.13746667 212.256075,3.9182 C213.398675,3.19953333 221.97905,3.4584 224.086625,3.71066667 C225.15455,3.83826667 225.159625,3.92113333 225.529375,4.8202 C227.135975,8.72446667 227.2614,7.94346667 220.448575,7.94493333 L212.917275,7.9508 C212.3438,7.95446667 210.90975,8.22286667 210.81985,7.4976 L210.81985,7.4976 Z M228.79985,10.2241333 C230.092525,9.94473333 230.11935,10.3451333 230.253475,8.66873333 C230.321625,7.8122 229.7061,8.05786667 228.0676,8.05786667 C227.82545,7.08766667 226.15795,3.2758 225.57505,2.9854 C224.302675,2.35253333 212.77155,2.3276 211.593425,3.02573333 C210.967025,3.3968 209.6874,7.04806667 209.151625,8.02193333 C208.4636,8.10773333 207.5936,7.9552 207.05565,8.173 C206.9788,8.61813333 207.02375,8.79266667 207.09625,9.2378 C207.24995,10.1867333 207.255025,10.0701333 208.46505,10.1992 C207.87925,12.6580667 207.9996,15.0318667 208.19535,17.6520667 C208.34615,19.6614 207.795875,19.9371333 209.925925,19.8814 C211.644175,19.8359333 212.572175,20.4702667 212.54535,18.5804667 L224.721725,18.6274 C224.720275,20.1182667 224.933425,19.9004667 226.31745,19.8946 C227.150475,19.8909333 228.2271,20.0134 228.878875,19.7354667 C229.0942,19.0116667 229.184825,15.8928 229.210925,14.8910667 C229.251525,13.3041333 229.200775,11.6343333 228.79985,10.2241333 L228.79985,10.2241333 Z" id="Shape"></path>
                    <path d="M162.341275,14.6974667 C162.7364,15.8708 161.996175,15.7842667 160.998575,15.7769333 L155.83585,15.7556667 C155.131875,15.6097333 155.00355,14.5478667 156.2346,14.5478667 C157.315575,14.5478667 161.588725,14.4107333 162.341275,14.6974667 Z M166.489,12.419 C167.784575,11.7898 168.577725,13.8402 167.37205,14.3425333 C165.912625,14.9504667 165.303625,12.9954 166.489,12.419 Z M150.4636,12.4366 C151.854875,11.8301333 152.45155,13.8768667 151.309675,14.3352 C149.9532,14.8786 149.227475,12.9756 150.4636,12.4366 Z M151.8498,4.84366667 L165.9844,4.873 L167.1647,8.85426667 L150.57815,8.8264 L151.8498,4.84366667 Z M149.752375,7.4514 C148.967925,7.40666667 147.658575,7.10086667 147.02275,7.2798 C146.716075,7.8232 146.90385,8.82713333 147.323625,9.1586 C147.715125,9.4688 148.37995,9.69833333 148.795375,10.0019333 C148.19725,11.4627333 147.8072,10.5182 147.81735,12.6903333 C147.82315,13.9223333 147.818075,15.1558 147.818075,16.3878 C147.818075,17.1130667 147.61145,19.5081333 148.1088,19.7970667 C148.5496,20.0537333 151.1915,19.9371333 151.625775,19.7912 C151.8672,19.1737333 151.760625,18.8532667 151.804125,18.0854667 L166.01775,18.1148 C166.017025,20.1241333 165.654525,19.9129333 168.8612,19.9114667 C170.29235,19.9114667 169.913175,19.7186 169.95885,15.0436 C169.9661,14.3132 170.027725,11.7128 169.845025,11.3564 C169.626075,10.9274 169.14395,10.4368 168.9975,10.0019333 C169.37595,9.72766667 170.22275,9.3984 170.532325,9.11533333 C170.93325,8.7494 171.04345,7.75646667 170.7607,7.27393333 L168.089075,7.44846667 C166.08445,3.0426 169.34405,3.6058 158.893175,3.6058 C156.751525,3.6058 154.6077,3.597 152.466775,3.60213333 C151.241525,3.60506667 150.85655,3.87493333 150.52305,4.89646667 C150.265675,5.68626667 149.906075,6.68506667 149.752375,7.4514 L149.752375,7.4514 Z" id="Shape"></path>
                    <path d="M45.706175,17.0038 C44.940575,17.6696667 42.6155,17.3792667 41.441725,17.3829333 C40.632625,17.3851333 40.004775,17.4166667 39.550925,16.9568667 C39.229025,16.6305333 38.6454,15.6933333 39.3356,15.4542667 C39.674175,15.3369333 45.926575,15.3501333 46.129575,15.4652667 C46.719725,15.7974667 45.9766,16.7676667 45.706175,17.0038 L45.706175,17.0038 Z M50.523075,13.1156667 C51.62435,12.5488 52.107925,14.0506667 51.298825,14.4855333 C50.3759,14.9827333 49.61465,13.5835333 50.523075,13.1156667 Z M34.049625,13.1406 C35.035625,12.5363333 35.646075,13.9876 34.88555,14.4598667 C34.507825,14.6945333 34.010475,14.5515333 33.801675,14.2523333 C33.45295,13.7522 33.669725,13.3730667 34.049625,13.1406 Z M35.232825,10.0004667 C35.372025,9.48346667 35.899825,8.61226667 36.1456,8.1158 C36.4646,7.47193333 36.6212,6.8464 37.4535,6.7342 C38.7324,6.56186667 41.350375,6.71806667 42.771375,6.71806667 C49.902475,6.71806667 47.910175,5.96053333 50.162025,9.9902 C48.09215,11.352 45.4459,10.9904667 42.66045,10.9904667 C40.03595,10.9904667 37.225125,11.3468667 35.232825,10.0004667 L35.232825,10.0004667 Z M34.022075,9.44606667 C33.381175,9.23193333 33.263,9.0882 32.47565,9.06546667 C31.980475,9.0508 31.140925,8.97233333 30.907475,9.3214 C30.163625,10.4346 32.153025,11.3468667 32.276275,11.4568667 C32.0276,12.5099333 31.64045,12.9880667 31.6158,14.3682 C31.5955,15.5180667 31.616525,16.6899333 31.616525,17.842 C31.6158,19.4267333 31.2475,19.9496 32.909925,19.9349333 C35.62505,19.9107333 34.8754,20.1446667 35.68305,19.3328667 C37.6217,19.6386667 40.63915,19.6262 42.66045,19.5264667 C45.034825,19.4098667 47.225775,19.7090667 49.63785,19.3387333 C49.661775,19.3585333 49.68715,19.3900667 49.70165,19.4062 C49.71615,19.4216 49.7466,19.4538667 49.764,19.4736667 C50.001075,19.7398667 49.990925,19.8447333 50.33385,19.9166 C50.57455,19.9664667 51.2372,19.9334667 51.520675,19.9327333 C54.327875,19.9246667 53.734825,20.3778667 53.7428,15.2658 C53.7457,13.5380667 53.611575,12.8927333 53.06275,11.4568667 C53.7167,10.9318 54.88105,10.7594667 54.4359,9.18646667 C53.08015,8.82566667 52.4291,9.185 51.29955,9.42846667 C50.405625,8.51326667 50.006875,6.501 48.5924,6.01406667 C47.971075,5.79993333 37.44045,5.77133333 36.740825,6.02506667 C35.211075,6.57946667 35.082025,8.48613333 34.022075,9.44606667 L34.022075,9.44606667 Z" id="Shape"></path>
                </g>
                <polygon id="Path" fill="#FFFFFF" points="0 23 265 23 265 25 0 25"></polygon>
            </g>
        </g>
    </g>
</svg>