<?xml version="1.0" encoding="UTF-8"?>
<svg width="17px" height="13px" viewBox="0 0 17 13" version="1.1" xmlns="http://www.w3.org/2000/svg" xmlns:xlink="http://www.w3.org/1999/xlink">
    <!-- Generator: Sketch 60 (88103) - https://sketch.com -->
    <title>Shape</title>
    <desc>Created with Sketch.</desc>
    <g id="Page-1" stroke="none" stroke-width="1" fill="none" fill-rule="evenodd">
        <g id="avtodrom_END" transform="translate(-162.000000, -28.000000)" fill="#FFFFFF">
            <g id="Group" transform="translate(49.000000, 27.000000)">
                <path d="M118.959095,10.0216308 C119.548686,9.81055385 121.075755,9.9246359 121.839523,9.9246359 C122.325726,9.9246359 122.855706,9.90252308 123.33632,9.92262564 C123.964566,9.94875897 123.953854,10.2930154 123.790855,10.7784923 C123.286489,10.9398154 119.462064,10.9408205 118.970272,10.7734667 C118.835216,10.4086051 118.846859,10.3804615 118.959095,10.0216308 L118.959095,10.0216308 Z M115.538908,9.13862564 C115.401988,8.5526359 115.738698,8.04655385 116.173673,7.93448205 C116.70505,7.79778462 117.187527,8.15561026 117.286258,8.61193846 C117.576862,9.95127179 115.817869,10.3276923 115.538908,9.13862564 L115.538908,9.13862564 Z M127.197537,9.21551795 C126.756974,10.4277026 125.085068,9.77085128 125.510729,8.49484103 C125.648114,8.0822359 126.144562,7.74953846 126.694568,7.96865641 C127.048043,8.10937436 127.399656,8.65968205 127.197537,9.21551795 Z M117.16005,3.08624615 C118.900415,2.66811282 123.836029,2.71887179 125.602474,3.08071795 C125.882832,3.83004103 126.286139,5.22917949 126.395581,6.08655385 C122.639615,5.48347692 120.113129,5.52669744 116.362286,6.08404103 C116.519697,4.98443077 116.837778,4.04614359 117.16005,3.08624615 L117.16005,3.08624615 Z M115.578493,5.83878974 C115.126753,5.64077949 115.152367,5.56690256 114.440293,5.56991795 C113.935928,5.57192821 113.612258,5.55433846 113.341214,5.88 C113.173557,6.08203077 112.699928,7.34195897 114.392791,7.27712821 C113.80972,8.62450256 113.974116,8.32246154 113.974116,10.2136103 C113.974116,11.0810359 113.879576,12.8942872 114.06167,13.5506359 C114.55579,13.7205026 115.330734,13.6405949 115.934297,13.6416 C116.905306,13.6421026 117.127916,13.8401128 117.116739,12.7435179 L125.640662,12.7445231 C125.652305,13.9451487 125.759885,13.6290359 128.033024,13.6446154 C129.066904,13.6511487 128.787477,13.0138974 128.787943,11.9796205 C128.787943,11.1348103 128.787477,10.2905026 128.787943,9.44569231 C128.788408,8.18626667 128.814954,8.22647179 128.367871,7.27913846 C130.100319,7.32537436 129.581981,6.07298462 129.418516,5.87346667 C129.117667,5.50609231 127.831371,5.37391795 127.204523,5.83426667 C127.191948,5.84331282 127.170991,5.86090256 127.153294,5.87246154 C127.081575,5.27742564 126.858033,4.45874872 126.691308,3.90341538 C126.499435,3.26566154 126.381144,2.51483077 125.844178,2.28264615 C125.225247,2.01477949 122.250746,1.95948936 121.412465,1.95948936 C120.403267,1.95899487 117.819033,1.98110769 116.96352,2.26606154 C116.382312,2.45954872 116.297086,3.19077949 116.10661,3.86170256 C115.959911,4.37683077 115.768969,5.34979487 115.578493,5.83878974 L115.578493,5.83878974 Z" id="Shape"></path>
            </g>
        </g>
    </g>
</svg>