<?xml version="1.0" encoding="UTF-8"?>
<svg width="17px" height="13px" viewBox="0 0 17 13" version="1.1" xmlns="http://www.w3.org/2000/svg" xmlns:xlink="http://www.w3.org/1999/xlink">
    <!-- Generator: Sketch 60 (88103) - https://sketch.com -->
    <title>Shape</title>
    <desc>Created with Sketch.</desc>
    <g id="Page-1" stroke="none" stroke-width="1" fill="none" fill-rule="evenodd">
        <g id="avtodrom_END" transform="translate(-49.000000, -28.000000)" fill="#FFFFFF">
            <g id="Group" transform="translate(49.000000, 27.000000)">
                <path d="M12.1126984,7.91236923 C12.1476267,7.46709744 12.2333177,7.59273846 12.6831953,7.59273846 C14.2330842,7.59273846 14.2745326,7.44598974 14.2284271,8.14606154 C14.2023472,8.54509744 14.1082734,8.50036923 13.7506068,8.49986667 L12.4698993,8.50087179 C12.0991927,8.50137436 12.0768385,8.36769231 12.1126984,7.91236923 Z M2.2484566,7.63495385 C2.60565755,7.55353846 3.91291059,7.55102564 4.26545443,7.63545641 C4.31668273,7.8596 4.3474197,8.05509744 4.28780859,8.28677949 C4.23611458,8.48981538 4.30271137,8.33753846 4.20072049,8.46669744 C3.85655946,8.58178462 3.1994401,8.49484103 2.78961372,8.50288205 C2.12364583,8.51544615 2.12550868,8.45765128 2.2484566,7.63495385 L2.2484566,7.63495385 Z M3.07788932,6.17952821 C3.16497743,5.36487179 3.50541276,4.23762051 3.77086849,3.44206154 C3.89893924,3.0576 3.85655946,2.95909744 4.2407717,2.89175385 C5.392477,2.68922051 7.00803125,2.67163077 8.2011849,2.67060332 C9.26487066,2.67012308 11.235763,2.67615385 12.2216749,2.89677949 C12.5765473,2.97618462 12.5728216,3.15610256 12.6957695,3.52498462 C12.9644852,4.33109744 13.250898,5.31813333 13.3561489,6.18254359 C12.8927656,6.12625641 12.449408,6.07901538 11.9809019,6.04484103 C11.1891918,5.98604103 11.7340747,5.72772308 11.0145499,5.57243077 C10.2172513,5.40105641 9.36313585,5.25682051 8.55698872,5.1226359 C8.44382075,4.94121026 8.39166102,4.56830769 8.05774566,4.82813333 C7.78623568,5.03921026 8.12899957,5.08645128 7.52636849,5.19349744 C3.67306901,5.87849231 5.61322439,5.73073846 4.72464627,6.01468718 C4.51461024,6.08152821 3.39503906,6.14635897 3.07788932,6.17952821 L3.07788932,6.17952821 Z M14.8902036,6.48257436 C16.0991914,6.34788718 16.479678,6.67606154 16.3693043,5.07388718 C16.3320473,4.53413333 16.0624002,4.67786667 14.9600603,4.67836923 C14.0821936,4.67836923 14.3714006,5.41211282 14.0351567,5.83979487 C13.6989128,4.85225641 13.5042452,2.73294359 12.7768034,2.28716923 C11.9934761,1.80722051 4.58632986,1.80068718 3.68378038,2.27410256 C3.22924566,2.51231795 3.05879514,3.31591795 2.87157899,3.93005128 C2.77471094,4.24867692 2.69879991,4.54317949 2.61404036,4.88492308 L2.41331858,5.73827692 C2.40912717,5.75033846 2.39375868,5.80109744 2.39096441,5.79054359 C2.38770443,5.77998974 2.37699306,5.82522051 2.36721311,5.84130256 C2.14180859,5.32014359 2.22563672,4.78491282 1.72266797,4.69294359 C1.36034418,4.62710769 0.414017795,4.56026667 0.184887587,4.78843077 C-0.0274769965,5.02111795 0.0372569444,5.76591795 0.107113715,6.13228718 C0.610548177,6.51272821 0.803352865,6.43432821 1.52986328,6.47151795 C1.11305122,6.76350769 1.14844531,6.48609231 1.01199175,7.06504615 C0.908603733,7.50277949 0.728373264,7.38015385 0.630108073,7.80130256 C0.549539931,8.14505641 0.607288194,9.60450256 0.607288194,10.0658564 C0.607288194,10.9046359 0.738153212,11.3589538 0.735824653,12.2153231 C0.733496094,13.1712 0.556059896,13.6481333 1.51356337,13.6476308 C3.93945616,13.6687385 3.21527431,13.6627077 3.50587847,12.8138769 C4.25520877,12.8500615 4.90254818,13.0430462 5.71055816,13.0530974 C6.51344531,13.0631487 7.32704384,13.0606359 8.12993099,13.0606359 C10.7523542,13.0606359 10.4044674,13.1073744 12.9742652,12.7937744 C12.9672795,13.8933846 13.3710516,13.6476308 14.3197066,13.6476308 C15.8016016,13.6476308 15.6907622,13.9345949 15.6907622,11.6775795 C15.6907622,11.1373231 15.7922873,11.1981333 15.8239557,10.7609026 C15.8644727,10.2020513 15.8831011,7.89528205 15.7331419,7.61887179 C15.6707365,7.50378462 15.5398715,7.39472821 15.4998203,7.33341538 C15.3130699,7.04745641 15.4672205,7.24797949 15.3922409,6.92332308 C15.3107413,6.57253333 15.2301732,6.6765641 14.8902036,6.48257436 L14.8902036,6.48257436 Z" id="Shape"></path>
            </g>
        </g>
    </g>
</svg>