<svg width="58" height="76" viewBox="0 0 58 76" fill="none" xmlns="http://www.w3.org/2000/svg">
<path d="M0.8 48.9C0.3 75.5 25.6 75 29.8 75C35.4 75 56.8 73.5 56.8 53.6C56.8 42 49.1 37.3 42 36.6V36.3C46.3 35.3 54.5 31.7 54.5 20.8C54.5 12.6 50 0.999997 29.4 0.999997C6.5 0.999997 2.5 16.1 2.6 26.1H17.3C17.4 15.1 23.1 13.2 28.6 13.2C37.6 13.2 39.8 18.7 39.8 22.2C39.8 30.6 32.1 31 28.5 31H23.2V42.5H30.2C39.5 42.5 41.2 48 41.2 52.1C41.2 54.6 40.3 62.8 29.2 62.8C19.1 62.8 16.2 55 16.3 48.9H0.8Z" fill="white"/>
<path d="M0.8 48.9V48.4H0.30931L0.300089 48.8906L0.8 48.9ZM42 36.6H41.5V37.0531L41.9509 37.0976L42 36.6ZM42 36.3L41.8867 35.813L41.5 35.9029V36.3H42ZM2.6 26.1L2.10003 26.105L2.10498 26.6H2.6V26.1ZM17.3 26.1V26.6H17.7955L17.8 26.1045L17.3 26.1ZM23.2 31V30.5H22.7V31H23.2ZM23.2 42.5H22.7V43H23.2V42.5ZM16.3 48.9L16.7999 48.9082L16.8083 48.4H16.3V48.9ZM0.300089 48.8906C0.17355 55.6224 1.67972 60.6796 4.10872 64.4698C6.53682 68.2586 9.86439 70.7461 13.3243 72.3773C20.225 75.6307 27.7059 75.5 29.8 75.5V74.5C27.6941 74.5 20.425 74.6193 13.7507 71.4727C10.4231 69.9039 7.25693 67.5289 4.95066 63.9302C2.64528 60.3329 1.17645 55.4776 1.29991 48.9094L0.300089 48.8906ZM29.8 75.5C32.6269 75.5 39.4646 75.1239 45.6138 72.2145C48.6947 70.7568 51.6206 68.6548 53.776 65.6292C55.9349 62.5986 57.3 58.6703 57.3 53.6H56.3C56.3 58.4797 54.9901 62.2014 52.9615 65.049C50.9294 67.9015 48.1553 69.9057 45.1862 71.3105C39.2354 74.1261 32.5731 74.5 29.8 74.5V75.5ZM57.3 53.6C57.3 47.6801 55.3307 43.4698 52.4096 40.6526C49.4986 37.8451 45.6843 36.4608 42.0491 36.1024L41.9509 37.0976C45.4157 37.4392 49.0014 38.7549 51.7154 41.3724C54.4193 43.9802 56.3 47.9199 56.3 53.6H57.3ZM42.5 36.6V36.3H41.5V36.6H42.5ZM42.1133 36.787C44.3142 36.2752 47.5292 35.0957 50.2016 32.63C52.8893 30.15 55 26.3928 55 20.8H54C54 26.1072 52.0107 29.6 49.5234 31.895C47.0208 34.2043 43.9858 35.3248 41.8867 35.813L42.1133 36.787ZM55 20.8C55 16.6167 53.8525 11.5276 50.0388 7.48203C46.2181 3.429 39.7942 0.499997 29.4 0.499997V1.5C39.6058 1.5 45.7319 4.37099 49.3112 8.16797C52.8975 11.9724 54 16.7833 54 20.8H55ZM29.4 0.499997C17.8304 0.499997 10.9426 4.32144 6.9781 9.49591C3.03241 14.6458 2.04947 21.0498 2.10003 26.105L3.09998 26.095C3.05053 21.1502 4.0176 15.0042 7.7719 10.1041C11.5074 5.22856 18.0696 1.5 29.4 1.5V0.499997ZM2.6 26.6H17.3V25.6H2.6V26.6ZM17.8 26.1045C17.8493 20.6845 19.276 17.6235 21.2533 15.9021C23.2421 14.1707 25.8928 13.7 28.6 13.7V12.7C25.8072 12.7 22.858 13.1793 20.5967 15.1479C18.324 17.1265 16.8507 20.5155 16.8 26.0955L17.8 26.1045ZM28.6 13.7C32.9932 13.7 35.6475 15.0385 37.2078 16.7268C38.7783 18.4263 39.3 20.5445 39.3 22.2H40.3C40.3 20.3555 39.7217 17.9737 37.9422 16.0481C36.1525 14.1115 33.2068 12.7 28.6 12.7V13.7ZM39.3 22.2C39.3 24.2214 38.8377 25.7243 38.1192 26.8497C37.4003 27.9757 36.4036 28.7569 35.2821 29.3C33.0191 30.3957 30.297 30.5 28.5 30.5V31.5C30.303 31.5 33.2309 31.4042 35.7179 30.2C36.9714 29.593 38.1247 28.6993 38.9621 27.3878C39.7998 26.0757 40.3 24.3786 40.3 22.2H39.3ZM28.5 30.5H23.2V31.5H28.5V30.5ZM22.7 31V42.5H23.7V31H22.7ZM23.2 43H30.2V42H23.2V43ZM30.2 43C34.7489 43 37.3387 44.3411 38.8048 46.0843C40.2849 47.8441 40.7 50.1069 40.7 52.1H41.7C41.7 49.9931 41.2651 47.4559 39.5702 45.4407C37.8613 43.4089 34.9511 42 30.2 42V43ZM40.7 52.1C40.7 53.3066 40.48 55.8634 38.9495 58.1056C37.4424 60.3138 34.6076 62.3 29.2 62.3V63.3C34.8924 63.3 38.0576 61.1862 39.7755 58.6694C41.4701 56.1866 41.7 53.3934 41.7 52.1H40.7ZM29.2 62.3C24.2977 62.3 21.2032 60.4169 19.3292 57.8432C17.4375 55.2451 16.7511 51.8879 16.7999 48.9082L15.8001 48.8918C15.7489 52.0121 16.4625 55.6049 18.5208 58.4318C20.5968 61.2831 24.0023 63.3 29.2 63.3V62.3ZM16.3 48.4H0.8V49.4H16.3V48.4Z" fill="#F77620"/>
</svg>
