<svg width="56" height="74" viewBox="0 0 56 74" fill="none" xmlns="http://www.w3.org/2000/svg">
<path d="M55.2 60.8H21C24 55.4 28.8 52.8 36.2 48.5C51.9 39.3 55.3 32.1 55.3 23C55.3 1.3 32.4 0.999997 29.1 0.999997C6.8 0.999997 1.3 15 1.3 25.1V27.2H16.6V24.7C16.6 17.7 21.3 13.2 28.5 13.2C34.4 13.2 39.7 16.2 39.7 23.7C39.7 32.9 32.4 35.7 19.3 44.7C4.5 54.8 1.6 61 1.6 70.2V73H55.2V60.8Z" fill="white"/>
<path d="M55.2 60.8H55.7V60.3H55.2V60.8ZM21 60.8L20.5629 60.5572L20.1502 61.3H21V60.8ZM36.2 48.5L36.4512 48.9323L36.4528 48.9314L36.2 48.5ZM1.3 27.2H0.8V27.7H1.3V27.2ZM16.6 27.2V27.7H17.1V27.2H16.6ZM19.3 44.7L19.5818 45.113L19.5831 45.1121L19.3 44.7ZM1.6 73H1.1V73.5H1.6V73ZM55.2 73V73.5H55.7V73H55.2ZM55.2 60.3H21V61.3H55.2V60.3ZM21.4371 61.0428C24.3561 55.7885 29.011 53.2557 36.4512 48.9323L35.9488 48.0677C28.589 52.3443 23.6439 55.0115 20.5629 60.5572L21.4371 61.0428ZM36.4528 48.9314C44.3311 44.3148 49.1773 40.1701 52.0494 35.9959C54.9337 31.8042 55.8 27.6225 55.8 23H54.8C54.8 27.4775 53.9663 31.4458 51.2256 35.4291C48.4727 39.4299 43.769 43.4852 35.9472 48.0686L36.4528 48.9314ZM55.8 23C55.8 17.4819 54.3423 13.2903 52.0773 10.1173C49.8154 6.9488 46.7713 4.82746 43.6443 3.40725C37.404 0.573072 30.7628 0.499997 29.1 0.499997V1.5C30.7372 1.5 37.196 1.57692 43.2307 4.31775C46.2412 5.68504 49.1283 7.70744 51.2634 10.6983C53.3952 13.6847 54.8 17.6681 54.8 23H55.8ZM29.1 0.499997C17.8391 0.499997 10.7384 4.03951 6.46103 8.93345C2.19586 13.8134 0.8 19.9693 0.8 25.1H1.8C1.8 20.1307 3.15414 14.2366 7.21397 9.59154C11.2616 4.96048 18.0609 1.5 29.1 1.5V0.499997ZM0.8 25.1V27.2H1.8V25.1H0.8ZM1.3 27.7H16.6V26.7H1.3V27.7ZM17.1 27.2V24.7H16.1V27.2H17.1ZM17.1 24.7C17.1 21.3155 18.2335 18.5775 20.197 16.685C22.1624 14.7906 25.0047 13.7 28.5 13.7V12.7C24.7953 12.7 21.6876 13.8594 19.503 15.965C17.3165 18.0725 16.1 21.0845 16.1 24.7H17.1ZM28.5 13.7C31.3733 13.7 34.0487 14.4313 35.9959 16.0245C37.9272 17.6047 39.2 20.0793 39.2 23.7H40.2C40.2 19.8207 38.8228 17.0453 36.6291 15.2505C34.4513 13.4687 31.5267 12.7 28.5 12.7V13.7ZM39.2 23.7C39.2 25.9292 38.7589 27.7479 37.9118 29.3648C37.0619 30.9869 35.7892 32.4329 34.0867 33.8958C32.3814 35.3609 30.2641 36.8271 27.7381 38.4986C25.2198 40.1651 22.2964 42.0348 19.0169 44.2879L19.5831 45.1121C22.8536 42.8652 25.7552 41.0099 28.29 39.3326C30.8171 37.6604 32.9811 36.1641 34.7383 34.6542C36.4983 33.1421 37.8693 31.6006 38.7976 29.8289C39.7286 28.052 40.2 26.0708 40.2 23.7H39.2ZM19.0182 44.287C11.6004 49.3491 7.11003 53.469 4.48075 57.5151C1.83714 61.5831 1.1 65.5373 1.1 70.2H2.1C2.1 65.6627 2.81286 61.9169 5.31925 58.0599C7.83998 54.181 12.1996 50.1509 19.5818 45.113L19.0182 44.287ZM1.1 70.2V73H2.1V70.2H1.1ZM1.6 73.5H55.2V72.5H1.6V73.5ZM55.7 73V60.8H54.7V73H55.7Z" fill="#F77620"/>
</svg>
