<?xml version="1.0" encoding="UTF-8"?>
<svg width="57px" height="74px" viewBox="0 0 57 74" version="1.1" xmlns="http://www.w3.org/2000/svg" xmlns:xlink="http://www.w3.org/1999/xlink">
    <!-- Generator: Sketch 60 (88103) - https://sketch.com -->
    <title>2</title>
    <desc>Created with Sketch.</desc>
    <g id="Page-1" stroke="none" stroke-width="1" fill="none" fill-rule="evenodd">
        <g id="Главная-Томь-Лада" transform="translate(-619.000000, -973.000000)" fill="#FFFFFF" fill-rule="nonzero" stroke="#F77620" stroke-width="2">
            <g id="Group-29" transform="translate(222.000000, 804.000000)">
                <g id="Group-28" transform="translate(0.000000, 172.000000)">
                    <g id="Group-23" transform="translate(393.000000, 0.000000)">
                        <path d="M59.2,70 L59.2,57.8 L25,57.8 C28,52.4 32.8,49.8 40.2,45.5 C55.9,36.3 59.3,29.1 59.3,20 C59.3,-1.7 36.4,-2 33.1,-2 C10.8,-2 5.3,12 5.3,22.1 L5.3,24.2 L20.6,24.2 L20.6,21.7 C20.6,14.7 25.3,10.2 32.5,10.2 C38.4,10.2 43.7,13.2 43.7,20.7 C43.7,29.9 36.4,32.7 23.3,41.7 C8.5,51.8 5.6,58 5.6,67.2 L5.6,70 L59.2,70 Z" id="2"></path>
                    </g>
                </g>
            </g>
        </g>
    </g>
</svg>