<?xml version="1.0" encoding="UTF-8"?>
<svg width="59px" height="76px" viewBox="0 0 59 76" version="1.1" xmlns="http://www.w3.org/2000/svg" xmlns:xlink="http://www.w3.org/1999/xlink">
    <!-- Generator: Sketch 60 (88103) - https://sketch.com -->
    <title>6</title>
    <desc>Created with Sketch.</desc>
    <g id="Page-1" stroke="none" stroke-width="1" fill="none" fill-rule="evenodd">
        <g id="Главная-Томь-Лада" transform="translate(-1012.000000, -1399.000000)" fill="#FFFFFF" fill-rule="nonzero" stroke="#F77620" stroke-width="2">
            <g id="Group-23" transform="translate(1009.000000, 1402.000000)">
                <path d="M33.8,72 C54.9,72 60.1,56.7 60.1,45.8 C60.1,28.5 46.9,21.9 35.3,21.9 C28.8,21.9 23.7,24.1 19.8,28.1 C20.3,18.2 23.5,10.2 33.4,10.2 C36.6,10.2 43.3,10.8 45.1,16.5 L59.3,16.5 C57.7,8.7 52.3,-2 34.2,-2 C5.4,-2 4.7,28.1 4.7,35.4 C4.7,71.4 26.5,72 33.8,72 Z M32.9,59.8 C24.3,59.8 19.8,53.2 19.8,45.9 C19.8,36.5 26.4,32.7 32.7,32.7 C40.1,32.7 45.6,37.8 45.6,46.2 C45.6,53.5 41.3,59.8 32.9,59.8 Z" id="6"></path>
            </g>
        </g>
    </g>
</svg>