<?xml version="1.0" encoding="UTF-8"?>
<svg width="59px" height="76px" viewBox="0 0 59 76" version="1.1" xmlns="http://www.w3.org/2000/svg" xmlns:xlink="http://www.w3.org/1999/xlink">
    <!-- Generator: Sketch 60 (88103) - https://sketch.com -->
    <title>3</title>
    <desc>Created with Sketch.</desc>
    <g id="Page-1" stroke="none" stroke-width="1" fill="none" fill-rule="evenodd">
        <g id="Главная-Томь-Лада" transform="translate(-1010.000000, -973.000000)" fill="#FFFFFF" fill-rule="nonzero" stroke="#F77620" stroke-width="2">
            <g id="Group-29" transform="translate(222.000000, 804.000000)">
                <g id="Group-28" transform="translate(0.000000, 172.000000)">
                    <g id="Group-23" transform="translate(786.000000, 0.000000)">
                        <path d="M32.8,72.0006564 C38.4,72.0006564 59.8,70.5 59.8,50.6 C59.8,39 52.1,34.3 45,33.6 L45,33.3 C49.3,32.3 57.5,28.7 57.5,17.8 C57.5,9.6 53,-2 32.4,-2 C9.5,-2 5.5,13.1 5.6,23.1 L20.3,23.1 C20.4,12.1 26.1,10.2 31.6,10.2 C40.6,10.2 42.8,15.7 42.8,19.2 C42.8,27.4864865 35.306702,27.9877283 31.648163,27.9997621 L26.2,28 L26.2,39.5 L33.2,39.5 C42.5,39.5 44.2,45 44.2,49.1 C44.2,51.6 43.3,59.8 32.2,59.8 C22.1,59.8 19.2,52 19.3,45.9 L3.8,45.9 C3.3,72.5 28.6,72.0006564 32.8,72.0006564 Z" id="3"></path>
                    </g>
                </g>
            </g>
        </g>
    </g>
</svg>