<?xml version="1.0" encoding="UTF-8"?>
<svg width="58px" height="74px" viewBox="0 0 58 74" version="1.1" xmlns="http://www.w3.org/2000/svg" xmlns:xlink="http://www.w3.org/1999/xlink">
    <!-- Generator: Sketch 60 (88103) - https://sketch.com -->
    <title>5</title>
    <desc>Created with Sketch.</desc>
    <g id="Page-1" stroke="none" stroke-width="1" fill="none" fill-rule="evenodd">
        <g id="Главная-Томь-Лада" transform="translate(-619.000000, -1401.000000)" fill="#FFFFFF" fill-rule="nonzero" stroke="#F77620" stroke-width="2">
            <g id="Group-23" transform="translate(616.000000, 1402.000000)">
                <path d="M31.8,72 C51.8,72 59.7,59 59.7,45.8 C59.7,32 50.8,22.4 36.2,22.4 C26.8,22.4 21.5,25.8 19.4,27.4 L21.4,12.2 L55.4,12.2 L55.4,0 L10.7,0 L6.2,37.5 L21.7,37.5 C24.2,33.5 29.3,32.5 32.5,32.5 C38.2,32.5 44.1,36.6 44.1,45.6 C44.1,49.1 43.5,60 32.2,60 C23.8,60 21,54.1 20.5,49.7 L4.9,49.7 C5.4,58 10.2,72 31.8,72 Z" id="5"></path>
            </g>
        </g>
    </g>
</svg>