<svg width="247" height="41" viewBox="0 0 247 41" fill="none" xmlns="http://www.w3.org/2000/svg">
	<style xmlns="http://www.w3.org/2000/svg">
	@keyframes move1 { 
	    0% { transform: translateY(0); } 
	    30% { transform: translateY(-20px); }
	    60% { transform: translateY(0); } 
	    100% { transform: translateY(0); }
	}
    </style>
<path id="path-1" style="animation: 2000ms ease-in-out infinite both move1; animation-delay: 0ms;" fill-rule="evenodd" clip-rule="evenodd" d="M20.0565 32.1342C20.1145 31.4487 20.2569 31.6421 21.0043 31.6421C23.5792 31.6421 23.648 31.4162 23.5714 32.4939C23.5281 33.1083 23.3718 33.0394 22.7776 33.0386L20.6499 33.0402C20.0341 33.0409 19.9969 32.8351 20.0565 32.1342ZM3.66875 31.7071C4.26217 31.5817 6.43399 31.5779 7.01968 31.7078C7.10479 32.0529 7.15581 32.3539 7.05678 32.7106C6.9709 33.0231 7.0816 32.7887 6.91216 32.9875C6.3404 33.1647 5.24865 33.0309 4.56779 33.0433C3.4614 33.0626 3.46449 32.9736 3.66875 31.7071V31.7071ZM5.04675 29.4664C5.19143 28.2123 5.75699 26.4769 6.198 25.2521C6.41077 24.6602 6.34035 24.5086 6.97865 24.4049C8.89201 24.0931 11.576 24.066 13.5582 24.0645C15.3253 24.0637 18.5996 24.073 20.2375 24.4126C20.8271 24.5349 20.8209 24.8119 21.0252 25.3798C21.4716 26.6208 21.9475 28.1403 22.1223 29.4711C21.3525 29.3844 20.6159 29.3117 19.8376 29.2591C18.5223 29.1686 19.4275 28.7709 18.2321 28.5318C16.9076 28.268 15.4885 28.0459 14.1493 27.8393C13.9613 27.56 13.8746 26.986 13.3199 27.386C12.8688 27.7109 13.4383 27.7837 12.4371 27.9485C6.0355 29.003 9.25879 28.7755 7.78258 29.2127C7.43364 29.3156 5.57364 29.4154 5.04675 29.4664V29.4664ZM24.6708 29.933C26.6794 29.7256 27.3114 30.2309 27.1281 27.7643C27.0662 26.9333 26.6182 27.1546 24.7869 27.1554C23.3285 27.1554 23.809 28.285 23.2504 28.9434C22.6918 27.4231 22.3683 24.1604 21.1598 23.4741C19.8584 22.7353 7.55274 22.7252 6.05331 23.454C5.29818 23.8208 5.01505 25.0579 4.70402 26.0034C4.54309 26.4939 4.41696 26.9473 4.27615 27.4734L3.94264 28.7871C3.93568 28.8057 3.91018 28.8838 3.90554 28.8676C3.90013 28.8513 3.88235 28.921 3.8661 28.9457C3.49163 28.1434 3.63083 27.3194 2.79524 27.1778C2.1933 27.0765 0.621179 26.9736 0.240519 27.3248C-0.112288 27.6831 -0.00473816 28.8297 0.111317 29.3937C0.947686 29.9794 1.26798 29.8587 2.47495 29.916C1.78249 30.3655 1.84128 29.9384 1.61459 30.8297C1.44283 31.5036 1.14339 31.3148 0.980142 31.9632C0.846292 32.4924 0.942288 34.7392 0.942288 35.4495C0.942288 36.7408 1.15968 37.4402 1.15581 38.7586C1.15194 40.2302 0.857178 40.9644 2.4479 40.9636C6.4781 40.9961 5.27495 40.9868 5.75774 39.68C7.00262 39.7358 8.07812 40.0329 9.42049 40.0483C10.7543 40.0638 12.1059 40.0599 13.4398 40.0599C17.7965 40.0599 17.2186 40.1319 21.4879 39.6491C21.4763 41.342 22.147 40.9636 23.723 40.9636C26.185 40.9636 26.0009 41.4054 26.0009 37.9307C26.0009 37.099 26.1695 37.1926 26.2221 36.5195C26.2894 35.6591 26.3204 32.1079 26.0713 31.6823C25.9676 31.5051 25.7501 31.3372 25.6836 31.2429C25.3733 30.8026 25.6295 31.1113 25.5049 30.6115C25.3695 30.0715 25.2356 30.2316 24.6708 29.933V29.933Z" fill="#475866"/>
<path id="path-2" style="animation: 2000ms ease-in-out infinite both move1; animation-delay: 250ms;" fill-rule="evenodd" clip-rule="evenodd" d="M48.7096 37.8928C47.8926 38.5953 45.4113 38.289 44.1587 38.2928C43.2953 38.2951 42.6252 38.3284 42.1409 37.8433C41.7974 37.499 41.1745 36.5102 41.9111 36.258C42.2724 36.1342 48.9448 36.1481 49.1615 36.2696C49.7913 36.6201 48.9982 37.6437 48.7096 37.8928V37.8928ZM53.8501 33.7907C55.0253 33.1926 55.5413 34.7771 54.6779 35.2359C53.6929 35.7605 52.8806 34.2843 53.8501 33.7907ZM36.27 33.817C37.3222 33.1794 37.9738 34.7106 37.1622 35.2088C36.7591 35.4564 36.2282 35.3056 36.0054 34.9899C35.6333 34.4622 35.8646 34.0622 36.27 33.817V33.817ZM37.5327 30.504C37.6813 29.9585 38.2445 29.0394 38.5068 28.5156C38.8472 27.8363 39.0144 27.1763 39.9026 27.0579C41.2674 26.8761 44.0612 27.0409 45.5777 27.0409C53.1878 27.0409 51.0616 26.2417 53.4647 30.4932C51.2558 31.9299 48.4318 31.5485 45.4592 31.5485C42.6584 31.5485 39.6588 31.9245 37.5327 30.504V30.504ZM36.2407 29.9191C35.5567 29.6932 35.4306 29.5415 34.5904 29.5175C34.062 29.5021 33.1659 29.4193 32.9168 29.7875C32.123 30.962 34.2461 31.9245 34.3776 32.0406C34.1122 33.1516 33.699 33.656 33.6727 35.1121C33.651 36.3253 33.6734 37.5617 33.6734 38.7772C33.6727 40.4491 33.2798 41.0008 35.0539 40.9853C37.9514 40.9598 37.1514 41.2066 38.0133 40.3501C40.0821 40.6727 43.3021 40.6596 45.4592 40.5543C47.9931 40.4313 50.3312 40.747 52.9053 40.3563C52.9308 40.3772 52.958 40.4104 52.9735 40.4274C52.9889 40.4437 53.0214 40.4777 53.0399 40.4986C53.2929 40.7795 53.2821 40.8901 53.648 40.966C53.9049 41.0186 54.6121 40.9837 54.9147 40.983C57.9104 40.9745 57.2776 41.4526 57.2861 36.0591C57.2892 34.2363 57.146 33.5555 56.5603 32.0406C57.2582 31.4866 58.5007 31.3048 58.0256 29.6452C56.5788 29.2645 55.884 29.6436 54.6786 29.9005C53.7246 28.9349 53.2991 26.8119 51.7896 26.2982C51.1266 26.0722 39.8887 26.0421 39.1421 26.3098C37.5096 26.8947 37.3718 28.9063 36.2407 29.9191V29.9191Z" fill="#475866"/>
<path id="path-3" style="animation: 2000ms ease-in-out infinite both move1; animation-delay: 500ms;" fill-rule="evenodd" clip-rule="evenodd" d="M86.8701 33.0386C87.2933 32.9751 87.8442 32.7887 87.92 33.328C87.9571 33.5926 87.6693 34.2525 87.5285 34.4506C87.0503 35.1229 85.7203 34.8808 84.8669 34.8885C84.3903 34.8931 83.7784 35.0161 83.7204 34.5086C83.5533 33.0548 86.0476 33.1616 86.8701 33.0386V33.0386ZM63.7133 35.5647V28.4343C64.4282 27.7999 65.3257 27.7031 66.5768 27.6436C66.7377 27.9917 66.6812 27.9739 67.0224 28.2316C67.4502 27.683 68.2867 24.9728 69.2901 24.1318C70.3787 23.218 73.8495 23.3936 74.7284 23.0447H79.0178C80.2433 23.5747 82.9475 23.1205 84.2295 24.1588C84.8121 24.6308 86.0476 27.2219 86.3664 28.2602L86.6945 27.936C87.3629 27.2668 89.2005 27.9113 89.6925 28.3623C89.7274 29.5453 88.8786 29.3271 88.3919 29.9438C89.732 30.6339 89.7938 33.1051 89.7219 34.9829C89.6824 36.0227 89.5045 40.3005 89.2886 40.8119C88.4987 41.0348 87.3203 40.9435 86.4066 40.9466C84.9791 40.9512 84.6782 41.2135 84.4879 39.8634C79.5169 39.5477 74.0111 39.5206 69.0316 39.8317C68.7562 40.3531 69.1655 40.3616 68.5914 40.8204C68.0444 41.0765 65.0332 41.0293 64.3144 40.8591C63.509 39.9732 64.2433 36.9048 63.7133 35.5647V35.5647ZM67.2382 33.1144C68.1852 33.2374 69 33.1701 69.492 33.8185C70.5118 35.1632 68.7423 34.8846 67.7319 34.8846C66.3075 34.8846 66.1294 35.0773 65.6598 33.8502C65.1693 32.5674 66.3167 32.9945 67.2382 33.1144V33.1144ZM68.3539 28.5736C68.4962 27.9623 68.9984 26.9619 69.3041 26.3886C69.7551 25.5437 69.8966 25.0076 70.9388 24.832C74.634 24.2084 78.8856 24.114 82.5916 24.8428C83.575 25.037 83.7667 25.6242 84.183 26.4536C84.5249 27.1345 84.9907 27.8749 85.1106 28.596C79.5887 27.9941 73.8618 28.3817 68.3539 28.5736V28.5736Z" fill="#475866"/>
<path id="path-4" style="animation: 2000ms ease-in-out infinite both move1; animation-delay: 750ms;" fill-rule="evenodd" clip-rule="evenodd" d="M112.684 32.292C112.449 31.5771 112.937 30.8661 113.402 30.7438C114.176 30.5403 114.771 30.9713 114.913 31.4951C115.351 33.1129 113.098 33.5539 112.684 32.292V32.292ZM100.915 32.1744C100.421 33.6901 98.2147 33.1299 98.6472 31.5098C99.0294 30.0815 101.379 30.7516 100.915 32.1744ZM100.417 21.4223L113.111 21.4695L114.013 26.4266C109.436 26.0281 104.147 25.8347 99.4959 26.3778L100.417 21.4223ZM97.7853 26.6602L97.7057 26.3647C97.701 26.3291 97.6964 26.2958 97.6925 26.2548C97.6763 26.1001 97.6932 25.926 97.6715 25.7875C97.5972 25.3264 97.6421 25.4123 97.1996 25.3148C96.822 25.232 95.8324 25.0718 95.4665 25.1306C95.3434 25.5948 95.3489 26.4622 95.4634 26.9411C95.5787 27.4223 96.0901 27.7078 96.5102 27.8804C96.2023 28.825 95.8882 28.2177 95.8952 29.5678C95.899 30.3694 95.9029 31.1686 95.8952 31.9694L96.5892 32.5334C96.5807 32.5334 96.5373 32.5226 96.5233 32.5605C96.5094 32.5976 96.46 32.5961 96.4407 32.6046C95.2531 33.1222 95.3513 32.9171 95.3513 35.3651C95.3521 41.3574 94.8537 40.9775 98.0251 40.9984C99.988 41.0116 99.8426 40.3888 99.8318 38.5659C100.312 38.4924 101.11 38.6239 101.501 38.4746C102.079 38.2541 101.258 38.2812 102.149 38.1682L111.269 38.1621C112.641 38.2464 110.578 38.4708 113.74 38.5265C113.711 40.2054 113.556 41.0039 115.391 41C118.754 40.9915 118.216 41.2383 118.216 35.6019C118.216 34.0576 118.589 32.7934 116.954 32.6425C117.87 31.5856 117.654 32.179 117.655 30.4011C117.658 27.4347 117.376 29.1624 117.027 27.8749C118.202 27.29 118.373 26.849 118.068 25.1283C117.587 25.095 116.052 25.1399 115.911 25.704C115.849 25.9508 115.911 25.95 115.893 26.1411C115.891 26.1527 115.968 26.3647 115.751 26.6989C115.235 26.5256 115.402 26.6989 115.211 25.2482C115.071 24.1929 114.596 21.0262 114.069 20.4962C113.385 19.8091 111.809 20.0358 110.668 20.0358H102.868C98.9473 20.0351 99.2971 19.7774 98.6039 23.5337L98.0987 26.3322C97.9656 26.6378 98.0716 26.5225 97.7853 26.6602V26.6602Z" fill="#475866"/>
<path id="path-5" style="animation: 2000ms ease-in-out infinite both move1; animation-delay: 1000ms;" fill-rule="evenodd" clip-rule="evenodd" d="M143.543 36.5303C142.997 34.7817 144.084 34.7562 144.775 34.5519C145.434 34.3585 146.896 33.8456 147.511 34.1001C147.775 35.2181 146.853 35.5392 146.058 35.844C145.415 36.0916 144.325 36.6402 143.543 36.5303V36.5303ZM131.325 36.4785C130.713 36.7028 129.367 36.0289 128.772 35.8162C128.013 35.5454 127.07 35.1129 127.424 34.1148C127.783 33.9407 127.644 33.974 128.14 34.0668L130.13 34.5767C131.187 34.8374 131.785 35.0928 131.325 36.4785V36.4785ZM128.734 30.1527C129.16 28.4575 129.499 26.3809 131.266 26.1364C133.588 25.8153 141.523 25.7643 143.761 26.1565C144.669 26.3151 145.13 26.825 145.422 27.673C145.698 28.4722 145.964 29.3093 146.173 30.1612L144.866 30.008C144.473 27.2977 143.607 27.4277 140.946 27.4153C139.826 27.4099 139.041 27.5848 138.54 28.3252C137.823 29.3836 138.925 29.8301 136.768 29.5949C136.158 27.2776 135.635 27.4215 133.146 27.4161C130.897 27.4115 130.402 27.779 130.041 30.0057L128.734 30.1527V30.1527ZM127.472 29.6513C126.574 29.7202 124.75 29.1546 124.139 29.772C123.844 30.0707 123.728 30.6223 123.952 31.0618C124.155 31.461 124.569 31.5392 125.064 31.8355C124.266 34.432 124.986 35.3295 125.003 37.9423C125.007 38.7879 124.671 40.6587 125.48 40.9063C125.998 41.0642 128.539 41.0092 128.937 40.8359C129.39 40.3748 129.191 40.1674 129.263 39.5106C134.94 40.4096 140.023 40.1001 145.686 39.5199C145.68 40.7152 145.698 40.9682 146.972 40.9589C151.052 40.928 149.526 41.4603 150.033 36.1821C150.227 34.162 150.401 33.7388 149.842 31.8177C150.337 31.5616 150.754 31.4355 150.959 31.0463C151.223 30.5457 151.054 29.9995 150.707 29.7186C150.068 29.2018 148.365 29.6908 147.448 29.6645C146.696 28.3221 146.997 25.9886 144.634 25.0409C143.075 24.4149 131.921 24.4567 130.377 25.0091C129.502 25.3225 128.742 25.9956 128.401 26.8118C128.055 27.6397 127.862 28.866 127.472 29.6513V29.6513Z" fill="#475866"/>
<path id="path-6" style="animation: 2000ms ease-in-out infinite both move1; animation-delay: 1250ms;" fill-rule="evenodd" clip-rule="evenodd" d="M173.179 35.4594C173.601 36.6974 172.811 36.6061 171.746 36.5983L166.237 36.5759C165.486 36.4219 165.349 35.3016 166.663 35.3016C167.816 35.3016 172.376 35.1569 173.179 35.4594ZM177.606 33.0556C178.988 32.3917 179.835 34.555 178.548 35.085C176.991 35.7264 176.341 33.6637 177.606 33.0556ZM160.504 33.0741C161.989 32.4343 162.625 34.5937 161.407 35.0772C159.959 35.6506 159.185 33.6428 160.504 33.0741ZM161.983 25.0633L177.067 25.0942L178.327 29.2946L160.626 29.2652L161.983 25.0633ZM159.745 27.8145C158.908 27.7673 157.51 27.4447 156.832 27.6335C156.505 28.2068 156.705 29.266 157.153 29.6157C157.571 29.943 158.28 30.1851 158.724 30.5054C158.085 32.0467 157.669 31.0501 157.68 33.3418C157.686 34.6417 157.681 35.943 157.681 37.2428C157.681 38.008 157.46 40.5349 157.991 40.8398C158.461 41.1106 161.281 40.9875 161.744 40.8336C162.002 40.1821 161.888 39.844 161.934 39.034L177.103 39.0649C177.102 41.1848 176.715 40.962 180.137 40.9605C181.665 40.9605 181.26 40.757 181.309 35.8246C181.316 35.054 181.382 32.3105 181.187 31.9345C180.954 31.4819 180.439 30.9643 180.283 30.5054C180.687 30.2161 181.59 29.8687 181.921 29.5701C182.348 29.184 182.466 28.1364 182.164 27.6273L179.313 27.8114C177.174 23.1631 180.653 23.7572 169.5 23.7572C167.214 23.7572 164.926 23.748 162.642 23.7534C161.334 23.7565 160.923 24.0412 160.567 25.119C160.293 25.9522 159.909 27.006 159.745 27.8145V27.8145Z" fill="#475866"/>
<path id="path-7" style="animation: 2000ms ease-in-out infinite both move1; animation-delay: 1500ms;" fill-rule="evenodd" clip-rule="evenodd" d="M197.563 35.3814C198.543 35.0565 201.08 35.2321 202.349 35.2321C203.156 35.2321 204.037 35.1981 204.835 35.229C205.879 35.2692 205.861 35.7992 205.59 36.5466C204.753 36.795 198.399 36.7965 197.582 36.5389C197.357 35.9772 197.377 35.9338 197.563 35.3814V35.3814ZM191.881 34.022C191.654 33.1199 192.213 32.3408 192.936 32.1682C193.819 31.9578 194.62 32.5087 194.784 33.2112C195.267 35.2731 192.345 35.8526 191.881 34.022ZM211.25 34.1404C210.518 36.0066 207.741 34.9954 208.448 33.0309C208.676 32.3957 209.501 31.8835 210.414 32.2209C211.002 32.4375 211.586 33.2847 211.25 34.1404V34.1404ZM194.574 24.7044C197.466 24.0606 205.665 24.1388 208.6 24.6959C209.066 25.8495 209.736 28.0034 209.918 29.3234C203.678 28.3949 199.48 28.4615 193.249 29.3195C193.511 27.6266 194.039 26.1821 194.574 24.7044V24.7044ZM191.947 28.9419C191.196 28.6371 191.239 28.5234 190.056 28.528C189.218 28.5311 188.68 28.504 188.23 29.0054C187.952 29.3164 187.165 31.2561 189.977 31.1563C189.009 33.2305 189.282 32.7655 189.282 35.677C189.282 37.0124 189.125 39.8039 189.427 40.8143C190.248 41.0758 191.535 40.9528 192.538 40.9544C194.151 40.9551 194.521 41.26 194.503 39.5718L208.664 39.5733C208.683 41.4217 208.862 40.935 212.638 40.959C214.356 40.9691 213.891 39.988 213.892 38.3958C213.892 37.0952 213.891 35.7953 213.892 34.4948C213.893 32.5559 213.937 32.6178 213.194 31.1594C216.073 31.2305 215.211 29.3025 214.94 28.9953C214.44 28.4297 212.303 28.2263 211.262 28.935C211.241 28.9489 211.206 28.976 211.177 28.9938C211.057 28.0777 210.686 26.8173 210.409 25.9624C210.09 24.9806 209.894 23.8247 209.002 23.4672C207.973 23.0548 203.032 22.9697 201.639 22.9697C199.963 22.969 195.669 23.003 194.248 23.4417C193.282 23.7396 193.141 24.8653 192.824 25.8982C192.581 26.6912 192.263 28.1891 191.947 28.9419V28.9419Z" fill="#475866"/>
<path id="path-8" style="animation: 2000ms ease-in-out infinite both move1; animation-delay: 1750ms;" fill-rule="evenodd" clip-rule="evenodd" d="M242.508 32.7422L242.561 34.825L239.611 34.856C239.65 34.5635 240.139 33.2482 240.249 33.0401C240.552 32.4668 241.876 32.6579 242.508 32.7422V32.7422ZM223.925 32.7384L226.047 32.709C226.254 33.0974 226.801 34.3531 226.879 34.8111L223.96 34.8637L223.925 32.7384V32.7384ZM224.914 27.8633C224.837 27.2466 226.076 24.3182 226.447 24.0868C227.666 23.3286 236.823 23.6018 239.072 23.8679C240.212 24.0025 240.217 24.0899 240.612 25.0385C242.326 29.1577 242.46 28.3337 235.19 28.3352L227.153 28.3414C226.541 28.3453 225.01 28.6285 224.914 27.8633V27.8633ZM244.102 30.7399C245.482 30.4451 245.51 30.8676 245.653 29.0989C245.726 28.1952 245.069 28.4544 243.32 28.4544C243.062 27.4308 241.283 23.4091 240.661 23.1027C239.303 22.435 226.997 22.4087 225.74 23.1453C225.071 23.5368 223.706 27.389 223.134 28.4165C222.4 28.507 221.471 28.3461 220.897 28.5759C220.815 29.0455 220.863 29.2296 220.94 29.6993C221.105 30.7004 221.11 30.5774 222.401 30.7136C221.776 33.3078 221.905 35.8123 222.113 38.5767C222.274 40.6966 221.687 40.9875 223.96 40.9287C225.794 40.8808 226.784 41.55 226.756 39.5562L239.75 39.6057C239.748 41.1786 239.976 40.9489 241.453 40.9427C242.342 40.9388 243.491 41.068 244.186 40.7748C244.416 40.0111 244.513 36.7206 244.541 35.6637C244.584 33.9894 244.53 32.2277 244.102 30.7399V30.7399Z" fill="#475866"/>
</svg>
