<svg width="79" height="17" viewBox="0 0 79 17" fill="none" xmlns="http://www.w3.org/2000/svg">
<path fill-rule="evenodd" clip-rule="evenodd" d="M9.26573 16.6667L5.86347 10.881H3.32987V16.6667H0V0H6.75626C8.31664 0 9.64375 0.539677 10.7376 1.61905C11.8315 2.69842 12.3784 3.99999 12.3784 5.52381C12.3784 6.55556 12.0808 7.5119 11.4856 8.39286C10.8904 9.27381 10.1022 9.93651 9.12095 10.381L12.861 16.6667H9.26573ZM3.32987 3.07143V8H6.75626C7.38363 8 7.92252 7.75794 8.37294 7.27381C8.82336 6.78968 9.04856 6.20635 9.04856 5.52381C9.04856 4.84127 8.82336 4.26191 8.37294 3.78571C7.92252 3.30952 7.38363 3.07143 6.75626 3.07143H3.32987ZM16.6976 11.9762C17.1159 13.4683 18.2499 14.2143 20.0999 14.2143C21.2903 14.2143 22.1911 13.8175 22.8024 13.0238L25.3119 14.4524C24.1215 16.1508 22.3681 17 20.0516 17C18.0569 17 16.4563 16.4048 15.2498 15.2143C14.0434 14.0238 13.4401 12.5238 13.4401 10.7143C13.4401 8.92063 14.0353 7.42461 15.2257 6.22619C16.4161 5.02777 17.9443 4.42857 19.8103 4.42857C21.5798 4.42857 23.0396 5.03174 24.1898 6.2381C25.34 7.44445 25.9151 8.9365 25.9151 10.7143C25.9151 11.1111 25.8749 11.5317 25.7944 11.9762H16.6976ZM16.6494 9.59524H22.8024C22.6254 8.78571 22.2595 8.18254 21.7045 7.78571C21.1495 7.38889 20.5181 7.19048 19.8103 7.19048C18.9738 7.19048 18.2821 7.40079 17.7352 7.82143C17.1882 8.24207 16.8263 8.83333 16.6494 9.59524ZM37.1353 0H40.248V16.6667H37.1353V15.2619C36.2184 16.4206 34.9154 17 33.2263 17C31.6016 17 30.2142 16.3929 29.064 15.1786C27.9138 13.9643 27.3387 12.4762 27.3387 10.7143C27.3387 8.95237 27.9138 7.46429 29.064 6.25C30.2142 5.03571 31.6016 4.42857 33.2263 4.42857C34.9154 4.42857 36.2184 5.00793 37.1353 6.16667V0ZM31.3925 13.1429C32.0359 13.7619 32.8403 14.0714 33.8054 14.0714C34.7706 14.0714 35.5669 13.7579 36.1943 13.131C36.8216 12.504 37.1353 11.6984 37.1353 10.7143C37.1353 9.73015 36.8216 8.92461 36.1943 8.29762C35.5669 7.67063 34.7706 7.35714 33.8054 7.35714C32.8403 7.35714 32.04 7.67063 31.4046 8.29762C30.7691 8.92461 30.4514 9.73015 30.4514 10.7143C30.4514 11.6984 30.7651 12.5079 31.3925 13.1429ZM52.2404 0H55.3531V16.6667H52.2404V15.2619C51.3235 16.4206 50.0205 17 48.3314 17C46.7067 17 45.3192 16.3929 44.1691 15.1786C43.0189 13.9643 42.4438 12.4762 42.4438 10.7143C42.4438 8.95237 43.0189 7.46429 44.1691 6.25C45.3192 5.03571 46.7067 4.42857 48.3314 4.42857C50.0205 4.42857 51.3235 5.00793 52.2404 6.16667V0ZM46.4976 13.1429C47.141 13.7619 47.9453 14.0714 48.9105 14.0714C49.8757 14.0714 50.672 13.7579 51.2993 13.131C51.9267 12.504 52.2404 11.6984 52.2404 10.7143C52.2404 9.73015 51.9267 8.92461 51.2993 8.29762C50.672 7.67063 49.8757 7.35714 48.9105 7.35714C47.9453 7.35714 47.145 7.67063 46.5096 8.29762C45.8742 8.92461 45.5565 9.73015 45.5565 10.7143C45.5565 11.6984 45.8702 12.5079 46.4976 13.1429ZM60.8305 11.9762C61.2487 13.4683 62.3828 14.2143 64.2327 14.2143C65.4231 14.2143 66.324 13.8175 66.9352 13.0238L69.4447 14.4524C68.2543 16.1508 66.5009 17 64.1845 17C62.1898 17 60.5892 16.4048 59.3827 15.2143C58.1762 14.0238 57.573 12.5238 57.573 10.7143C57.573 8.92063 58.1682 7.42461 59.3586 6.22619C60.549 5.02777 62.0772 4.42857 63.9432 4.42857C65.7127 4.42857 67.1725 5.03174 68.3227 6.2381C69.4729 7.44445 70.048 8.9365 70.048 10.7143C70.048 11.1111 70.0077 11.5317 69.9273 11.9762H60.8305ZM60.7822 9.59524H66.9352C66.7583 8.78571 66.3923 8.18254 65.8374 7.78571C65.2824 7.38889 64.651 7.19048 63.9432 7.19048C63.1067 7.19048 62.415 7.40079 61.868 7.82143C61.3211 8.24207 60.9592 8.83333 60.7822 9.59524ZM75.3323 6.80952C75.6219 6.04762 76.1004 5.47619 76.768 5.09524C77.4356 4.71428 78.1796 4.52381 79 4.52381V7.95238C78.0509 7.84127 77.2024 8.03174 76.4543 8.52381C75.7063 9.01588 75.3323 9.83333 75.3323 10.9762V16.6667H72.2196V4.7619H75.3323V6.80952Z" fill="#8396A5"/>
</svg>
