<?xml version="1.0" encoding="UTF-8"?>
<svg width="94px" height="80px" viewBox="0 0 94 80" version="1.1" xmlns="http://www.w3.org/2000/svg" xmlns:xlink="http://www.w3.org/1999/xlink">
    <!-- Generator: Sketch 60 (88103) - https://sketch.com -->
    <title>car-engine (1)</title>
    <desc>Created with Sketch.</desc>
    <g id="Page-1" stroke="none" stroke-width="1" fill="none" fill-rule="evenodd">
        <g id="Главная-Томь-Лада" transform="translate(-1010.000000, -1086.000000)" fill="#F77620" fill-rule="nonzero">
            <g id="Group-29" transform="translate(222.000000, 862.000000)">
                <g id="Group-28" transform="translate(0.000000, 224.000000)">
                    <g id="Group-23" transform="translate(787.000000, 0.000000)">
                        <g id="car-engine-(1)-2" transform="translate(1.000000, 0.000000)">
                            <g id="car-engine-(1)">
                                <path d="M18.4643636,2.14963636 C20.8372727,-0.223454545 24.5187273,-0.500181818 27.2178182,1.49127273 L27.2178182,1.49127273 L36.0221818,7.98181818 C36.3418182,8.21745455 36.5429091,8.58090909 36.5727273,8.97690909 C36.6023636,9.37290909 36.4581818,9.76218182 36.1772727,10.0430909 L36.1772727,10.0430909 L34.0550909,12.1654545 L43.3772727,21.4876364 L50.076,21.4876364 L59.3976364,12.166 L57.2758182,10.0441818 C56.9950909,9.76327273 56.8505455,9.374 56.8803636,8.978 C56.9101818,8.582 57.1110909,8.21854545 57.4307273,7.98290909 L57.4307273,7.98290909 L66.2354545,1.49090909 C68.9356364,-0.5 72.6172727,-0.223272727 74.9890909,2.14890909 L74.9890909,2.14890909 L91.2881818,18.448 C93.6603636,20.82 93.9370909,24.5014545 91.9461818,27.202 L91.9461818,27.202 L85.4541818,36.0065455 C85.2185455,36.3261818 84.8550909,36.5270909 84.4590909,36.5569091 C84.4249091,36.5594545 84.3909091,36.5607273 84.3569091,36.5607273 C83.9969091,36.5607273 83.6496364,36.418 83.3930909,36.1614545 L83.3930909,36.1614545 L81.2710909,34.0394545 L79.6870909,35.6234545 C83.032,38.5014545 84.9890909,42.7041818 84.9890909,47.1565455 C84.9890909,50.1261818 84.1292727,53.006 82.5025455,55.4843636 C82.2407273,55.8830909 81.8054545,56.0996364 81.3616364,56.0996364 C81.1049091,56.0996364 80.8454545,56.0274545 80.6147273,55.876 C79.9852727,55.4627273 79.81,54.6176364 80.2230909,53.9881818 C81.5572727,51.9554545 82.2625455,49.5930909 82.2625455,47.1563636 C82.2625455,43.434 80.5954545,39.9225455 77.7534545,37.5567273 L77.7534545,37.5567273 L75.8145455,39.4956364 C78.1416364,41.3287273 79.5316364,44.1301818 79.5316364,47.1567273 C79.5316364,51.0636364 77.2261818,54.5394545 73.7058182,56.0867273 C73.6098182,57.2054545 73.3276364,58.2709091 72.89,59.2534545 C74.2767273,58.8952727 75.5970909,58.3 76.7949091,57.482 C77.4165455,57.0572727 78.2650909,57.2172727 78.6894545,57.8389091 C79.1141818,58.4607273 78.9543636,59.3089091 78.3325455,59.7336364 C76.0710909,61.278 73.4523636,62.1761818 70.7270909,62.3470909 C69.2485455,63.7818182 67.3267273,64.7603636 65.1885455,65.0556364 L65.1885455,65.0556364 L65.1885455,75.7734545 C65.1885455,78.0123636 63.3670909,79.8343636 61.1281818,79.8343636 C59.3674545,79.8343636 57.8652727,78.7067273 57.304,77.1363636 L57.304,77.1363636 L55.3514545,77.1363636 C54.7901818,78.7067273 53.2881818,79.8343636 51.5272727,79.8343636 C49.7663636,79.8343636 48.2641818,78.7067273 47.7029091,77.1363636 L47.7029091,77.1363636 L45.7505455,77.1363636 C45.1890909,78.7070909 43.6865455,79.8343636 41.9252727,79.8343636 C40.1647273,79.8343636 38.6630909,78.7070909 38.1018182,77.1363636 L38.1018182,77.1363636 L36.15,77.1363636 C35.5885455,78.7070909 34.086,79.8343636 32.3247273,79.8343636 C30.0861818,79.8343636 28.2650909,78.0125455 28.2650909,75.7730909 L28.2650909,75.7730909 L28.2650909,70.8761818 C24.4332727,69.5016364 21.5283636,66.1692727 20.7587273,62.0907273 C13.6810909,60.7081818 8.46418182,54.4661818 8.46418182,47.1565455 C8.46418182,42.7050909 10.4210909,38.502 13.7658182,35.6225455 L13.7658182,35.6225455 L12.1827273,34.0394545 L10.0607273,36.1616364 C9.804,36.4181818 9.45672727,36.5609091 9.09672727,36.5609091 C9.06272727,36.5609091 9.02872727,36.5596364 8.99454545,36.5570909 C8.59854545,36.5272727 8.23509091,36.3263636 7.99945455,36.0067273 L7.99945455,36.0067273 L1.50654545,27.2018182 C-0.483272727,24.4998182 -0.206,20.8181818 2.16509091,18.4470909 L2.16509091,18.4470909 L12.028,8.58436364 C12.5605455,8.052 13.4238182,8.052 13.956,8.58436364 C14.4883636,9.11690909 14.4883636,9.98 13.956,10.5123636 L13.956,10.5123636 L4.09309091,20.3750909 C2.68236364,21.7858182 2.51763636,23.9767273 3.70145455,25.5845455 L3.70145455,25.5845455 L5.86109091,28.5130909 L28.5290909,5.84527273 L25.5996364,3.68563636 C23.9938182,2.50090909 21.8043636,2.66581818 20.3925455,4.07763636 L20.3925455,4.07763636 L17.8114545,6.65872727 C17.2790909,7.19109091 16.4158182,7.19109091 15.8834545,6.65872727 C15.3510909,6.12636364 15.3510909,5.26309091 15.8834545,4.73072727 L15.8834545,4.73072727 Z M33.6594545,71.4585455 C33.1741818,71.5205455 32.6809091,71.556 32.1790909,71.556 C31.7781818,71.556 31.3821818,71.5356364 30.9916364,71.4958182 L30.9916364,71.4958182 L30.9916364,75.7730909 C30.9916364,76.5090909 31.5898182,77.1078182 32.3247273,77.1078182 C33.0607273,77.1078182 33.6594545,76.5090909 33.6594545,75.7730909 L33.6594545,75.7730909 Z M43.2601818,65.3407273 L40.5923636,67.9598182 L40.5923636,75.7730909 C40.5923636,76.5090909 41.1903636,77.1078182 41.9252727,77.1078182 C42.6614545,77.1078182 43.2601818,76.5090909 43.2601818,75.7729091 L43.2601818,75.7729091 L43.2601818,65.3407273 Z M52.8609091,65.1523636 L50.1934545,65.1523636 L50.1934545,75.7734545 C50.1934545,76.5089091 50.7918182,77.1072727 51.5272727,77.1072727 C52.2627273,77.1072727 52.8609091,76.5089091 52.8609091,75.7734545 L52.8609091,75.7734545 L52.8609091,65.1523636 Z M62.462,65.1523636 L59.7945455,65.1523636 L59.7945455,75.7734545 C59.7945455,76.5089091 60.3927273,77.1072727 61.1281818,77.1072727 C61.8636364,77.1072727 62.462,76.5089091 62.462,75.7734545 L62.462,75.7734545 L62.462,65.1523636 Z M47.4669091,65.1523636 L45.9867273,65.1523636 L45.9867273,74.4098182 L47.4669091,74.4098182 L47.4669091,65.1523636 Z M57.0678182,65.1523636 L55.5874545,65.1523636 L55.5874545,74.4098182 L57.0678182,74.4098182 L57.0678182,65.1523636 Z M37.8658182,70.0643636 C37.392,70.3314545 36.8978182,70.5654545 36.386,70.7649091 L36.386,70.7649091 L36.386,74.4098182 L37.8658182,74.4098182 Z M32.1792727,51.0330909 C27.2729091,51.0330909 23.2810909,55.0249091 23.2810909,59.9312727 C23.2810909,64.8378182 27.2729091,68.8294545 32.1792727,68.8294545 C37.0856364,68.8294545 41.0774545,64.8378182 41.0774545,59.9312727 C41.0774545,55.0247273 37.0856364,51.0330909 32.1792727,51.0330909 Z M32.1792727,55.8165455 C34.4481818,55.8165455 36.294,57.6623636 36.294,59.9312727 C36.294,62.2001818 34.4481818,64.046 32.1792727,64.046 C29.9103636,64.046 28.0645455,62.2001818 28.0645455,59.9312727 C28.0645455,57.6623636 29.9103636,55.8165455 32.1792727,55.8165455 Z M63.8252727,48.0381818 C59.8587273,48.0381818 56.6318182,51.2652727 56.6318182,55.2316364 C56.6318182,59.1981818 59.8589091,62.4250909 63.8252727,62.4250909 C67.7916364,62.4250909 71.0187273,59.1981818 71.0187273,55.2316364 C71.0187273,51.2650909 67.7916364,48.0381818 63.8252727,48.0381818 Z M53.9141818,54.8816364 L46.2294545,62.4258182 L57.006,62.4258182 C55.0985455,60.6169091 53.9052727,58.0618182 53.9052727,55.2316364 C53.9052727,55.1143636 53.9101818,54.998 53.9141818,54.8816364 L53.9141818,54.8816364 Z M32.1792727,58.5430909 C31.4138182,58.5430909 30.7910909,59.1658182 30.7910909,59.9312727 C30.7910909,60.6967273 31.4138182,61.3194545 32.1792727,61.3194545 C32.9447273,61.3194545 33.5674545,60.6967273 33.5674545,59.9312727 C33.5674545,59.1658182 32.9447273,58.5430909 32.1792727,58.5430909 Z M54.4214545,39.8076364 C54.434,39.9865455 54.4425455,40.1665455 54.4425455,40.3487273 C54.4425455,44.6032727 50.9812727,48.0645455 46.7267273,48.0645455 C42.6581818,48.0645455 39.3172727,44.8983636 39.0329091,40.9009091 L39.0329091,40.9009091 L31.4323636,48.3330909 C31.6796364,48.3172727 31.9281818,48.3065455 32.1792727,48.3065455 C38.5890909,48.3065455 43.804,53.5214545 43.804,59.9312727 C43.804,60.3050909 43.7845455,60.6743636 43.7498182,61.0392727 L43.7498182,61.0392727 L56.8196364,48.2083636 C58.2594545,46.7767273 60.1410909,45.7783636 62.2407273,45.4398182 L62.2407273,45.4398182 Z M63.8252727,51.1169091 C66.0941818,51.1169091 67.94,52.9627273 67.94,55.2316364 C67.94,57.5005455 66.0941818,59.3463636 63.8252727,59.3463636 C61.5563636,59.3463636 59.7105455,57.5005455 59.7105455,55.2316364 C59.7105455,52.9627273 61.5563636,51.1169091 63.8252727,51.1169091 Z M15.6992727,37.556 C12.8576364,39.9232727 11.1907273,43.4350909 11.1907273,47.1565455 C11.1907273,52.9112727 15.1289091,57.86 20.5752727,59.2567273 C20.6289091,58.3234545 20.7930909,57.4196364 21.0550909,56.5576364 C19.3169091,56.0714545 17.7367273,55.1074545 16.4923636,53.7521818 C14.834,51.946 13.9207273,49.6036364 13.9207273,47.1565455 C13.9207273,44.13 15.3110909,41.3285455 17.6385455,39.4952727 L17.6385455,39.4952727 Z M63.8252727,53.8434545 C63.0598182,53.8434545 62.4370909,54.4661818 62.4370909,55.2316364 C62.4370909,55.9970909 63.0598182,56.6198182 63.8252727,56.6198182 C64.5907273,56.6198182 65.2134545,55.9970909 65.2134545,55.2316364 C65.2134545,54.4661818 64.5907273,53.8434545 63.8252727,53.8434545 Z M19.5849091,41.4418182 C17.7521818,42.7552727 16.6474545,44.8672727 16.6472727,47.1567273 C16.6472727,50.4616364 19.0129091,53.324 22.1721818,54.0254545 C22.7345455,53.0761818 23.4281818,52.2143636 24.2276364,51.4630909 L24.2276364,51.4630909 L21.6716364,43.5285455 Z M73.8681818,41.4421818 L71.7814545,43.5289091 L70.4018182,47.8141818 C71.9450909,49.1838182 73.0587273,51.026 73.5147273,53.112 C75.5329091,51.8467273 76.8050909,49.6203636 76.8050909,47.1567273 C76.8050909,44.8670909 75.7005455,42.7550909 73.8681818,41.4421818 L73.8681818,41.4421818 Z M50.0761818,24.2141818 L43.3774545,24.2141818 L24.4209091,43.1707273 L26.4309091,49.4101818 L41.5145455,34.6654545 C42.8885455,33.4043636 44.7190909,32.6329091 46.7267273,32.6329091 C48.4627273,32.6329091 50.0667273,33.2092727 51.3574545,34.1807273 C51.5494545,34.3252727 68.0305455,46.25 68.0305455,46.25 L68.0305455,46.25 L68.0398182,46.254 L69.0325455,43.1705455 L50.0761818,24.2141818 Z M46.7267273,35.3594545 C43.9756364,35.3594545 41.7374545,37.5976364 41.7374545,40.3487273 C41.7374545,43.0998182 43.9756364,45.338 46.7267273,45.338 C49.4778182,45.338 51.716,43.0998182 51.716,40.3487273 C51.716,37.5976364 49.4778182,35.3594545 46.7267273,35.3594545 Z M61.3258182,14.094 L52.5687273,22.8510909 L70.5861818,40.8683636 L79.3430909,32.1112727 L77.2641818,30.0323636 L73.4230909,33.8734545 C72.6661818,34.6303636 71.6598182,35.0472727 70.5892727,35.0472727 C69.5187273,35.0472727 68.5123636,34.6303636 67.7554545,33.8734545 C66.9985455,33.1165455 66.5816364,32.11 66.5816364,31.0396364 C66.5816364,29.9692727 66.9985455,28.9627273 67.7554545,28.2058182 L67.7554545,28.2058182 L71.5965455,24.3647273 L69.0723636,21.8405455 L65.2312727,25.6816364 C64.4743636,26.4385455 63.468,26.8554545 62.3974545,26.8554545 C61.3270909,26.8554545 60.3205455,26.4385455 59.5636364,25.6816364 C58.0010909,24.1190909 58.0010909,21.5765455 59.5636364,20.014 L59.5636364,20.014 L63.4047273,16.1729091 L61.3258182,14.094 Z M32.1276364,14.094 L30.0487273,16.1729091 L33.8898182,20.014 C35.4523636,21.5765455 35.4523636,24.1190909 33.8898182,25.6816364 C33.1329091,26.4385455 32.1265455,26.8554545 31.056,26.8554545 C29.9854545,26.8554545 28.9790909,26.4385455 28.2221818,25.6816364 L28.2221818,25.6816364 L24.3810909,21.8405455 L21.8569091,24.3647273 L25.698,28.2058182 C26.4549091,28.9627273 26.8718182,29.9692727 26.8718182,31.0396364 C26.8718182,32.11 26.4549091,33.1165455 25.698,33.8734545 C24.9410909,34.6303636 23.9347273,35.0472727 22.8641818,35.0472727 C21.7936364,35.0472727 20.7872727,34.6303636 20.0303636,33.8734545 L20.0303636,33.8734545 L16.1894545,30.0325455 L14.1105455,32.1116364 L22.8672727,40.8683636 L40.8847273,22.8510909 L32.1276364,14.094 Z M30.7485455,7.48145455 L7.49763636,30.7323636 L9.25327273,33.1130909 L33.1287273,9.236 L30.7485455,7.48145455 Z M62.7050909,7.48163636 L60.3245455,9.23690909 L84.2001818,33.1125455 L85.9554545,30.732 L62.7050909,7.48163636 Z M73.5245455,26.2925455 L69.6834545,30.1336364 C69.4414545,30.3756364 69.3081818,30.6974545 69.3081818,31.0396364 C69.3081818,31.3818182 69.4414545,31.7036364 69.6834545,31.9454545 C69.9254545,32.1874545 70.2472727,32.3207273 70.5894545,32.3207273 C70.9316364,32.3207273 71.2532727,32.1874545 71.4952727,31.9454545 L71.4952727,31.9454545 L75.3363636,28.1043636 L73.5245455,26.2925455 Z M19.9290909,26.2927273 L18.1172727,28.1043636 L21.9583636,31.9454545 C22.2003636,32.1874545 22.522,32.3207273 22.8641818,32.3207273 C23.2065455,32.3207273 23.5281818,32.1874545 23.7701818,31.9454545 C24.0121818,31.7036364 24.1454545,31.3818182 24.1454545,31.0396364 C24.1454545,30.6974545 24.0121818,30.3758182 23.7701818,30.1338182 L23.7701818,30.1338182 L19.9290909,26.2927273 Z M73.0610909,4.07672727 C71.65,2.66545455 69.46,2.50072727 67.8534545,3.68527273 L67.8534545,3.68527273 L64.9243636,5.84509091 L87.5918182,28.5125455 L89.7516364,25.5834545 C90.936,23.9772727 90.7714545,21.7870909 89.3601818,20.3758182 L89.3601818,20.3758182 Z M28.1209091,18.1009091 L26.3090909,19.9127273 L30.15,23.7538182 C30.392,23.9958182 30.7138182,24.1290909 31.056,24.1290909 C31.3981818,24.1290909 31.72,23.9958182 31.962,23.7538182 C32.4614545,23.2543636 32.4614545,22.4414545 31.962,21.942 L31.962,21.942 L28.1209091,18.1009091 Z M65.3325455,18.1009091 L61.4914545,21.942 C60.992,22.4414545 60.992,23.2543636 61.4914545,23.7538182 C61.7336364,23.9958182 62.0552727,24.1290909 62.3974545,24.1290909 C62.7398182,24.1290909 63.0614545,23.9958182 63.3034545,23.7538182 L63.3034545,23.7538182 L67.1445455,19.9127273 L65.3325455,18.1009091 Z" id="Combined-Shape"></path>
                            </g>
                        </g>
                    </g>
                </g>
            </g>
        </g>
    </g>
</svg>