<?xml version="1.0" encoding="UTF-8"?>
<svg width="64px" height="80px" viewBox="0 0 64 80" version="1.1" xmlns="http://www.w3.org/2000/svg" xmlns:xlink="http://www.w3.org/1999/xlink">
    <!-- Generator: Sketch 60 (88103) - https://sketch.com -->
    <title>shield (2)</title>
    <desc>Created with Sketch.</desc>
    <g id="Page-1" stroke="none" stroke-width="1" fill="none" fill-rule="evenodd">
        <g id="Главная-Томь-Лада" transform="translate(-1037.000000, -1792.000000)" fill="#FFFFFF" fill-rule="nonzero">
            <g id="Group-50" transform="translate(250.000000, 1558.000000)">
                <g id="Group-49" transform="translate(0.000000, 234.000000)">
                    <g id="Group-48" transform="translate(787.000000, 0.000000)">
                        <g id="shield-(2)-2">
                            <g id="shield-(2)">
                                <path d="M62.904,1.12984375 C62.2243137,0.411875 61.2665098,0 60.2757647,0 L3.72439216,0 C2.73364706,0 1.77584314,0.411875 1.096,1.12984375 C0.416470588,1.84765625 0.0600784314,2.824375 0.11827451,3.8096875 L3.49913725,60.9996875 C3.56768627,62.15625 4.19607843,63.2154687 5.18023529,63.8328125 L30.0752941,79.45 C30.6599216,79.8167187 31.3300392,80 32,80 C32.6701176,80 33.3402353,79.8165625 33.9248627,79.4498437 L58.8197647,63.8325 C59.8040784,63.2151562 60.4323137,62.1560937 60.5008627,60.999375 L63.8817255,3.80953125 C63.9399216,2.82453125 63.5836863,1.84765625 62.904,1.12984375 Z M57.3066667,60.8121875 C57.2988235,60.9442188 57.2271373,61.0651563 57.1148235,61.135625 L32.2200784,76.7529687 C32.0865882,76.8365625 31.9138824,76.8365625 31.7803922,76.7529687 L6.88533333,61.1354688 C6.77301961,61.065 6.70133333,60.9440625 6.6934902,60.8120313 L3.31278431,3.62234375 C3.30415686,3.47609375 3.36878431,3.37546875 3.42447059,3.3165625 C3.48015686,3.25765625 3.57741176,3.1875 3.72439216,3.1875 L60.2757647,3.1875 C60.4227451,3.1875 60.5203137,3.2578125 60.5758431,3.3165625 C60.6315294,3.3753125 60.696,3.47609375 60.6873725,3.62234375 L57.3066667,60.8121875 Z" id="Shape"></path>
                                <path d="M54.5265882,9.0528125 C54.2243137,8.7353125 53.804549,8.555625 53.3653333,8.555625 L10.6345098,8.555625 C10.1952941,8.555625 9.77552941,8.73546875 9.4732549,9.0528125 C9.17113725,9.3703125 9.0134902,9.7975 9.03686275,10.234375 L11.5432157,56.8785937 C11.5709804,57.3953125 11.8487843,57.8664062 12.2883137,58.1420312 L31.147451,69.9729687 C31.4078431,70.13625 31.7038431,70.218125 32,70.218125 C32.2961569,70.218125 32.5921569,70.1364062 32.8523922,69.9729687 L51.7115294,58.1420312 C52.1510588,57.8660937 52.4288627,57.3951562 52.4566275,56.8785937 L54.9629804,10.234375 C54.9865098,9.7975 54.828549,9.3703125 54.5265882,9.0528125 Z M49.3057255,55.884375 L32,66.7407813 L14.6942745,55.884375 L12.3225098,11.7428125 L51.6776471,11.7428125 L49.3057255,55.884375 Z" id="Shape"></path>
                                <path d="M34.3105882,14.3646875 L16.9811765,14.3646875 C16.0975686,14.3646875 15.3811765,15.0782812 15.3811765,15.9584375 C15.3811765,16.8384375 16.0974118,17.5521875 16.9811765,17.5521875 L34.3107451,17.5521875 C35.1943529,17.5521875 35.9105882,16.8385937 35.9105882,15.9584375 C35.9105882,15.0784375 35.1943529,14.3646875 34.3105882,14.3646875 Z" id="Path"></path>
                                <path d="M41.809098,14.3646875 L39.9761569,14.3646875 C39.092549,14.3646875 38.3761569,15.0782812 38.3761569,15.9584375 C38.3761569,16.8384375 39.0923922,17.5521875 39.9761569,17.5521875 L41.809098,17.5521875 C42.6927059,17.5521875 43.409098,16.8385937 43.409098,15.9584375 C43.409098,15.0784375 42.6927059,14.3646875 41.809098,14.3646875 Z" id="Path"></path>
                                <g id="ruble-(2)-2" transform="translate(23.000000, 27.000000)">
                                    <g id="Shape-2">
                                        <path d="M11.7149235,0 L4.33178384,0 C3.57043834,0 2.95320073,0.619557196 2.95320073,1.38376384 L2.95320073,11.8572878 L1.37858311,11.8572878 C0.61723761,11.8572878 0,12.476845 0,13.2410517 C0,14.0052583 0.61723761,14.6248155 1.37858311,14.6248155 L2.95320073,14.6248155 L2.95320073,17.7859779 L1.37858311,17.7859779 C0.61723761,17.7859779 0,18.4055351 0,19.1697417 C0,19.9339483 0.61723761,20.5535055 1.37858311,20.5535055 L2.95320073,20.5535055 L2.95320073,23.6162362 C2.95320073,24.3804428 3.57043834,25 4.33178384,25 C5.09312934,25 5.71036694,24.3804428 5.71036694,23.6162362 L5.71036694,20.5535055 L11.7149235,20.5535055 C12.476269,20.5535055 13.0935066,19.9339483 13.0935066,19.1697417 C13.0935066,18.4055351 12.476269,17.7859779 11.7149235,17.7859779 L5.71036694,17.7859779 L5.71036694,14.6248155 L11.7149235,14.6248155 C15.7319309,14.6248155 19,11.3444649 19,7.31236162 C19,3.18062731 15.6469183,0 11.7149235,0 Z M11.7149235,11.8572878 L5.71036694,11.8572878 L5.71036694,2.76752768 L11.7149235,2.76752768 C14.1965569,2.76752768 16.2428338,4.77675277 16.2428338,7.31245387 C16.2428338,9.81854244 14.2116294,11.8572878 11.7149235,11.8572878 Z" id="Shape"></path>
                                    </g>
                                </g>
                            </g>
                        </g>
                    </g>
                </g>
            </g>
        </g>
    </g>
</svg>