<?xml version="1.0" encoding="UTF-8"?>
<svg width="80px" height="80px" viewBox="0 0 80 80" version="1.1" xmlns="http://www.w3.org/2000/svg" xmlns:xlink="http://www.w3.org/1999/xlink">
    <!-- Generator: Sketch 60 (88103) - https://sketch.com -->
    <title>suspension (1)</title>
    <desc>Created with Sketch.</desc>
    <g id="Page-1" stroke="none" stroke-width="1" fill="none" fill-rule="evenodd">
        <g id="Главная-Томь-Лада" transform="translate(-813.000000, -1442.000000)" fill="#F77620" fill-rule="nonzero">
            <g id="Group-29" transform="translate(222.000000, 862.000000)">
                <g id="Group-28" transform="translate(0.000000, 224.000000)">
                    <g id="Group-23" transform="translate(591.000000, 356.000000)">
                        <g id="suspension-(1)-2">
                            <g id="suspension-(1)">
                                <path d="M22.6203742,23.9675676 C26.2927235,23.9718919 29.2688565,26.9480249 29.2731809,30.6203742 L29.2731809,30.6203742 L29.2731809,41.2648649 L33.2648649,41.2648649 C33.9996674,41.2648649 34.5954262,41.8606237 34.5954262,42.5954262 L34.5954262,42.5954262 L34.5954262,46.5871102 L44.2326819,46.5871102 C44.9323909,45.827027 45.8024116,45.2437422 46.7713929,44.8853222 C47.1966736,44.7301455 47.6367568,44.618711 48.084657,44.5526819 L48.084657,44.5526819 L48.7313098,43.3551767 L46.392183,42.0871518 C45.7471933,41.7357173 45.5090229,40.9280665 45.8599584,40.2829106 L45.8599584,40.2829106 L48.3986694,35.604657 C48.750104,34.960499 49.5565904,34.7223285 50.20158,35.0724324 L50.20158,35.0724324 L52.5407069,36.3417879 L54.2385031,33.2162994 L50.5847817,32.2170478 C49.8967152,32.0161331 49.4915593,31.3062786 49.6683576,30.6117256 C49.8496466,29.8995426 50.5738046,29.469106 51.2859875,29.650395 L51.2859875,29.650395 L67.4749272,34.0718503 C68.1841164,34.265447 68.6019127,34.9972557 68.408316,35.7064449 C68.2147193,36.4156341 67.4829106,36.8334304 66.7737214,36.6398337 L66.7737214,36.6398337 L62.1513514,35.377131 L59.5607484,40.1525156 L61.8998753,41.4218711 C62.5448649,41.7733056 62.7830353,42.5809563 62.4320998,43.2261123 L62.4320998,43.2261123 L60.6079002,46.5871102 L69.1900208,46.5871102 L69.1900208,42.5954262 C69.1900208,41.8606237 69.7857796,41.2648649 70.5205821,41.2648649 L70.5205821,41.2648649 L78.5039501,41.2648649 C79.2387526,41.2648649 79.8345114,41.8606237 79.8345114,42.5954262 L79.8345114,42.5954262 L79.8345114,61.2232848 C79.8345114,61.9580873 79.2387526,62.5538462 78.5039501,62.5538462 L78.5039501,62.5538462 L70.5205821,62.5538462 C69.7857796,62.5538462 69.1900208,61.9580873 69.1900208,61.2232848 L69.1900208,61.2232848 L69.1900208,57.2316008 L51.6266112,57.2316008 C50.0009979,57.9268191 48.1614969,57.9268191 46.5358836,57.2316008 L46.5358836,57.2316008 L34.5954262,57.2316008 L34.5954262,61.2232848 C34.5954262,61.9580873 33.9996674,62.5538462 33.2648649,62.5538462 L33.2648649,62.5538462 L29.2731809,62.5538462 L29.2731809,73.1983368 C29.2688565,76.8706861 26.2927235,79.8468191 22.6203742,79.8511435 L22.6203742,79.8511435 L6.65363825,79.8511435 C2.98128898,79.8468191 0.00515592516,76.8706861 0.000831600833,73.1983368 L0.000831600833,73.1983368 L0.000831600833,30.6203742 C0.00515592516,26.9480249 2.98128898,23.9718919 6.65363825,23.9675676 L6.65363825,23.9675676 Z M10.6453222,26.6286902 L7.98419958,26.6286902 L7.98419958,77.1900208 L10.6453222,77.1900208 L10.6453222,26.6286902 Z M15.9675676,26.6286902 L13.3064449,26.6286902 L13.3064449,77.1900208 L15.9675676,77.1900208 L15.9675676,26.6286902 Z M21.2898129,26.6286902 L18.6286902,26.6286902 L18.6286902,77.1900208 L21.2898129,77.1900208 L21.2898129,26.6286902 Z M5.32307692,26.8735135 C3.73388773,27.435343 2.66893971,28.9348857 2.66195426,30.6203742 L2.66195426,30.6203742 L2.66195426,73.1983368 C2.66893971,74.8838254 3.73388773,76.383368 5.32307692,76.9451975 L5.32307692,76.9451975 Z M23.9509356,26.8735135 L23.9509356,76.9451975 C25.5401247,76.383368 26.6050728,74.8838254 26.6120582,73.1983368 L26.6120582,73.1983368 L26.6120582,30.6203742 C26.6050728,28.9348857 25.5401247,27.435343 23.9509356,26.8735135 L23.9509356,26.8735135 Z M31.9343035,43.9259875 L29.2731809,43.9259875 L29.2731809,59.8927235 L31.9343035,59.8927235 L31.9343035,43.9259875 Z M77.1733888,43.9259875 L71.8511435,43.9259875 L71.8511435,59.8927235 L77.1733888,59.8927235 L77.1733888,43.9259875 Z M51.0757588,44.6351767 L50.0898129,46.4540541 C49.8636175,46.8700208 49.4335135,47.1346362 48.9601663,47.1486071 C48.5249064,47.1622453 48.0948025,47.2449064 47.6854886,47.3934304 C46.9726403,47.6540541 46.3509356,48.1164241 45.8958836,48.7239917 C45.7726403,48.8781705 45.6618711,49.0418295 45.5645738,49.2136383 C44.513763,51.1511019 45.2320998,53.5735551 47.1692308,54.6250312 C47.2064865,54.6383368 47.3328898,54.686237 47.368815,54.7035343 C48.5836175,55.2834927 50.0098129,55.2079834 51.1565904,54.5027859 C53.023368,53.3550104 53.6059875,50.9112682 52.4582121,49.044657 C52.2115593,48.64 52.1989189,48.1347193 52.424948,47.7180873 L52.424948,47.7180873 L53.4148857,45.9045322 L51.0757588,44.6351767 Z M42.6839085,49.2482328 L34.5954262,49.2482328 L34.5954262,54.5704782 L43.3851143,54.5704782 C43.3265696,54.4746778 43.2786694,54.3722245 43.225447,54.273763 C43.1975052,54.2205405 43.1682328,54.1699792 43.1416216,54.1180873 C42.9754678,53.7872765 42.8369231,53.4433264 42.727817,53.0895634 C42.7091892,53.0310187 42.6918919,52.972474 42.6759252,52.9139293 C42.5744699,52.5578378 42.5032848,52.1935967 42.4630353,51.8255301 C42.4563825,51.7669854 42.4483992,51.7097713 42.4483992,51.6512266 C42.4164657,51.2740125 42.4164657,50.8948025 42.4483992,50.5175884 C42.4537214,50.4696881 42.467027,50.4217879 42.467027,50.3738877 C42.5057796,49.9930146 42.5784615,49.6162994 42.6839085,49.2482328 L42.6839085,49.2482328 Z M63.8677755,49.2522245 L55.4320166,49.2522245 L55.4320166,49.2522245 L55.4546362,49.3706445 C55.553763,49.7254054 55.6236175,50.0876507 55.6635343,50.4537214 C55.6661954,50.4869854 55.6768399,50.5175884 55.6768399,50.5508524 C55.7094387,50.9297297 55.7094387,51.3109356 55.6768399,51.6898129 L55.6768399,51.6898129 L55.6568815,51.9093555 C55.6148025,52.2790852 55.5414553,52.6444906 55.4373389,53.0017464 C55.418711,53.0616216 55.3947609,53.1294802 55.3748025,53.1946778 C55.2557173,53.5715593 55.1025364,53.936632 54.9170894,54.285738 C54.8651975,54.382869 54.8106445,54.4773389 54.7534304,54.5704782 L54.7534304,54.5704782 L63.8677755,54.5704782 L63.8677755,49.2522245 Z M69.1900208,49.2482328 L66.5288981,49.2482328 L66.5288981,54.5704782 L69.1900208,54.5704782 L69.1900208,49.2482328 Z M50.3998337,49.7804574 L50.3998337,52.44158 L47.738711,52.44158 L47.738711,49.7804574 L50.3998337,49.7804574 Z M50.1017879,38.0502287 L48.8324324,40.3893555 L51.1728898,41.6640333 L52.6697713,42.471684 L58.1889397,45.465447 L59.4582952,43.1276507 L50.1017879,38.0502287 Z M56.6694387,34.3166736 L54.875842,37.6138046 L57.2149688,38.8831601 L59.2187942,35.1948441 L56.6694387,34.3166736 Z M52.2281213,25.7855563 C52.4651501,25.1541976 53.1466112,24.792422 53.8127235,24.9681497 L53.8127235,24.9681497 L70.1360499,29.280499 C70.720499,29.4345114 71.1276507,29.9630769 71.1276507,30.5674844 C71.1276507,31.3022869 70.5315593,31.8978794 69.7967568,31.8977131 C69.6818295,31.8973805 69.5674012,31.882578 69.4561331,31.8538046 L69.4561331,31.8538046 L53.1341372,27.5414553 L53.1341372,27.5414553 L53.0041841,27.5001115 C52.3728255,27.2630828 52.0110499,26.5816216 52.1867775,25.9155094 L52.1867775,25.9155094 Z M54.7228274,21.2479002 C54.9042827,20.5358836 55.6287734,20.1057796 56.34079,20.2872349 L56.34079,20.2872349 L72.8024948,24.4891476 C73.3874428,24.6408316 73.7967568,25.1675676 73.7992616,25.7719751 C73.802079,26.5067775 73.2086486,27.1048649 72.4738462,27.1077054 C72.3629106,27.1081913 72.252474,27.0943867 72.1451975,27.0664449 L72.1451975,27.0664449 L55.6834927,22.8658628 C54.9714761,22.6844075 54.5413721,21.9599168 54.7228274,21.2479002 Z M72.2258628,0.0721829522 C75.86079,-0.464033264 79.242079,2.04790021 79.7782952,5.68282744 C80.3145114,9.31775468 77.8024116,12.6990437 74.1676507,13.2352599 L74.1676507,13.2352599 L72.8849896,15.5983368 L74.054553,16.2330146 C74.6995426,16.5844491 74.9377131,17.3920998 74.5867775,18.0372557 L74.5867775,18.0372557 L73.912183,19.2813306 L75.4968815,19.7097713 C76.08,19.8657796 76.4849896,20.3948441 76.4834927,20.99842 C76.4816632,21.7332225 75.8844075,22.3274844 75.149605,22.3256591 C75.0323493,22.3256591 74.9154262,22.3101871 74.8023285,22.2790852 L74.8023285,22.2790852 L58.1064449,17.7551767 C57.3969231,17.5634096 56.9772973,16.8327651 57.1690644,16.1232432 C57.3608316,15.4137214 58.0914761,14.9940956 58.8009979,15.1858628 L58.8009979,15.1858628 L60.7130146,15.6967983 L62.892474,11.6824948 C63.2439085,11.0375052 64.0515593,10.7993347 64.6967152,11.1502703 L64.6967152,11.1502703 L65.8636175,11.784948 L67.1502703,9.42852391 C66.8873181,8.85571726 66.7071933,8.24831601 66.6152183,7.62461538 C66.0790021,3.98968815 68.5909356,0.608399168 72.2258628,0.0721829522 Z M64.5902703,14.1240748 L63.347526,16.4139709 L68.5247401,17.8163825 L71.2683576,18.5614969 L71.6089813,17.9334719 L70.4434096,17.3014553 L67.1728898,15.5264865 L64.5902703,14.1240748 Z M76.5922661,4.55733888 C75.4371726,2.67975052 72.9784615,2.09397089 71.1008732,3.24923077 C69.2231185,4.40432432 68.6375052,6.86303534 69.7927651,8.7406237 C70.0392516,9.14528067 70.0518919,9.65056133 69.8260291,10.0671933 L69.8260291,10.0671933 L68.2040748,13.0569647 L70.5432017,14.3223285 L72.1638254,11.3352183 C72.3895218,10.9187526 72.8197921,10.6536383 73.2934719,10.6393347 C73.9975052,10.6215385 74.6842412,10.4177963 75.284158,10.0487318 C77.1619127,8.89363825 77.747526,6.43492723 76.5922661,4.55733888 Z M72.6475778,4.86651912 L74.9869707,6.13507629 L73.7184136,8.47446922 L71.3790206,7.20591205 L72.6475778,4.86651912 Z" id="Combined-Shape"></path>
                            </g>
                        </g>
                    </g>
                </g>
            </g>
        </g>
    </g>
</svg>