<?xml version="1.0" encoding="UTF-8"?>
<svg width="80px" height="80px" viewBox="0 0 80 80" version="1.1" xmlns="http://www.w3.org/2000/svg" xmlns:xlink="http://www.w3.org/1999/xlink">
    <!-- Generator: Sketch 60 (88103) - https://sketch.com -->
    <title>back-in-time</title>
    <desc>Created with Sketch.</desc>
    <g id="Page-1" stroke="none" stroke-width="1" fill="none" fill-rule="evenodd">
        <g id="Главная-Томь-Лада" transform="translate(-644.000000, -1799.000000)" fill="#FFFFFF" fill-rule="nonzero">
            <g id="Group-50" transform="translate(250.000000, 1558.000000)">
                <g id="Group-49" transform="translate(0.000000, 234.000000)">
                    <g id="Group-46" transform="translate(393.000000, 7.000000)">
                        <g id="back-in-time-2" transform="translate(1.000000, 0.000000)">
                            <g id="back-in-time">
                                <path d="M39.9482261,2.84217094e-14 C41.5755166,2.84217094e-14 43.2137232,0.0988693957 44.8177778,0.29380117 C45.6728265,0.397660819 46.2816374,1.17520468 46.1776218,2.03009747 C46.0737622,2.8851462 45.2951267,3.49317739 44.4413255,3.38994152 C42.9617154,3.21013645 41.4501365,3.11890838 39.9482261,3.11890838 C19.6403899,3.11890838 3.11890838,19.6403899 3.11890838,39.9482261 C3.11890838,60.2560624 19.6403899,76.7775439 39.9482261,76.7775439 C60.2560624,76.7775439 76.7775439,60.2560624 76.7775439,39.9482261 C76.7775439,31.954152 74.2055361,24.2680702 69.4738402,17.9334113 L69.4738402,17.9334113 L69.4738402,19.6492788 C69.4738402,20.5104094 68.7755166,21.2087329 67.914386,21.2087329 C67.0532554,21.2087329 66.3549318,20.5104094 66.3549318,19.6492788 L66.3549318,19.6492788 L66.3549318,13.7233528 C66.3549318,12.8622222 67.0532554,12.1638986 67.914386,12.1638986 L67.914386,12.1638986 L73.8403119,12.1638986 C74.7014425,12.1638986 75.3997661,12.8622222 75.3997661,13.7233528 C75.3997661,14.5844834 74.7014425,15.282807 73.8403119,15.282807 L73.8403119,15.282807 L71.3716959,15.282807 C76.8882651,22.2994152 79.8964522,30.9437817 79.8964522,39.9482261 C79.8964522,50.6187914 75.7411306,60.6507602 68.1958674,68.1958674 C60.6507602,75.7411306 50.6187914,79.8964522 39.9482261,79.8964522 C29.2776608,79.8964522 19.245692,75.7411306 11.7005848,68.1958674 C4.15532164,60.6507602 2.84217094e-14,50.6187914 2.84217094e-14,39.9482261 C2.84217094e-14,29.2776608 4.15532164,19.245692 11.7005848,11.7005848 C19.245692,4.15532164 29.2776608,2.84217094e-14 39.9482261,2.84217094e-14 Z M24.0843665,14.7316959 C29.7047953,11.1890838 36.4595712,9.6254191 43.1031579,10.3295127 C49.8465497,11.0437427 56.205848,14.082807 61.0100585,18.8868616 C72.6234698,30.500117 72.6234698,49.3966472 61.0100585,61.0100585 C55.2032749,66.8168421 47.5759844,69.720078 39.9483821,69.720078 C32.3207797,69.720078 24.6933333,66.8166862 18.8867057,61.0100585 C14.0751657,56.1983626 11.0350097,49.828616 10.3262378,43.0739961 C9.62775828,36.4180897 11.2037427,29.6559844 14.7638207,24.0332164 C15.2246394,23.3058869 16.1879142,23.0891228 16.9157115,23.5497856 C17.6433528,24.0106043 17.8596491,24.9740351 17.3991423,25.7018324 C10.7923587,36.1361404 12.345575,50.0578558 21.0922417,58.8045224 C31.4894347,69.2020273 48.4073294,69.2020273 58.8045224,58.8045224 C69.2018713,48.4071735 69.2018713,31.4895906 58.8045224,21.0922417 C49.9352827,12.2230019 36.3419883,10.6927096 25.7473684,17.3702924 C25.0187914,17.8293957 24.0558285,17.6112281 23.5965692,16.8824951 C23.1374659,16.1539181 23.3556335,15.1909552 24.0843665,14.7316959 Z M39.922963,58.6618324 C40.7840936,58.6618324 41.4824172,59.3601559 41.4824172,60.2212865 L41.4824172,60.2212865 L41.4824172,62.1444055 C41.4824172,63.0055361 40.7840936,63.7038596 39.922963,63.7038596 C39.0618324,63.7038596 38.3635088,63.0055361 38.3635088,62.1444055 L38.3635088,62.1444055 L38.3635088,60.2212865 C38.3635088,59.36 39.0618324,58.6618324 39.922963,58.6618324 Z M53.1437037,24.5472125 C53.7529825,23.9384016 54.740117,23.9384016 55.3492398,24.5472125 C55.9582066,25.1563353 55.9582066,26.1437817 55.3492398,26.7527485 L55.3492398,26.7527485 L44.6852242,37.4167641 C45.0900585,38.17154 45.3205458,39.0334503 45.3205458,39.9482261 C45.3205458,42.9105653 42.9105653,45.3205458 39.9482261,45.3205458 C36.9858869,45.3205458 34.5759064,42.9105653 34.5759064,39.9482261 C34.5759064,39.0334503 34.8062378,38.17154 35.2112281,37.4167641 L35.2112281,37.4167641 L29.9260819,32.1316179 C29.317115,31.5224951 29.317115,30.5350487 29.9260819,29.9260819 C30.5353606,29.317271 31.5224951,29.317271 32.1316179,29.9260819 L32.1316179,29.9260819 L37.4167641,35.2112281 C38.17154,34.8063938 39.0334503,34.5759064 39.9482261,34.5759064 C40.8630019,34.5759064 41.7249123,34.8062378 42.4796881,35.2112281 L42.4796881,35.2112281 Z M39.9482261,37.6948148 C38.705653,37.6948148 37.6948148,38.705653 37.6948148,39.9482261 C37.6948148,41.1907992 38.705653,42.2016374 39.9482261,42.2016374 C41.1907992,42.2016374 42.2016374,41.1907992 42.2016374,39.9482261 C42.2016374,38.705653 41.1907992,37.6948148 39.9482261,37.6948148 Z M62.1444055,38.4140351 C63.0055361,38.4140351 63.7038596,39.1123587 63.7038596,39.9734893 C63.7038596,40.8346199 63.0055361,41.5329435 62.1444055,41.5329435 L62.1444055,41.5329435 L60.2212865,41.5329435 C59.36,41.5329435 58.6618324,40.8346199 58.6618324,39.9734893 C58.6618324,39.1123587 59.3601559,38.4140351 60.2212865,38.4140351 L60.2212865,38.4140351 Z M19.6751657,38.3635088 C20.5362963,38.3635088 21.2346199,39.0618324 21.2346199,39.922963 C21.2346199,40.7840936 20.5362963,41.4824172 19.6751657,41.4824172 L19.6751657,41.4824172 L17.7520468,41.4824172 C16.8909162,41.4824172 16.1925926,40.7840936 16.1925926,39.922963 C16.1925926,39.0616764 16.8909162,38.3635088 17.7520468,38.3635088 L17.7520468,38.3635088 Z M19.9887719,18.4293177 C20.4003119,18.4293177 20.8012476,18.5963353 21.091306,18.8862378 C21.382924,19.1778558 21.5496296,19.5786355 21.5496296,19.9887719 C21.5496296,20.3989084 21.382924,20.8012476 21.091306,21.091306 C20.8012476,21.3812086 20.4003119,21.5482261 19.9887719,21.5482261 C19.5786355,21.5482261 19.1762963,21.3812086 18.8862378,21.091306 C18.5961793,20.8012476 18.4293177,20.4004678 18.4293177,19.9887719 C18.4293177,19.5786355 18.5963353,19.1762963 18.8862378,18.8862378 C19.1762963,18.5961793 19.5786355,18.4293177 19.9887719,18.4293177 Z M39.9734893,16.1925926 C40.8346199,16.1925926 41.5329435,16.8909162 41.5329435,17.7520468 L41.5329435,17.7520468 L41.5329435,19.6751657 C41.5329435,20.5362963 40.8346199,21.2346199 39.9734893,21.2346199 C39.1123587,21.2346199 38.4140351,20.5362963 38.4140351,19.6751657 L38.4140351,19.6751657 L38.4140351,17.7520468 C38.4140351,16.8909162 39.1123587,16.1925926 39.9734893,16.1925926 Z M50.7505653,1.54042885 C51.1624172,1.54042885 51.5647563,1.70744639 51.8546589,1.99734893 C52.1448733,2.28740741 52.3117349,2.68974659 52.3117349,3.09988304 C52.3117349,3.511423 52.1447173,3.91235867 51.8546589,4.20241715 C51.5647563,4.49387914 51.1624172,4.65933723 50.7505653,4.65933723 C50.3404288,4.65933723 49.9380897,4.49387914 49.6481871,4.20241715 C49.3579727,3.91235867 49.1911111,3.51157895 49.1911111,3.09988304 C49.1911111,2.68974659 49.3581287,2.28740741 49.6481871,1.99734893 C49.9380897,1.70729045 50.3404288,1.54042885 50.7505653,1.54042885 Z" id="Combined-Shape"></path>
                            </g>
                        </g>
                    </g>
                </g>
            </g>
        </g>
    </g>
</svg>