<?xml version="1.0" encoding="UTF-8"?>
<svg width="80px" height="80px" viewBox="0 0 80 80" version="1.1" xmlns="http://www.w3.org/2000/svg" xmlns:xlink="http://www.w3.org/1999/xlink">
    <!-- Generator: Sketch 60 (88103) - https://sketch.com -->
    <title>heart-rate-monitor</title>
    <desc>Created with Sketch.</desc>
    <g id="Page-1" stroke="none" stroke-width="1" fill="none" fill-rule="evenodd">
        <g id="Главная-Томь-Лада" transform="translate(-419.000000, -1442.000000)" fill="#F77620" fill-rule="nonzero">
            <g id="Group-29" transform="translate(222.000000, 862.000000)">
                <g id="Group-28" transform="translate(0.000000, 224.000000)">
                    <g id="Group-23" transform="translate(197.000000, 356.000000)">
                        <g id="heart-rate-monitor-2">
                            <g id="heart-rate-monitor">
                                <path d="M76,-1.13686838e-13 C78.2083333,0.00260416667 79.9973958,1.79166667 80,4 L80,4 L80,70.6666667 C79.9973958,72.875 78.2083333,74.6640625 76,74.6666667 L76,74.6666667 L72.5520833,74.6666667 L68.390625,78.828125 C67.6425782,79.5807292 66.623698,80.0026042 65.5625,80.000012 L65.5625,80.000012 L14.4375,80.000012 C13.376302,80.0026042 12.3574218,79.5807292 11.609375,78.828125 L11.609375,78.828125 L7.44791667,74.6666667 L4,74.6666667 C1.79166667,74.6640625 0.00260416667,72.875 0,70.6666667 L0,70.6666667 L0,4 C0.00260416667,1.79166667 1.79166667,0.00260416667 4,-1.13686838e-13 L4,-1.13686838e-13 Z M68.78125,74.6666667 L11.21875,74.6666667 L13.4947917,76.9427083 C13.7454427,77.1914063 14.0839843,77.3320313 14.4375,77.3333333 L14.4375,77.3333333 L65.5625,77.3333333 C65.9160157,77.3320313 66.2545573,77.1914063 66.5052083,76.9427083 L66.5052083,76.9427083 L68.78125,74.6666667 Z M76,2.66666667 L4,2.66666667 C3.26367183,2.66666667 2.66666667,3.26367183 2.66666667,4 L2.66666667,4 L2.66666667,70.6666667 C2.66666667,71.4029948 3.26367183,72 4,72 L4,72 L76,72 C76.7363282,72 77.3333333,71.4029948 77.3333333,70.6666667 L77.3333333,70.6666667 L77.3333333,4 C77.3333333,3.26367183 76.7363282,2.66666667 76,2.66666667 L76,2.66666667 Z M71.3333333,61.3333333 C72.4375,61.3346353 73.3320313,62.2291667 73.3333333,63.3333333 L73.3333333,67.3333333 C73.3320313,68.4375 72.4375,69.3320313 71.3333333,69.3333333 L67.3333333,69.3333333 C66.2291667,69.3320313 65.3346353,68.4375 65.3333333,67.3333333 L65.3333333,63.3333333 C65.3346353,62.2291667 66.2291667,61.3346353 67.3333333,61.3333333 L71.3333333,61.3333333 Z M60.6666667,61.3333333 C61.7708333,61.3346353 62.6653647,62.2291667 62.6666667,63.3333333 L62.6666667,67.3333333 C62.6653647,68.4375 61.7708333,69.3320313 60.6666667,69.3333333 L56.6666667,69.3333333 C55.5625,69.3320313 54.6679687,68.4375 54.6666667,67.3333333 L54.6666667,63.3333333 C54.6679687,62.2291667 55.5625,61.3346353 56.6666667,61.3333333 L60.6666667,61.3333333 Z M70.6666667,64 L68,64 L68,66.6666667 L70.6666667,66.6666667 L70.6666667,64 Z M60,64 L57.3333333,64 L57.3333333,66.6666667 L60,66.6666667 L60,64 Z M52,64 L52,66.6666667 L49.3333333,66.6666667 L49.3333333,64 L52,64 Z M69.3333333,6.66666667 C71.5416667,6.66927083 73.3307292,8.45833333 73.3333333,10.6666667 L73.3333333,10.6666667 L73.3333333,54.6666667 C73.3307292,56.875 71.5416667,58.6640625 69.3333333,58.6666667 L69.3333333,58.6666667 L10.6666667,58.6666667 C8.45833333,58.6640625 6.66927083,56.875 6.66666667,54.6666667 L6.66666667,54.6666667 L6.66666667,10.6666667 C6.66927083,8.45833333 8.45833333,6.66927083 10.6666667,6.66666667 L10.6666667,6.66666667 Z M69.3333333,9.33333333 L10.6666667,9.33333333 C9.9303385,9.33398433 9.33398433,9.9303385 9.33333333,10.6666667 L9.33333333,10.6666667 L9.33333333,54.6666667 C9.33398433,55.4029948 9.9303385,55.999349 10.6666667,56 L10.6666667,56 L69.3333333,56 C70.0696615,55.999349 70.6660157,55.4029948 70.6666667,54.6666667 L70.6666667,54.6666667 L70.6666667,10.6666667 C70.6660157,9.9303385 70.0696615,9.33398433 69.3333333,9.33333333 L69.3333333,9.33333333 Z M22.6666667,40 C24.875,40.0026042 26.6640625,41.7916667 26.6666667,44 L26.6666667,44 L26.6666667,49.3333333 C26.6640625,51.5416667 24.875,53.3307292 22.6666667,53.3333333 L22.6666667,53.3333333 L17.3333333,53.3333333 C15.125,53.3307292 13.3359375,51.5416667 13.3333333,49.3333333 L13.3333333,49.3333333 L13.3333333,44 C13.3359375,41.7916667 15.125,40.0026042 17.3333333,40 L17.3333333,40 Z M33.3333333,50.6666667 L33.3333333,53.3333333 L30.6666667,53.3333333 L30.6666667,50.6666667 L33.3333333,50.6666667 Z M61.3333333,50.6666667 L61.3333333,53.3333333 L36,53.3333333 L36,50.6666667 L61.3333333,50.6666667 Z M66.6666667,50.6666667 L66.6666667,53.3333333 L64,53.3333333 L64,50.6666667 L66.6666667,50.6666667 Z M22.6666667,42.6666667 L17.3333333,42.6666667 C16.5970052,42.6673177 16.000651,43.2636718 16,44 L16,44 L16,49.3333333 C16.000651,50.0696615 16.5970052,50.6660157 17.3333333,50.6666667 L17.3333333,50.6666667 L22.6666667,50.6666667 C23.4029948,50.6660157 23.999349,50.0696615 24,49.3333333 L24,49.3333333 L24,44 C23.999349,43.2636718 23.4029948,42.6673177 22.6666667,42.6666667 L22.6666667,42.6666667 Z M33.3333333,45.3333333 L33.3333333,48 L30.6666667,48 L30.6666667,45.3333333 L33.3333333,45.3333333 Z M61.3333333,45.3333333 L61.3333333,48 L36,48 L36,45.3333333 L61.3333333,45.3333333 Z M66.6666667,45.3333333 L66.6666667,48 L64,48 L64,45.3333333 L66.6666667,45.3333333 Z M33.3333333,40 L33.3333333,42.6666667 L30.6666667,42.6666667 L30.6666667,40 L33.3333333,40 Z M61.3333333,40 L61.3333333,42.6666667 L36,42.6666667 L36,40 L61.3333333,40 Z M66.6666667,40 L66.6666667,42.6666667 L64,42.6666667 L64,40 L66.6666667,40 Z M31.7148866,16.5524631 L31.9296875,16.5566407 C33.436198,16.608724 34.7845052,17.5065103 35.4127603,18.8769532 L35.4127603,18.8769532 L39.2135417,27.1152343 C39.4160157,27.5533853 39.8398437,27.8483073 40.3209635,27.8854167 C40.8020833,27.923177 41.266276,27.6972657 41.5338542,27.295573 L41.5338542,27.295573 L44.5533853,22.766276 C45.3177083,21.6289063 46.608073,20.9583333 47.9778647,20.9863282 C49.3496093,21.015625 50.609375,21.749349 51.311198,22.9277343 L51.311198,22.9277343 L52.7552083,25.3333333 L62.6666667,25.3333333 L62.6666667,28 L51.2447917,28 L49.0247397,24.2994792 C48.7936198,23.9042968 48.3723958,23.6582032 47.9140625,23.6523437 C47.4576823,23.6445313 47.0286458,23.8678385 46.7721353,24.2454427 L46.7721353,24.2454427 L43.7526042,28.7747397 C43.0201823,29.891276 41.7727865,30.561849 40.4375,30.5566708 C40.3307292,30.5566708 40.2226563,30.5520833 40.1132813,30.5436198 C38.6660157,30.4414063 37.390625,29.5540365 36.7916667,28.2324218 L36.7916667,28.2324218 L32.9908853,19.9947917 C32.7845052,19.5351563 32.3333333,19.234375 31.829427,19.2213542 C31.328776,19.2070313 30.8613282,19.4707032 30.6145833,19.90625 L30.6145833,19.90625 L26.1184897,28 L18.6666667,28 L18.6666667,25.3333333 L24.548177,25.3333333 L28.2838542,18.610677 C29.0052083,17.2838542 30.421224,16.4863282 31.9296875,16.5566407 Z M16,25.3333333 L16,28 L13.3333333,28 L13.3333333,25.3333333 L16,25.3333333 Z M68,25.3333333 L68,28 L65.3333333,28 L65.3333333,25.3333333 L68,25.3333333 Z" id="Combined-Shape"></path>
                            </g>
                        </g>
                    </g>
                </g>
            </g>
        </g>
    </g>
</svg>