<?xml version="1.0" encoding="UTF-8"?>
<svg width="80px" height="80px" viewBox="0 0 80 80" version="1.1" xmlns="http://www.w3.org/2000/svg" xmlns:xlink="http://www.w3.org/1999/xlink">
    <!-- Generator: Sketch 60 (88103) - https://sketch.com -->
    <title>car-service</title>
    <desc>Created with Sketch.</desc>
    <g id="Page-1" stroke="none" stroke-width="1" fill="none" fill-rule="evenodd">
        <g id="Главная-Томь-Лада" transform="translate(-222.000000, -1086.000000)" fill="#F77620" fill-rule="nonzero">
            <g id="Group-29" transform="translate(222.000000, 862.000000)">
                <g id="Group-28" transform="translate(0.000000, 224.000000)">
                    <g id="Group-23">
                        <g id="car-service-2">
                            <g id="car-service">
                                <path d="M76.1290323,24.516129 L80,24.516129 L80,21.9354839 L76.9935484,21.9354839 L70.9225806,7.19096774 C69.1225806,2.82322581 64.9083871,0 60.1845161,0 L39.1651613,0 C35.2103226,0 31.563871,1.98322581 29.4141935,5.30322581 L18.5341935,22.1174194 L0.936774194,27.1470968 C0.381935484,27.3045161 0,27.8116129 0,28.3870968 L0,45.1612903 C0,45.8735484 0.576774194,46.4516129 1.29032258,46.4516129 L7.81806452,46.4516129 C8.46193548,52.2490323 13.3870968,56.7741935 19.3548387,56.7741935 C25.3225806,56.7741935 30.2477419,52.2490323 30.8916129,46.4516129 L35.0090323,46.4516129 L35.7058065,47.4980645 C37.6709677,50.4451613 38.7096774,53.876129 38.7096774,57.4193548 C38.7096774,60.9625806 37.6709677,64.3935484 35.7058065,67.3406452 L34.763871,68.7548387 C33.9690323,69.9470968 33.5496774,71.3354839 33.5496774,72.7664516 C33.5483871,76.7548387 36.7935484,80 40.7806452,80 C42.2129032,80 43.6012903,79.5793548 44.7922581,78.7858065 L45.6696774,78.2012903 C47.116129,77.2374194 48.6812903,76.4812903 50.3212903,75.9212903 L50.3212903,80 L52.9019355,80 L52.9019355,74.8387097 C52.9019355,74.4077419 52.6864516,74.0051613 52.3277419,73.7651613 L45.1612903,68.9870968 L45.1612903,64.516129 C45.1612903,63.8051613 45.7393548,63.2258065 46.4516129,63.2258065 C47.163871,63.2258065 47.7419355,63.8051613 47.7419355,64.516129 L47.7419355,68.3870968 L50.3225806,68.3870968 L50.3225806,64.516129 L50.3225806,51.6129032 C50.3225806,50.9019355 50.9006452,50.3225806 51.6129032,50.3225806 C52.3251613,50.3225806 52.9032258,50.9019355 52.9032258,51.6129032 L52.9032258,54.1935484 L52.9032258,60.6451613 L55.483871,60.6451613 L55.483871,54.1935484 L55.483871,51.6129032 L55.483871,49.0322581 C55.483871,48.3212903 56.0619355,47.7419355 56.7741935,47.7419355 C57.4864516,47.7419355 58.0645161,48.3212903 58.0645161,49.0322581 L58.0645161,51.6129032 L58.0645161,54.1935484 L58.0645161,60.6451613 L60.6451613,60.6451613 L60.6451613,54.1935484 L60.6451613,51.6129032 C60.6451613,50.9019355 61.2232258,50.3225806 61.9354839,50.3225806 C62.6477419,50.3225806 63.2258065,50.9019355 63.2258065,51.6129032 L63.2258065,56.7741935 L63.2258065,60.6451613 L65.8064516,60.6451613 L65.8064516,56.7741935 C65.8064516,56.0632258 66.3845161,55.483871 67.0967742,55.483871 C67.8090323,55.483871 68.3870968,56.0632258 68.3870968,56.7741935 L68.3870968,70.4335484 L66.1845161,72.636129 C65.9419355,72.8774194 65.8064516,73.2064516 65.8064516,73.5483871 L65.8064516,80 L68.3870968,80 L68.3870968,78.5393548 L68.7548387,78.7845161 C69.9470968,79.5793548 71.3341935,80 72.7677419,80 C76.7548387,80 80,76.7548387 80,72.7677419 C80,71.3354839 79.5806452,69.9483871 78.7858065,68.756129 L77.843871,67.3419355 C75.8774194,64.3935484 74.8387097,60.9625806 74.8387097,57.4193548 C74.8387097,53.876129 75.8774194,50.4451613 77.8425806,47.4980645 L78.7845161,46.083871 C79.5793548,44.8916129 79.9987097,43.5032258 79.9987097,42.0722581 C80,38.083871 76.7548387,34.8387097 72.7677419,34.8387097 C71.3354839,34.8387097 69.9470968,35.2593548 68.756129,36.0529032 L67.8787097,36.6374194 C64.5793548,38.8374194 60.7393548,40 56.7741935,40 C52.8090323,40 48.9690323,38.8374194 45.6709677,36.6387097 L44.7935484,36.0541935 C43.6012903,35.2593548 42.2141935,34.8387097 40.7806452,34.8387097 C36.7935484,34.8387097 33.5483871,38.083871 33.5483871,42.0709677 C33.5483871,42.683871 33.6412903,43.2851613 33.7909677,43.8709677 L30.8916129,43.8709677 C30.2477419,38.0735484 25.3225806,33.5483871 19.3548387,33.5483871 C13.3870968,33.5483871 8.46193548,38.0735484 7.81806452,43.8709677 L2.58064516,43.8709677 L2.58064516,36.1290323 L6.4516129,36.1290323 C7.16516129,36.1290323 7.74193548,35.5509677 7.74193548,34.8387097 L7.74193548,27.8851613 L19.7083871,24.4658065 C20.0090323,24.3806452 20.2683871,24.1883871 20.4374194,23.9264516 L31.5806452,6.70580645 C33.2529032,4.12258065 36.0877419,2.58064516 39.1651613,2.58064516 L60.1845161,2.58064516 C63.8593548,2.58064516 67.1380645,4.77677419 68.5367742,8.17419355 L74.9367742,23.7174194 C75.1341935,24.2 75.6064516,24.516129 76.1290323,24.516129 Z M40.7806452,37.4193548 C41.7019355,37.4193548 42.5935484,37.6890323 43.3612903,38.2 L44.2387097,38.7845161 C47.963871,41.2683871 52.2980645,42.5806452 56.7741935,42.5806452 C61.2503226,42.5806452 65.5845161,41.2683871 69.3096774,38.7858065 L70.1870968,38.2012903 C70.9548387,37.6903226 71.8464516,37.4206452 72.7677419,37.4206452 C75.3329032,37.4193548 77.4193548,39.5058065 77.4193548,42.0709677 C77.4193548,42.9922581 77.1496774,43.8851613 76.6387097,44.6516129 L75.6967742,46.0658065 C73.4464516,49.4387097 72.2580645,53.363871 72.2580645,57.4193548 C72.2580645,61.4748387 73.4464516,65.4 75.6954839,68.7729032 L76.6374194,70.1870968 C77.1483871,70.9535484 77.4180645,71.8464516 77.4180645,72.7677419 C77.4193548,75.3329032 75.3329032,77.4193548 72.7677419,77.4193548 C71.8464516,77.4193548 70.9548387,77.1496774 70.1870968,76.6387097 L69.3096774,76.0541935 C69.0090323,75.8541935 68.6954839,75.6774194 68.3870968,75.4929032 L68.3870968,74.083871 L70.5896774,71.8812903 C70.8322581,71.6387097 70.9677419,71.3096774 70.9677419,70.9677419 L70.9677419,56.7741935 C70.9677419,54.64 69.2309677,52.9032258 67.0967742,52.9032258 C66.6425806,52.9032258 66.2116129,52.996129 65.8064516,53.1406452 L65.8064516,51.6129032 C65.8064516,49.4787097 64.0696774,47.7419355 61.9354839,47.7419355 C61.4258065,47.7419355 60.9419355,47.8464516 60.4954839,48.0258065 C60.0503226,46.3806452 58.5587097,45.1612903 56.7741935,45.1612903 C54.9896774,45.1612903 53.4993548,46.3806452 53.0529032,48.0258065 C52.6064516,47.8464516 52.1225806,47.7419355 51.6129032,47.7419355 C49.4787097,47.7419355 47.7419355,49.4787097 47.7419355,51.6129032 L47.7419355,60.8825806 C47.3367742,60.7380645 46.9058065,60.6451613 46.4516129,60.6451613 C44.3174194,60.6451613 42.5806452,62.3819355 42.5806452,64.516129 L42.5806452,69.6774194 C42.5806452,70.1083871 42.796129,70.5109677 43.1548387,70.7509677 L48.0619355,74.0219355 C46.7303226,74.5793548 45.4464516,75.2477419 44.2387097,76.0529032 L43.3612903,76.6374194 C42.5935484,77.1483871 41.7019355,77.4180645 40.7806452,77.4180645 C38.2154839,77.4193548 36.1290323,75.3329032 36.1290323,72.7677419 C36.1290323,71.8464516 36.3987097,70.9535484 36.9096774,70.1870968 L37.8516129,68.7729032 C40.1019355,65.4 41.2903226,61.4748387 41.2903226,57.4193548 C41.2903226,53.363871 40.1019355,49.4387097 37.8529032,46.0658065 L36.9109677,44.6516129 C36.4,43.8851613 36.1303226,42.9922581 36.1303226,42.0709677 C36.1290323,39.5058065 38.2154839,37.4193548 40.7806452,37.4193548 L40.7806452,37.4193548 Z M19.3548387,36.1290323 C24.3341935,36.1290323 28.3870968,40.1806452 28.3870968,45.1612903 C28.3870968,50.1419355 24.3341935,54.1935484 19.3548387,54.1935484 C14.3754839,54.1935484 10.3225806,50.1419355 10.3225806,45.1612903 C10.3225806,40.1806452 14.3754839,36.1290323 19.3548387,36.1290323 Z M5.16129032,33.5483871 L2.58064516,33.5483871 L2.58064516,29.36 L5.16129032,28.6232258 L5.16129032,33.5483871 Z" id="Shape"></path>
                                <path d="M19.3548387,51.6129032 C22.9122581,51.6129032 25.8064516,48.7187097 25.8064516,45.1612903 C25.8064516,41.603871 22.9122581,38.7096774 19.3548387,38.7096774 C15.7974194,38.7096774 12.9032258,41.603871 12.9032258,45.1612903 C12.9032258,48.7187097 15.7974194,51.6129032 19.3548387,51.6129032 Z M19.3548387,41.2903226 C21.4890323,41.2903226 23.2258065,43.0270968 23.2258065,45.1612903 C23.2258065,47.2954839 21.4890323,49.0322581 19.3548387,49.0322581 C17.2206452,49.0322581 15.483871,47.2954839 15.483871,45.1612903 C15.483871,43.0270968 17.2206452,41.2903226 19.3548387,41.2903226 Z" id="Shape"></path>
                                <path d="M70.7406452,23.956129 C70.9819355,23.6064516 71.0348387,23.16 70.8812903,22.7625806 L65.7032258,9.29677419 C64.7509677,6.82322581 62.3303226,5.16129032 59.6812903,5.16129032 L40.3032258,5.16129032 C38.0464516,5.16129032 35.9922581,6.30967742 34.8077419,8.23225806 L25.9974194,22.5496774 C25.7522581,22.9483871 25.7419355,23.4464516 25.9703226,23.8554839 C26.1987097,24.2645161 26.6296774,24.516129 27.0967742,24.516129 L69.6774194,24.516129 C70.1019355,24.516129 70.5006452,24.3070968 70.7406452,23.956129 Z M37.0064516,9.58451613 C37.716129,8.43096774 38.9496774,7.74193548 40.3032258,7.74193548 L47.7419355,7.74193548 L47.7419355,21.9354839 L29.4051613,21.9354839 L37.0064516,9.58451613 Z M50.3225806,21.9354839 L50.3225806,7.74193548 L59.6812903,7.74193548 C61.2696774,7.74193548 62.7225806,8.73935484 63.2941935,10.2232258 L67.7987097,21.9354839 L50.3225806,21.9354839 Z" id="Shape"></path>
                                <polygon id="Path" points="45.1612903 27.0967742 50.3225806 27.0967742 50.3225806 29.6774194 45.1612903 29.6774194"></polygon>
                                <polygon id="Path" points="65.8064516 27.0967742 70.9677419 27.0967742 70.9677419 29.6774194 65.8064516 29.6774194"></polygon>
                                <path d="M29.6774194,70.9677419 C26.8309677,70.9677419 24.516129,68.6529032 24.516129,65.8064516 C24.516129,65.0941935 23.9393548,64.516129 23.2258065,64.516129 C22.5122581,64.516129 21.9354839,65.0941935 21.9354839,65.8064516 C21.9354839,68.6529032 19.6206452,70.9677419 16.7741935,70.9677419 C16.0606452,70.9677419 15.483871,71.5458065 15.483871,72.2580645 C15.483871,72.9703226 16.0606452,73.5483871 16.7741935,73.5483871 C19.6206452,73.5483871 21.9354839,75.8632258 21.9354839,78.7096774 C21.9354839,79.4219355 22.5122581,80 23.2258065,80 C23.9393548,80 24.516129,79.4219355 24.516129,78.7096774 C24.516129,75.8632258 26.8309677,73.5483871 29.6774194,73.5483871 C30.3909677,73.5483871 30.9677419,72.9703226 30.9677419,72.2580645 C30.9677419,71.5458065 30.3909677,70.9677419 29.6774194,70.9677419 Z M23.2258065,74.4348387 C22.6529032,73.5729032 21.9109677,72.8322581 21.0490323,72.2580645 C21.9109677,71.6851613 22.6516129,70.9432258 23.2258065,70.0812903 C23.7987097,70.9432258 24.5406452,71.683871 25.4025806,72.2580645 C24.5406452,72.8309677 23.7987097,73.5729032 23.2258065,74.4348387 Z" id="Shape"></path>
                                <path d="M14.1935484,61.9354839 C11.3470968,61.9354839 9.03225806,59.6206452 9.03225806,56.7741935 C9.03225806,56.0619355 8.45548387,55.483871 7.74193548,55.483871 C7.0283871,55.483871 6.4516129,56.0619355 6.4516129,56.7741935 C6.4516129,59.6206452 4.13677419,61.9354839 1.29032258,61.9354839 C0.576774194,61.9354839 0,62.5135484 0,63.2258065 C0,63.9380645 0.576774194,64.516129 1.29032258,64.516129 C4.13677419,64.516129 6.4516129,66.8309677 6.4516129,69.6774194 C6.4516129,70.3896774 7.0283871,70.9677419 7.74193548,70.9677419 C8.45548387,70.9677419 9.03225806,70.3896774 9.03225806,69.6774194 C9.03225806,66.8309677 11.3470968,64.516129 14.1935484,64.516129 C14.9070968,64.516129 15.483871,63.9380645 15.483871,63.2258065 C15.483871,62.5135484 14.9070968,61.9354839 14.1935484,61.9354839 Z M7.74193548,65.4025806 C7.16903226,64.5406452 6.42709677,63.7987097 5.56516129,63.2258065 C6.42709677,62.6529032 7.16903226,61.9109677 7.74193548,61.0490323 C8.31483871,61.9109677 9.05677419,62.6529032 9.91870968,63.2258065 C9.05677419,63.7987097 8.31483871,64.5406452 7.74193548,65.4025806 L7.74193548,65.4025806 Z" id="Shape"></path>
                                <path d="M1.29032258,9.03225806 C4.13677419,9.03225806 6.4516129,11.3470968 6.4516129,14.1935484 C6.4516129,14.9058065 7.0283871,15.483871 7.74193548,15.483871 C8.45548387,15.483871 9.03225806,14.9058065 9.03225806,14.1935484 C9.03225806,11.3470968 11.3470968,9.03225806 14.1935484,9.03225806 C14.9070968,9.03225806 15.483871,8.45419355 15.483871,7.74193548 C15.483871,7.02967742 14.9070968,6.4516129 14.1935484,6.4516129 C11.3470968,6.4516129 9.03225806,4.13677419 9.03225806,1.29032258 C9.03225806,0.578064516 8.45548387,0 7.74193548,0 C7.0283871,0 6.4516129,0.578064516 6.4516129,1.29032258 C6.4516129,4.13677419 4.13677419,6.4516129 1.29032258,6.4516129 C0.576774194,6.4516129 0,7.02967742 0,7.74193548 C0,8.45419355 0.576774194,9.03225806 1.29032258,9.03225806 Z M7.74193548,5.56516129 C8.31483871,6.42709677 9.05677419,7.16903226 9.91870968,7.74193548 C9.05677419,8.31483871 8.31483871,9.05677419 7.74193548,9.91870968 C7.16903226,9.05677419 6.42709677,8.31483871 5.56516129,7.74193548 C6.42709677,7.16903226 7.16903226,6.42709677 7.74193548,5.56516129 L7.74193548,5.56516129 Z" id="Shape"></path>
                            </g>
                        </g>
                    </g>
                </g>
            </g>
        </g>
    </g>
</svg>