<?xml version="1.0" encoding="UTF-8"?>
<svg width="83px" height="80px" viewBox="0 0 83 80" version="1.1" xmlns="http://www.w3.org/2000/svg" xmlns:xlink="http://www.w3.org/1999/xlink">
    <!-- Generator: Sketch 60 (88103) - https://sketch.com -->
    <title>call-center</title>
    <desc>Created with Sketch.</desc>
    <g id="Page-1" stroke="none" stroke-width="1" fill="none" fill-rule="evenodd">
        <g id="Главная-Томь-Лада" transform="translate(-251.000000, -1799.000000)" fill="#FFFFFF" fill-rule="nonzero">
            <g id="Group-50" transform="translate(250.000000, 1558.000000)">
                <g id="Group-49" transform="translate(0.000000, 234.000000)">
                    <g id="Group-47" transform="translate(0.000000, 7.000000)">
                        <g id="call-center-2" transform="translate(1.000000, 0.000000)">
                            <g id="call-center">
                                <path d="M48,0 C58.3093153,0 66.6666667,8.35735134 66.6666667,18.6666667 L66.6666667,18.6666667 L66.6666667,21.3333333 L70,21.3333333 C72.5761485,21.3361808 74.6638192,23.4238515 74.6666667,26 L74.6666667,26 L74.6666667,34 C74.6638192,36.5761485 72.5761485,38.6638192 70,38.6666667 L70,38.6666667 L66.1,38.6666667 C64.925,42.8133333 62.0483333,46.4466667 58.6666667,49.0583333 L58.6666667,49.0583333 L58.6666667,53.6633333 L71.7483333,57.4333333 C78.182362,59.1359548 82.6643449,64.9561698 82.6666667,71.6116667 L82.6666667,71.6116667 L82.6666667,78.6666667 C82.6666667,79.4030463 82.069713,80 81.3333333,80 L81.3333333,80 L6.66666667,80 C5.930287,80 5.33333333,79.4030463 5.33333333,78.6666667 C5.33333333,77.930287 5.930287,77.3333333 6.66666667,77.3333333 L6.66666667,77.3333333 L9.59666667,77.3333333 L10.19,74.6666667 L3.33333333,74.6666667 C1.49314579,74.6648292 0.00183743276,73.1735209 -1.21502808e-12,71.3333333 L-1.21502808e-12,71.3333333 L-1.21502808e-12,51.3333333 C0.00183743276,49.4931458 1.49314579,48.0018374 3.33333333,48 L3.33333333,48 L31.3333333,48 C33.1735209,48.0018374 34.6648292,49.4931458 34.6666667,51.3333333 L34.6666667,51.3333333 L34.6666667,54.4316667 L37.3333333,53.6633333 L37.3333333,49.0583333 C35.9142825,47.9656534 34.6233074,46.7160521 33.485,45.3333333 L33.485,45.3333333 L28,45.3333333 C27.2636203,45.3333333 26.6666667,44.7363797 26.6666667,44 L26.6666667,44 L26.6666667,38.6666667 L26,38.6666667 C23.4238515,38.6638192 21.3361808,36.5761485 21.3333333,34 L21.3333333,34 L21.3333333,26 C21.3361808,23.4238515 23.4238515,21.3361808 26,21.3333333 L26,21.3333333 L29.3333333,21.3333333 L29.3333333,18.6666667 C29.3333333,8.35735134 37.6906847,0 48,0 Z M2.66666667,77.3333333 C3.40304633,77.3333333 4,77.930287 4,78.6666667 C4,79.4030463 3.40304633,80 2.66666667,80 L2.66666667,80 L1.33333333,80 C0.596953667,80 -4.4408921e-16,79.4030463 -4.4408921e-16,78.6666667 C-4.4408921e-16,77.930287 0.596953667,77.3333333 1.33333333,77.3333333 L1.33333333,77.3333333 Z M20.2633333,68 L14.4033333,68 L13.1583333,73.6016667 L13.1583333,73.6033333 L12.3283333,77.3333333 L22.3383333,77.3333333 L21.5083333,73.6033333 L21.5083333,73.6016667 L20.2633333,68 Z M34.6666667,62.06 L34.6666667,71.3333333 C34.6648292,73.1735209 33.1735209,74.6648292 31.3333333,74.6666667 L31.3333333,74.6666667 L24.4766667,74.6666667 L25.07,77.3333333 L43.0383333,77.3333333 L43.8933333,74.7683333 L41.5366667,70.055 L40.5966667,70.5266667 C39.9470461,70.8501519 39.1579954,70.5955239 38.82,69.9533333 L38.82,69.9533333 L34.6666667,62.06 Z M49.7433333,76 L46.295,76 L45.85,77.3333333 L50.2433333,77.3333333 L49.7433333,76 Z M63.63,57.8683333 L57.2716667,69.9533333 C57.0410766,70.3923528 56.5858928,70.6671324 56.09,70.6666667 C55.8870614,70.6669088 55.686826,70.6201302 55.505,70.53 L55.505,70.53 L54.4766667,70.0266667 L52.12,74.7433333 L53.09,77.3333333 L70.6666667,77.3333333 L70.6666667,73.3333333 C70.6666667,72.5969537 71.2636203,72 72,72 C72.7363797,72 73.3333333,72.5969537 73.3333333,73.3333333 L73.3333333,73.3333333 L73.3333333,77.3333333 L80,77.3333333 L80,71.6116667 C79.997671,66.1619121 76.3247446,61.3974416 71.055,60.0083333 C71.0452299,60.004786 71.0352,60.0019999 71.025,60 L71.025,60 L63.63,57.8683333 Z M47.9683333,66.84 L43.9216667,68.8633333 L46.1566667,73.3333333 L49.8433333,73.3333333 L52.0816667,68.8533333 L47.9683333,66.84 Z M31.3333333,50.6666667 L3.33333333,50.6666667 C2.9651435,50.6666667 2.66666667,50.9651435 2.66666667,51.3333333 L2.66666667,51.3333333 L2.66666667,71.3333333 C2.66666667,71.7015232 2.9651435,72 3.33333333,72 L3.33333333,72 L10.7816667,72 L12.0316667,66.3766667 C12.1672081,65.7666769 12.7084664,65.3328387 13.3333333,65.3333333 L13.3333333,65.3333333 L21.3333333,65.3333333 C21.9582003,65.3328387 22.4994586,65.7666769 22.635,66.3766667 L22.635,66.3766667 L23.885,72 L31.3333333,72 C31.7015232,72 32,71.7015232 32,71.3333333 L32,71.3333333 L32,51.3333333 C32,50.9651435 31.7015232,50.6666667 31.3333333,50.6666667 L31.3333333,50.6666667 Z M57.7783333,56.1833333 L50.1266667,64.9266667 L55.515,67.5666667 L61.0133333,57.115 L57.7783333,56.1833333 Z M38.2216667,56.1833333 L35.0666667,57.0916667 L40.5716667,67.5566667 L45.86,64.9133333 L38.2216667,56.1833333 Z M56,50.85 C53.27,52.43 50.4233333,53.3333333 48,53.3333333 C45.5766667,53.3333333 42.73,52.43 40,50.85 L40,50.85 L40,54.165 L48,63.3083333 L56,54.165 Z M55.63,20.4483333 C52.6383333,22.03 43.71,26.1816667 32,26.4816667 L32,26.4816667 L32,34.6666667 C32,36.395 32.425,39.3866667 34.77,42.6666667 L34.77,42.6666667 L42.8966667,42.6666667 C43.4628517,41.0698864 44.97248,40.002068 46.6666667,40 L46.6666667,40 L49.3333333,40 C51.5424723,40 53.3333333,41.790861 53.3333333,44 C53.3333333,46.209139 51.5424723,48 49.3333333,48 L49.3333333,48 L46.6666667,48 C44.97248,47.997932 43.4628517,46.9301136 42.8966667,45.3333333 L42.8966667,45.3333333 L37.085,45.3333333 C37.29,45.5316667 37.5016667,45.7316667 37.7233333,45.93 C40.9333333,48.8066667 44.9683333,50.6666667 48,50.6666667 C51.0316667,50.6666667 55.0666667,48.8066667 58.2766667,45.93 C63.2566667,41.4666667 64,36.9583333 64,34.6666667 L64,25.99 C60.6775549,25.1111357 57.7364217,23.1638502 55.63,20.4483333 Z M49.3333333,42.6666667 L46.6666667,42.6666667 C45.9307057,42.6676765 45.3343432,43.264039 45.3333333,44 C45.3343432,44.735961 45.9307057,45.3323235 46.6666667,45.3333333 L46.6666667,45.3333333 L49.3333333,45.3333333 C50.069713,45.3333333 50.6666667,44.7363797 50.6666667,44 C50.6666667,43.2636203 50.069713,42.6666667 49.3333333,42.6666667 L49.3333333,42.6666667 Z M29.9,38.6666667 L29.3333333,38.6666667 L29.3333333,42.6666667 L31.6233333,42.6666667 C30.8822738,41.4114599 30.3032193,40.0674263 29.9,38.6666667 L29.9,38.6666667 Z M68,24 L66.6666667,24 L66.6666667,36 L68,36 L68,24 Z M29.3333333,24 L28,24 L28,36 L29.3333333,36 L29.3333333,24 Z M70.6666667,24.1166667 L70.6666667,35.8833333 C71.4645288,35.6005084 71.9983363,34.8465052 72,34 L72,34 L72,26 C71.9983363,25.1534948 71.4645288,24.3994916 70.6666667,24.1166667 L70.6666667,24.1166667 Z M25.3333333,24.1166667 C24.5354712,24.3994916 24.0016637,25.1534948 24,26 L24,26 L24,34 C24.0016637,34.8465052 24.5354712,35.6005084 25.3333333,35.8833333 L25.3333333,35.8833333 Z M40,26.6666667 C41.4727593,26.6666667 42.6666667,27.860574 42.6666667,29.3333333 C42.6666667,30.8060927 41.4727593,32 40,32 C38.5272407,32 37.3333333,30.8060927 37.3333333,29.3333333 C37.3333333,27.860574 38.5272407,26.6666667 40,26.6666667 Z M56,26.6666667 C57.4727593,26.6666667 58.6666667,27.860574 58.6666667,29.3333333 C58.6666667,30.8060927 57.4727593,32 56,32 C54.5272407,32 53.3333333,30.8060927 53.3333333,29.3333333 C53.3333333,27.860574 54.5272407,26.6666667 56,26.6666667 Z M48,2.66666667 C39.163444,2.66666667 32,9.83011067 32,18.6666667 L32,18.6666667 L32,23.815 C45.4483333,23.445 55.2216667,17.63 55.3216667,17.5683333 C55.9298061,17.201516 56.7186885,17.3751141 57.1166667,17.9633333 C58.7550228,20.439085 61.1799848,22.2903938 64,23.2183333 L64,23.2183333 L64,18.6666667 C64,9.83011067 56.836556,2.66666667 48,2.66666667 Z" id="Combined-Shape"></path>
                            </g>
                        </g>
                    </g>
                </g>
            </g>
        </g>
    </g>
</svg>