<?xml version="1.0" encoding="UTF-8"?>
<svg width="80px" height="80px" viewBox="0 0 80 80" version="1.1" xmlns="http://www.w3.org/2000/svg" xmlns:xlink="http://www.w3.org/1999/xlink">
    <!-- Generator: Sketch 60 (88103) - https://sketch.com -->
    <title>Combined Shape 2</title>
    <desc>Created with Sketch.</desc>
    <g id="Page-1" stroke="none" stroke-width="1" fill="none" fill-rule="evenodd">
        <g id="Главная-Томь-Лада" transform="translate(-620.000000, -1086.000000)" fill="#F77620" fill-rule="nonzero">
            <g id="Group-29" transform="translate(222.000000, 862.000000)">
                <g id="Group-28" transform="translate(0.000000, 224.000000)">
                    <g id="Group-23" transform="translate(394.000000, 0.000000)">
                        <g id="wheel-(1)-2" transform="translate(4.000000, 0.000000)">
                            <g id="wheel-(1)">
                                <g id="Combined-Shape-2">
                                    <path d="M39.9492607,-1.98951966e-13 C50.6200778,-1.98951966e-13 60.6522957,4.15548638 68.1976654,11.700856 C75.7431907,19.2463813 79.8985214,29.2784436 79.8985214,39.9492607 C79.8985214,50.6200778 75.743035,60.6521401 68.1976654,68.1976654 C60.6522957,75.7431907 50.6200778,79.8985214 39.9492607,79.8985214 C29.2784436,79.8985214 19.2462257,75.743035 11.700856,68.1976654 C4.15548638,60.6522957 -1.10844667e-12,50.6200778 -1.10844667e-12,39.9492607 C-1.10844667e-12,29.2784436 4.15533074,19.2462257 11.700856,11.700856 C19.2463813,4.15548638 29.2784436,-1.98951966e-13 39.9492607,-1.98951966e-13 Z M39.9492607,2.33463035 C29.9021012,2.33463035 20.4561868,6.24731518 13.351751,13.3515953 C6.24731518,20.4561868 2.33463035,29.9019455 2.33463035,39.9492607 C2.33463035,49.9965759 6.24731518,59.4423346 13.3515953,66.5469261 C20.4561868,73.6513619 29.9019455,77.5640467 39.9492607,77.5640467 C49.9965759,77.5640467 59.4424903,73.6513619 66.5469261,66.5469261 C73.6513619,59.4423346 77.5640467,49.9967315 77.5640467,39.9494163 C77.5640467,29.9021012 73.6513619,20.4561868 66.5469261,13.351751 C59.4423346,6.24731518 49.9964202,2.33463035 39.9492607,2.33463035 Z M39.9492607,4.6692607 C49.3729183,4.6692607 58.2325292,8.33898833 64.8960311,15.0026459 C71.5596887,21.6661479 75.2294163,30.5254475 75.2294163,39.9491051 C75.2294163,49.3727626 71.5595331,58.2323735 64.8960311,64.8958755 C58.2325292,71.5595331 49.3729183,75.2292607 39.9492607,75.2292607 C30.5256031,75.2292607 21.6659922,71.5593774 15.0024903,64.8958755 C11.0954086,60.9887938 8.23377432,56.3831907 6.49696498,51.2068482 C6.29198444,50.595642 6.62116732,49.9338521 7.23237354,49.7288716 C7.84326848,49.5238911 8.50521401,49.8530739 8.71035019,50.4642802 C10.3313619,55.2954086 13.0037354,59.5954864 16.6533852,63.2451362 C22.8759533,69.4677043 31.1492607,72.8946304 39.9492607,72.8946304 C48.7492607,72.8946304 57.0225681,69.4677043 63.2451362,63.2451362 C69.4677043,57.0225681 72.8946304,48.7492607 72.8946304,39.9492607 C72.8946304,31.1492607 69.4677043,22.8759533 63.2451362,16.6533852 C57.0225681,10.4308171 48.7492607,7.00389105 39.9492607,7.00389105 C31.1492607,7.00389105 22.8759533,10.4308171 16.6533852,16.6533852 C10.4308171,22.8759533 7.00389105,31.1492607 7.00389105,39.9492607 C7.00389105,41.9123735 7.17821012,43.8842023 7.52171206,45.8096498 C7.63501946,46.4442023 7.21245136,47.0505837 6.57774319,47.1638911 C5.94287938,47.2775097 5.33680934,46.8546304 5.22350195,46.2199222 C4.85571984,44.1592218 4.6692607,42.0494942 4.6692607,39.9492607 C4.6692607,30.5256031 8.33898833,21.6661479 15.0026459,15.0026459 C21.6661479,8.33898833 30.5256031,4.6692607 39.9492607,4.6692607 Z M39.9494163,15.4658366 C53.4496498,15.4658366 64.4328405,26.4490272 64.4328405,39.9492607 C64.4328405,43.9511284 63.444358,47.9235798 61.5740078,51.4370428 C61.2709728,52.0062257 60.5638911,52.2219455 59.9950195,51.9190661 C59.4258366,51.6160311 59.2101167,50.9091051 59.5129961,50.3400778 C61.2042023,47.1629572 62.0980545,43.5699611 62.0980545,39.9492607 C62.0980545,27.7364981 52.162179,17.8004669 39.9492607,17.8004669 C27.7363424,17.8004669 17.8004669,27.7363424 17.8004669,39.9492607 C17.8004669,52.162179 27.7363424,62.0980545 39.9492607,62.0980545 C46.4418677,62.0980545 52.5856809,59.2616342 56.8051362,54.3159533 C57.2235019,53.8256809 57.9604669,53.7673152 58.4507393,54.1856809 C58.9411673,54.6040467 58.9995331,55.340856 58.5811673,55.831284 C53.9175097,61.2975875 47.1263813,64.4326848 39.9492607,64.4326848 C26.4491829,64.4326848 15.4658366,53.4493385 15.4658366,39.9492607 C15.4658366,26.4491829 26.4491829,15.4658366 39.9494163,15.4658366 Z M39.9492607,20.1350973 C44.4929183,20.1350973 48.6832685,21.673463 52.029572,24.2550973 L52.029572,24.2550973 L52.0379767,24.2616342 C53.3856809,25.3024125 54.5957977,26.5126848 55.6367315,27.8602335 L55.6367315,27.8602335 L55.6446693,27.8705058 C58.2256809,31.2164981 59.7634241,35.4063813 59.7629573,39.9492607 C59.7629573,44.4930739 58.2245914,48.6835798 55.6428016,52.0298833 L55.6428016,52.0298833 L55.6367315,52.0379767 C54.5957977,53.3856809 53.3856809,54.5959533 52.0379767,55.6368872 C52.0347082,55.6395331 52.031284,55.6418677 52.0280156,55.6445136 C48.6820233,58.2256809 44.4919844,59.7635798 39.9489494,59.7635798 C35.4057588,59.7635798 31.2157198,58.2256809 27.8697276,55.6445136 L27.8697276,55.6445136 L27.8599222,55.6368872 C26.5122179,54.5959533 25.3021012,53.3856809 24.2611673,52.0379767 L24.2611673,52.0379767 L24.2550973,52.0298833 C21.6733074,48.6835798 20.1349416,44.4929183 20.1349416,39.9492607 C20.1349416,35.4063813 21.6728405,31.2164981 24.2538521,27.8705058 L24.2538521,27.8705058 L24.2617899,27.8602335 C25.3027237,26.5125292 26.5129961,25.3024125 27.8607004,24.2614786 L27.8607004,24.2614786 L27.8683268,24.2555642 C31.2146304,21.6736187 35.4054475,20.1350973 39.9492607,20.1350973 Z M41.2098054,50.1319844 C40.7964202,50.1828794 40.3763424,50.2121401 39.9494163,50.2121401 C39.5224903,50.2121401 39.1024125,50.1828794 38.6890272,50.1319844 L38.6890272,50.1319844 L38.6890272,57.383035 C39.1053696,57.4129183 39.5256031,57.4287938 39.9494163,57.4287938 C40.3732296,57.4287938 40.793463,57.4129183 41.2098054,57.383035 L41.2098054,57.383035 Z M35.6968093,49.2859144 L30.4001556,54.5825681 C32.1861479,55.7519066 34.1975097,56.6035798 36.3543969,57.0563424 L36.3543969,57.0563424 L36.3543969,49.5607782 C36.1312062,49.4770428 35.9123735,49.3844358 35.6968093,49.2859144 L35.6968093,49.2859144 Z M44.2018677,49.2859144 C43.9863035,49.3845914 43.7674708,49.4770428 43.5442802,49.5607782 L43.5442802,49.5607782 L43.5442802,57.0563424 C45.7011673,56.6037354 47.7126848,55.7519066 49.4985214,54.5825681 L49.4985214,54.5825681 Z M31.8611673,46.2550973 L26.7358755,51.3802335 C27.2866926,52.0161868 27.8824903,52.6119844 28.5184436,53.1626459 L28.5184436,53.1626459 L33.6435798,48.0375097 C32.979144,47.5182879 32.3803891,46.9195331 31.8611673,46.2550973 L31.8611673,46.2550973 Z M48.0375097,46.2552529 C47.5182879,46.9196887 46.9195331,47.5184436 46.2550973,48.0376654 L46.2550973,48.0376654 L51.3802335,53.1628016 C52.0161868,52.6119844 52.6119844,52.0161868 53.1628016,51.3803891 L53.1628016,51.3803891 Z M57.0563424,43.5444358 L49.5607782,43.5444358 C49.4770428,43.7676265 49.3844358,43.9864591 49.2859144,44.2020233 L49.2859144,44.2020233 L54.5825681,49.4985214 C55.7519066,47.7125292 56.6037354,45.7011673 57.0563424,43.5444358 L57.0563424,43.5444358 Z M30.3377432,43.5442802 L22.842179,43.5442802 C23.2949416,45.7011673 24.1466148,47.7125292 25.3159533,49.4983658 L25.3159533,49.4983658 L30.612607,44.2018677 C30.5140856,43.9863035 30.4214786,43.7674708 30.3377432,43.5442802 L30.3377432,43.5442802 Z M39.9494163,32.0211673 C39.2303502,32.0211673 38.5340078,32.1192218 37.8711284,32.2994553 C37.8681712,32.3003891 37.865214,32.3010117 37.8624125,32.3019455 C35.8196109,32.8602335 34.1042802,34.2161868 33.0715953,36.0135409 C33.0711284,36.0143191 33.0706615,36.0150973 33.0701946,36.0160311 C32.4042023,37.1761868 32.0211673,38.5184436 32.0211673,39.9494163 C32.0211673,41.3803891 32.4040467,42.7226459 33.0700389,43.8828016 C33.0705058,43.8835798 33.0709728,43.884358 33.0714397,43.8852918 C34.4404669,46.2680156 37.0098054,47.8775097 39.9494163,47.8775097 C42.8890272,47.8775097 45.4582101,46.2681712 46.8272374,43.8852918 C46.8275486,43.8845136 46.8281712,43.8835798 46.8286381,43.8828016 C47.1584436,43.3083268 47.4185214,42.6893385 47.5968872,42.0364202 C47.597821,42.033463 47.5984436,42.0305058 47.5993774,42.0277043 C47.7796109,41.3649805 47.8776654,40.6684825 47.8776654,39.9494163 C47.8776654,39.2303502 47.7796109,38.5340078 47.5993774,37.8711284 C47.5984436,37.8681712 47.597821,37.865214 47.5968872,37.8624125 C47.4185214,37.2096498 47.1584436,36.5905058 46.8286381,36.0160311 C46.8281712,36.0152529 46.8277043,36.0144747 46.8272374,36.0135409 C45.7947082,34.2161868 44.0792218,32.8600778 42.0364202,32.3019455 C42.033463,32.3010117 42.0305058,32.3003891 42.0277043,32.2994553 C41.3649805,32.1192218 40.6684825,32.0211673 39.9494163,32.0211673 Z M39.9492607,34.355642 C43.0336187,34.355642 45.5428794,36.8649027 45.5428794,39.9492607 C45.5428794,43.0336187 43.0336187,45.5428794 39.9492607,45.5428794 C36.8649027,45.5428794 34.355642,43.0336187 34.355642,39.9492607 C34.355642,36.8649027 36.8649027,34.355642 39.9492607,34.355642 Z M39.9492607,36.6902724 C38.1522179,36.6902724 36.6902724,38.1522179 36.6902724,39.9492607 C36.6902724,41.7463035 38.1522179,43.208249 39.9492607,43.208249 C41.7463035,43.208249 43.208249,41.7463035 43.208249,39.9492607 C43.208249,38.1522179 41.7463035,36.6902724 39.9492607,36.6902724 Z M29.766537,38.6890272 L22.5154864,38.6890272 C22.4857588,39.1055253 22.4697276,39.5256031 22.4697276,39.9494163 C22.4697276,40.3732296 22.4856031,40.793463 22.5154864,41.2098054 L22.5154864,41.2098054 L29.766537,41.2098054 C29.715642,40.7964202 29.6863813,40.3763424 29.6863813,39.9494163 C29.6863813,39.5224903 29.715642,39.1024125 29.766537,38.6890272 L29.766537,38.6890272 Z M57.383035,38.6888716 L50.1319844,38.6888716 C50.1828794,39.1022568 50.2121401,39.5223346 50.2121401,39.9492607 C50.2121401,40.3761868 50.1828794,40.7962646 50.1319844,41.2096498 L50.1319844,41.2096498 L57.383035,41.2096498 C57.4127626,40.7931518 57.4287938,40.3730739 57.4287938,39.9492607 C57.4287938,39.5254475 57.4129183,39.105214 57.383035,38.6888716 L57.383035,38.6888716 Z M25.3161089,30.4001556 C24.1467704,32.1859922 23.2949416,34.1975097 22.8423346,36.3543969 L22.8423346,36.3543969 L30.3378988,36.3543969 C30.4216342,36.1312062 30.5142412,35.9123735 30.6127626,35.6968093 L30.6127626,35.6968093 Z M54.5825681,30.4001556 L49.2859144,35.6968093 C49.3844358,35.9123735 49.4770428,36.1312062 49.5607782,36.3543969 L49.5607782,36.3543969 L57.0563424,36.3543969 C56.6037354,34.1975097 55.7519066,32.1859922 54.5825681,30.4001556 L54.5825681,30.4001556 Z M28.5182879,26.7358755 C27.8824903,27.2866926 27.2866926,27.8824903 26.7358755,28.5184436 L26.7358755,28.5184436 L31.8610117,33.6435798 C32.3802335,32.979144 32.9789883,32.3803891 33.6434241,31.8611673 L33.6434241,31.8611673 Z M43.5442802,22.8423346 L43.5442802,30.3378988 C43.7674708,30.4216342 43.9863035,30.5142412 44.2018677,30.6127626 L44.2018677,30.6127626 L44.8189883,29.995642 C45.2747082,29.5397665 46.0138521,29.5397665 46.4697276,29.995642 C46.9256031,30.4513619 46.9256031,31.1905058 46.4697276,31.6463813 L46.4697276,31.6463813 L46.2550973,31.8610117 C46.9195331,32.3802335 47.5182879,32.9789883 48.0375097,33.6434241 L48.0375097,33.6434241 L53.1626459,28.5182879 C52.6118288,27.8824903 52.0160311,27.2866926 51.3802335,26.7358755 L51.3802335,26.7358755 L49.987393,28.1288716 C49.7595331,28.3568872 49.4607004,28.4708171 49.1620233,28.4708171 C48.8633463,28.4708171 48.5645136,28.3568872 48.3366537,28.1288716 C47.8806226,27.6729961 47.8806226,26.9338521 48.3366537,26.4779767 L48.3366537,26.4779767 L49.4985214,25.3161089 C47.7125292,24.1467704 45.7011673,23.2950973 43.5442802,22.8423346 L43.5442802,22.8423346 Z M36.3545525,22.842179 C34.1976654,23.294786 32.1861479,24.1466148 30.4003113,25.3159533 L30.4003113,25.3159533 L35.6968093,30.612607 C35.9123735,30.5140856 36.1312062,30.4216342 36.3545525,30.3377432 L36.3545525,30.3377432 Z M39.9492607,22.4698833 C39.5254475,22.4698833 39.105214,22.4857588 38.6888716,22.515642 L38.6888716,22.515642 L38.6888716,29.7666926 C39.1022568,29.7157977 39.5223346,29.686537 39.9492607,29.686537 C40.3761868,29.686537 40.7962646,29.7157977 41.2096498,29.7666926 L41.2096498,29.7666926 L41.2096498,22.515642 C40.7933074,22.4857588 40.3730739,22.4698833 39.9492607,22.4698833 Z" id="Combined-Shape"></path>
                                </g>
                            </g>
                        </g>
                    </g>
                </g>
            </g>
        </g>
    </g>
</svg>